<mxfile host="app.diagrams.net" agent="Mozilla/5.0 (Macintosh; Intel Mac OS X 10_15_7) AppleWebKit/537.36 (KHTML, like Gecko) Chrome/140.0.0.0 Safari/537.36" version="28.1.1">
  <diagram name="Page-1" id="3ycK_r2oNpsGJjltLsL_">
    <mxGraphModel dx="1426" dy="874" grid="1" gridSize="10" guides="1" tooltips="1" connect="1" arrows="1" fold="1" page="1" pageScale="1" pageWidth="827" pageHeight="1169" math="0" shadow="0">
      <root>
        <mxCell id="0" />
        <mxCell id="1" parent="0" />
        <mxCell id="BXDDLQ83dzlflyOV_idQ-1" value="&lt;b id=&quot;docs-internal-guid-537b76ef-7fff-752e-11c8-36dc232b09c5&quot; style=&quot;caret-color: rgb(0, 0, 0); color: rgb(0, 0, 0); font-style: normal; font-variant-caps: normal; letter-spacing: normal; orphans: auto; text-align: start; text-indent: 0px; text-transform: none; white-space: normal; widows: auto; word-spacing: 0px; -webkit-text-stroke-width: 0px; text-decoration: none; font-weight: normal;&quot;&gt;&lt;span style=&quot;font-size: 13pt; font-family: &amp;quot;Times New Roman&amp;quot;, serif; color: rgb(0, 0, 0); background-color: transparent; font-weight: 400; font-style: normal; font-variant-ligatures: normal; font-variant-caps: normal; font-variant-alternates: normal; font-variant-numeric: normal; font-variant-east-asian: normal; font-variant-position: normal; font-variant-emoji: normal; text-decoration: none; vertical-align: baseline; white-space: pre-wrap;&quot;&gt;&lt;span style=&quot;border: medium; display: inline-block; overflow: hidden; width: 422px; height: 416px;&quot;&gt;&lt;img src=&quot;data:image/png;base64,iVBORw0KGgoAAAANSUhEUgAAA4IAAAN0CAYAAADhwpZlAAAAAXNSR0IArs4c6QAAAERlWElmTU0AKgAAAAgAAYdpAAQAAAABAAAAGgAAAAAAA6ABAAMAAAABAAEAAKACAAQAAAABAAADgqADAAQAAAABAAADdAAAAABNFM3hAABAAElEQVR4Aey9WYxkWXrfd/cl9ojcs7Iqa+nqbbqn2UPOymUoUiRFUrSshYBJ27ABGzBg6MmA9WID9oMFv9gGDOvBD3qQIMugYAiSRZsSTXC4DIfD4Ww97O7p6u7q6uqqyso1Mva4+w1/X2SeqKjMqJsRkRlRUZH/Uzj1Rd77nXPP+d3tfPcsnyQhgAAIgAAIgAAIgAAIgAAIgAAIgAAIgAAIgAAIgAAIgAAIgAAIgAAIgAAIgAAIgAAIgAAIgAAIgAAIgAAIgAAIgAAIgAAIgAAIgAAIgAAIgAAIgAAIgAAIgAAIgAAIgAAIgAAIgAAIgAAIgAAIgAAIgAAIgAAIgAAIgAAIgAAIgAAIgAAIgAAIgAAIgAAIgAAIgAAIgAAIgAAIgAAIgAAIgAAIgAAIgAAIgAAIgAAIgAAIgAAIgAAIgAAIgAAIgAAIgAAIgAAIgAAIgAAIgAAIgAAIgAAIgAAIgAAIgAAIgAAIgAAIgAAIgAAIgAAIgAAIgAAIgAAIgAAIgAAIgAAIgAAIgAAIgAAIgAAIgAAIgAAIgAAIgAAIgAAIgAAIgAAIgAAIgAAIgAAIgAAIgAAIgAAIgAAIgAAIgAAIgAAIgAAIgAAIgAAIgAAIgAAIgAAIgAAIgAAIgAAIgAAIgAAIgAAIgAAIgAAIgAAIgAAIgAAIgAAIgAAIgAAIgAAIgAAIgAAIgAAIgAAIgAAIgAAIgAAIgAAIgAAIgAAIgAAIgAAIgAAIgAAIgAAIgAAIgAAIgAAIgAAIgAAIgAAIgAAIgAAIgAAIgAAIgAAIgAAIgAAIgAAIgAAIgAAIgAAIgAAIgAAIgAAIgAAIgAAIgAAIgAAIgAAIgAAIgAAIgAAIgAAIgAAIgAAIgAAIgAAIgAAIgAAIgAAIgAAIgAAIgAAIgAAIgAAIgAAIgAAIgAAIgAAIgAAIgAAIgAAIgAAIgAAIgAAIgAAIgAAIgAAIgAAIgAAIgAAIgAAIgAAIgAAIgAAIgAAIgAAIgAAIgAAIgAAIgAAIgAAIgAAIgAAIgAAIgAAIgAAIgAAIgAAIgAAIgAAIgAAIgAAIgAAIgAAIgAAIgAAIgAAIgAAIgAAIgAAIgAAIgAAIgAAIgAAIgAAIgAAIgAAIgAAIgAAIgAAIgAAIgAAIgAAIgAAIgAAIgAAIgAAIgAAIgAAIgAAIgAAIgAAIgAAIgAAIgAAIgAAIgAAIgAAIgAAIgAAIgAAIgAAIgAAIgAAIgAAIgAAIgAAIgAAIgAAIgAAIgAAIgAAIgAAIgAAIgAAIgAAIgAAIgAAIgAAIgAAIgAAIgAAIgAAIgAAIgAAIgAAIgAAIgAAIgAAIgAAIgAAIgAAIgAAIgAAIgAAIgAAIgAAIgAAIgAAIgAAIgAAIgAAIgAAIgAAIgAAIgAAIgAAIgAAIgAAIgAAIgAAIgAAIgAAIgAAIgAAIgAAIgAAIgAAIgAAIgAAIgAAIgAAIgAAIgAAIgAAIgAAIgAAIgAAIgAAIgAAIgAAIgAAIgAAIgAAIgAAIgAAIgAAIgAAIgAAIgAAIgAAIgAAIgAAIgAAIgAAIgAAIgAAIgAAIgAAIgAAIgAAIgAAIgAAIgAAIgAAIgAAIgAAIgAAIgAAIgAAIgAAIgAAIgAAIgAAIgAAIgAAIgAAIgAAIgAAIgAAIgAAIgAAIgAAIgAAIgAAIgAAIgAAIgAAIgAAIgAAIgAAIgAAIgAAIgAAIgAAIgAAIgAAIgAAIgAAIgAAIgAAIgAAIgAAIgAAIgAAIgAAIgAAIgAAIgAAIgAAIgAAIgAAIgAAIgAAIgAAIgAAIgAAIgAAIgAAIgAAIgAAIgAAIgAAIgAAIgAAIgAAIgAAIgAAIgAAIgAAIgAAIgAAIgAAIgAAIgAAIgAAIgAAIgAAIgAAIgAAIgAAIgAAIgAAIgAAIgAAIgAAIgAAIgAAIgAAIgAAIgAAIgAAIgAAIgAAIgAAIgAAIgAAIgAAIgAAIgAAIgAAIgAAIgAAIgAAIgAAIgAAIgAAIgAAIgAAIgAAIgAAIgAAIgAAIgAAIgAAIgAAIgAAIgAAIgAAIgAAIgAAIgAAIgAAIgMDlJiDPYPW5TDZF9Vj2l5F/dyiOEkZJI3SFHOY4QlfIUdKMojtO/tNKM4v1GKZMQmdanMY5jijjMHKc/KeVZpjyC51plWmc44gyJkmRr5BJumKf0BVSbE+So+iKfEZJI3SFFHkkSaEr5EndiDaUKY76HD+Zj/ibj7NI0aTI74xBQZRFyEE6J7cJXSFP7h/09yi6Iv0oaYSukCKPJCl0hUzSFftG0R0njchfSJFHkhS6Qibpin3j6A5K06YMQ4o1irHIHHIoAgZplSjqFPn+HPa+F+dBSEp6ZhC6Qp6ZgBRG0RX5jZJG6Aop8kiSQlfIJF2xbxzdWU4j6pUkRfmFTNIV+4SukGJ7khxFl/MJKPLzokmRnx0zH7QZLCGX6QrFNMXbFJ/1cqddCCAAAiAAAi8QgRaV9fcp+hdUZm5gfo2ieGcoF5QvsgEBJsAfLj6myEbgdyg6FBGGJ8BG4C9RLFBMDZ8MmiDwwhI4oJIfUvyA4p0XoRazaAgyNzb+uGz8NanfEBzVMqfkI33xEfkLyenPCkJXyLP0ef84urOcZpQ6T6sew5RJ6EyrTOMcR5RxGDlO/tNKM0z5hc60yjTOcUQZk6TIV8gkXbFP6AoptifJUXRFPqOkEbpCijySpNAV8qTuRRmAIl8+Dr8nrOM4yBAUZRFSpE2SQlfIJF2xbxTdcdKI/IUUeSRJoStkkq7YN4ruOGlE/kKKPJKk0BUySVfsG0f3ZBo2BPn64g8OCKMT4PtR3J880gs9gmczFNegkGenQJtyGtfVMOeBdfhdxM+LftuFt89smEVDkC9+EfkhcvLFzvtGDaOkEbpCDnMsoSvkKGlG0R0n/2mlmcV6DFMmoTMtTuMcR5RxGDlO/tNKM0z5hc60yjTOcUQZk6TIV8gkXbFP6AoptifJUXRFPqOkEbpCijySpNAVsl+Xn+e8neOwL+/+9IN+c16cL794T74vBuljGwiMQkBcrywRRiMg7k2+L3FvjsYO2i8mAb7OxTPjhajBLBqC/Y2D3m+9cFUylq5L0Ygj9FVFpTT8Ue/sIHSFPDsFtTyO8xdylDSj6I6T/7TSzGI9himT0JkWp3GOI8o4jBwn/2mlGab8QmdaZRrnOKKMSVLkK2SSrtgndIUU25PkKLoin1HSCF0hRR5JUuiy9KtbUhy0paixRwPseNpEL/Bzvfds720934+j/OgVbGRSkpaypFQxKykKbVDopRH3yWGOc540w+QvdMRxxN9JUugKmaQr9gldIcX2JDmKrshnlDRCV0iRR5IUukIm6Yp94+hSmuZ+Q3IPqlIcdhsbF32ditJdSmlRX0kmI0krVzQpleL28uCgkM0Y0z8hB2s9vVXoCvn03sF/jaIrchgljdAVUuSRJIWukEm6Yt84urOcRtQrSYryC5mkK/YJXSHF9iR5lq5LY1w++TCUQj+W/KPxLuKZIWRS9jOxbxYNwYFg1KVbkvXqz0t+16Z79gPkZGKDvhEfpTm55/TfQlfI0xqntwhdIU9rnN4yju4spzldw9NbRPmFPK1xeovQFfK0xukto+iK1KOkEbpCijySpNAVMklX7BtFd5w0In8hRR5JUugKmaQr9o2iO04akb+QIo8kKXSFTNIV+8bRnVYaUcZh5LTKxMeJHr4jqY19SXJbUhRVhyneuXXY8Mvkc5K1mJaKn7tGEwy07hwDnrnPLzuWwwShK+QoaYbRFTrj5D+tNKKMw8hplWmc44xSfs5//9370kG9KfkxXS3xiF+ehznYJdZJkRG4tCJJb38xlBYXn92OU8ggj+njjZDDIBO6Qo6SZhhdoTNO/tNKI8qYJEVZhEzSFfuErpBie5IUukIm6Yp94+hOK40o40nZbCrS/jatCkNLwxwbgidVZv5vfu69EEG/8qaU/eJvS263tM9+gJysjE4NEn24DkFJ6Ap5Mq9BfwtdIQfpnNw2ju4spzlZv0F/i/ILOUjn5DahK+TJ/YP+HkVXpB8ljdAVUuSRJIWukEm6Yt8ouuOkEfkLKfJIkkJXyCRdsW8U3XHSiPyFFHkkSaErZJKu2DeO7rTSiDIOI6dVJj5OpKalYO9jKSjfI2NweoagsZqVijdWpWtff1PSDEOS6XXRofa8kMNwErpCjpJmGF2hM07+00ojyjiMnFaZxjnOKOXn/EM/lA4/2ZYUkrADh6E3vE42q0nXb4bSL/2KJN249cI0P4evIDQvHYF9GvDyrT86qnazyR8wXjwEL8ydqFq06NTCze4szICGHQ0b+JwMqy10hRzmGEJXyFHSjKI7Tv7TSjOL9RimTEJnWpzGOY4o4zBynPynlWaY8gudaZVpnOOIMiZJka+QSbpin9AVUmxPkqPoinxGSSN0hRR5JEmhyzIqlCSlVZAUVekuvZiU7sL2UY+gbhmSlktJ9mpJMkys8XFhbC9JRgZdO4rGH5s58pWMcFEE6LuMZNJ68CtrmrSx+cI0Py+q+shnDgkYhi9ZViypwxoaM8iAn3QIIAACIAACIAACIAACIAACIAACl4gADMFLdLJRVRAAARAAARAAARAAARAAARBgAjAEcR2AAAiAAAiAAAiAAAiAAAiAwCUjAEPwkp1wVBcEQAAEQAAEQAAEQAAEQAAEZtEQ7Hfa2vutH5d0lIVicHpBAARAAASeDwErErPnheyVYxLOdrvvCnYbGHd9BypddxG9I+IHCAxJoHv5sAe7ozZHrw0yZHKonUGAl4hRFFo1BgEE5oIA+UR5OohnhpBP753Bv2bREOx3wtj7HRwv3qUP6Rx+BlmjSCAAAiBwaQi4qvDbI2Sv6vxc7z3be1vP96ObHy/drfB/FIf1GXi+wyL1vBHoXj7szvyozXHR1+m84Rq5PnxfxvGR5+2REyMBCMwcAXIg+HQQzwwhn947g3/NoiHYb0X3fqNHcAavHhQJBEAABJ5BAD2CzwCDzTNNAD2Ckz096BGcLF/kPm0C6BGcBPF+K7r3Gz2Ck0CNPEEABEBgMgTQIzgZrsh1sgTQIzhZvugRnCxf5D5tAugRnDZxHA8EQAAEQAAEQAAEQAAEQAAEQOCcBGZxaOg5q4TkIAACIAACIAACIAACIAACIAACSQRgCCbRwT4QAAEQAAEQAAEQAAEQAAEQmEMCMATn8KSiSiAAAiAAAiAAAiAAAiAAAiCQRACGYBId7AMBEAABEAABEAABEAABEACBOSQAQ3AOTyqqBAIgAAIgAAIgAAIgAAIgAAJJBGAIJtHBPhAAARAAARAAARAAARAAARCYQwKzaAj2nMgT795vOJSfw6sPVQIBEJhbAnAoP7endq4rBofykz29cCg/Wb7IfdoE4FB+EsR7TuQp895vOJSfBGrkCQIgAAKTIQCH8pPhilwnSwAO5SfLFw7lJ8sXuU+bABzKT5s4jgcCIAACIAACIAACIAACIAACIHBOArM4NPScVUJyEAABEAABEAABEAABEAABEACBJAIwBJPoYB8IgAAIgAAIgAAIgAAIgAAIzCEBGIJzeFJRJRAAARAAARAAARAAARAAARBIIgBDMIkO9oEACIAACIAACIAACIAACIDAHBKAITiHJxVVAgEQAAEQAAEQAAEQAAEQAIEkAuzSBQEEQAAEQAAEQOA5EIiDSA59X208PkyFjqsFjq8pkSSHUaAostJRLSNUDDU2MunAKKa9dDHrn7eYMftIiDpyGERK7cFupkPSc12NZSeMVZlKoBt6pNt0bNOI0teWWrqmUiJJUtjR3piBj6vIsuxUm3pYcwyn0dbDMFDilqeHUSwbuh7HqtQxUnagWnpkLeZcw7ZC3dK7xx7zsEgGAiAAAiDwDAKzaAj2nMhTmXu/4VD+GWcQm0EABEBgBgmwQ3m3Wy71ZOn4uc6x5yf2pMIYf3ffFWyjxF2P4Io0iy+3QfVym47R3C6nPvu333u1tV8ruJVGIQ4jLXQCW9bVwCxkqkbadO21xYPlN68/vvH1Nx5LsnwudkqHjDEyOtv7Nfujf/Wtt8KGa7uVZt53PDtyA0u3TEdPW630Wr5s5lLtl//2T78vl3KekTKi85w3NgI9Mnz3P3hYqnzwcLlyf2fVbzopt9wqdoJQ11O6I2takF6i4xZzzbUv3b5fuL5S168utQaxm8S2fofyZH322iCTONZlzBMO5S/jWZ/nOrND+Xp/BcUzQ8j+fTP5exbflf0vuN7vfofygXKqYTGTcFEoEAABELisBGbBobwxg/C5M47Dwfv3i7V726Xqw4Oi87hcau7WliLXtyIvMONOR4nDUJcVOY690HBVNWzvNwve7mGhcufB6sbX3/wkc22laVhapKlq7z15lPOz/w+jSK588jjX2q2ltr/z4fWg0U41Huytx0FHp15JMw5jvUNGaOSHRtB2U16zlVZNzffqrmXmU+3rv/D5u6nFvGst5d1RegY9P1D8g7pZf1TObH3r/VtkgOa8SrPgN9x0HIV6SPWOo47Kx6Uuwzhs+ba6XfXau5VC6ZWNR6tv39xOrRZb2fUF59m1u5g9cCh/MRyflcsTh/KzeHc+q9TYDgLPIvDiO5SfRUPwWbSxHQRAAARAAARebAJkjHktT9t//8Hy3g/u3mxsldfb+9U1USky/qjXTaZOP6nDFl7Q9tPUeUp/SUp793C1cm+nlVpbrKhpO9DIKJNSKvfSnRkiMsYCN1DLHzxcaNzfW3z8rQ++GLpeqhPF3XYAG53c00iddh3qnTNCMkY71c4iZ9zarl6hHsJGerVUK9zwKxb1DkrK2T263SGolD6oO3r54+1C5cNHy4+++f6XIs83oyCy6HgxfTanmnWlFPihxX/6tVaJknUaW/ubQcuxaYxsZ8EL9rJrJZeM5M4oRiiXHwEEQAAEQGAwARiCg7lgKwiAAAiAAAhcOAEaDpn99N99/+XynYebzceHG7EfmHwQRVN9WVXC3PrCQ9XUfWMh24hankmG4lroBbZfb5XImLM6tdjY++6dW63HB/kbv/L23dLN9cYwhdz63ofL7e1K5tM/+NHbTrm+FDpeutOJaRqiElGvn2stFvasfKpuFtJNMsRSfs3JNXcP16mH0o790PQ7jvzgj975idq95cfFV65+x9Jt7txJDjQPsbZbsfff+XT543/z518Jm26me9yY7U25Y+YzB4qtuemV4j7X2au1stQrajYeHlzv0GzBTtxR6lvlq271nZJbb/8od3u9nspnhjJCkwuGvSAAAiAAAkwAhiCuAxAAARAAARCYMAHuHfOpJ7C1X7Vr93dX3XJjMWi5OTKIIjICAzNtNxRTd9MbpT09ZXsp6n3zmy2Lesl0v9HKhi0nH5NhFAUhze2rU49ZR3JrzgPR6/asXjIeDkp9fHL1wX6+uXVY8g7qS2xUUqcjWWNKrGfsupYyW+mVwn5mpVBJrRTrzn4t29yrel69lZfIIKPeO0MKI8M5qC+qpuEGtZah6lqs0iI2g44rysSL0TQe7GcbD/dK7Z3qWhyEJvdAqrrqKYbumaXMoZGzW7nN1R09bXrOfrUdNB2b2fAwUTJCaQEdP02GaKp1UMu396q2QgvYpIYxQid8PpE9CIAACMwDARiC83AWUQcQAAEQAIGZJkArY2pbf/7e+uGdrZXKx49vc+8eF5iHXFoL2YOXfv2L3ym+dvXAyqYCVaXlXEw9isJY8drOR9yj9tHv/GnKb7ppGs6ZrT8+2HAOG6XVrcOP2y+t11Jp85m9c26lZXi1hrn1x++91dqtrEVOkGIjUDUMx8hYjTf+01/8fXMh16Zhn22d5hyqut6JgkD2q23j7r/+81Zju7JAw0lfpwVsDK/eLqpG1dt+56OV7OpiY+WtW+VnDRENqOz1rf30B//8Gz/jHjYWYupZpFGdZHvKcf7Gyt21r75+Z/nNaztWMe+qthHJKg1L9UPFbTn6w2/+eKd+f2d5+y8+/HJMhmMcRTQ89XDp09//wSu3f+PL76desofqBZ3pCwKFAwEQAIEZIABDcAZOAooAAiAAAiAwnwSEhRZQzxwt0pJxq61Mt2cs7qhsFJGbBNcuZmrZjcX6wu0r3eXnRC8bp7WknNfeOmxpttmmIaImL8VKC7oYoR9EsedqseOpMa3mSQumDlw0Jmw7mrNft2muYYpWBCVjjIaD0tw83TZbBvVC5jZXajbNNUyVMp44Lp8JP2WFvHKn3/ZNnsNHm2QaqqmyYebXPdPLum7QiWVTGrxYTVBv6zTU0/Aa7UzQprmIR0Zgh4aAunou3cxeXahmri43T7rD0Np2kLtSrPnVZoqHrUo8h7EjycSMDdFU7PlYLY5PEAIIgAAIXAABGIIXABFZgAAIgAAIgEASAafSMO//4Ts/RStiZmjopMrDI2mYpbf8xuad137rF36YWik8c0XM9EreWXr75of7f3XvJb/RLnZohU3y+We0Hlfz9Y8eNa0vvLz/rEVjdr9/d3X3u3dvBY1WnodlsvGpp6zm7b/1lT/JXinVcjdXG8JHYH/5NfLpt/HV1x7Utw8Od75/9ydi6cikjfzIqN3bWQ79SF3/4st7kqH3J+v+DsJIefDN9zdaO+U89SyWaFVQWvCGez/t2urXXv3Byhubj65+7fUdMvRO+QfULCO69nOff0yriCoP/uzHrU6LV1CNjIC4NR6WV9ndxqkDYgMIgAAIgMBYBGAIjoUNiUBgMAE/aCvR/R/mtKCpSnGkhLodpRdfarfbB7rqHuqdymM7CF2VJvoosaJ1zNXP1UKrEOhrr7aiyFM69T0jLj+0abk8u+O1NMlr6pKV9XXNijovfb1sWLkwNlORChcqg08AtoLAjBFQaG6gQz1j7XKDXUPYNCTU5B4uctTumjm7ZhSzLbOY8TT99Hw78YKmOYSxlrY8WeutEMo+quQwDDVaCZTcv0enfFbxPD1aYVN2yfUDOXDPk2uIbnaKobncu2gtZlvp5WKbh6H29wT28NFQTS1rB0Yz7ct9K4Ryz15I8xY7fqidNuOOUsthR3b2KlnvoJFlo5e3kgEaqYbm5dcXK6mlXFvVtFNGIOt1y2IoMfGIVE0lk7LbGynx4jFxGOjUI3mqrpwOAQQuA4EwCOWPPggzYaAqvh8rtt2J7IwelUqynyu4ge9lFGpjyHc+iLOBK6mtpq4FQaz4rqHKaqdjmXFs2W6YotWGV9c0Z22j4yqqT8+A1GXAhzoOICDeMwN2PbdN/Q/53m84lH9u5wMHHoGAXH1kBX/8j37SbR1mo7BlaqmFRvzWb7zvb7+/FO/dW4p2fvxy7LezUujRiCrdC179xT+TixsV7Vf/m/esxr7RuPP7q+GP/+glb/uDGx3ncDHyaiXVLh7IRq6e/9Xwd4OV1+qpK282QkUd2IgaoahQBYGJEoBD+SO85Bhe23/3/iKthFkIG06hu/AK7UotF/aW37710dIb13bsQipIOhnUcxjbi5mWZur9enLU9my/2uoOuzyZno3AoOFp7a2DhepnezdosRfyS6jEfNz0WnF/8c3NMhll7ZPpxN9skNHiMS4vNCNTC1JsJ4tMpdU/U+zWIZLoc5YknXJfQXMM1cP3H9xwqrTYTBTriqrQwjKGY5eylc/9Bz93p5dXwg/NMiMjZbVoFVFetdSi4bB6RMNb5SCa6NBQOJRPOCkXsIsbnYqCTt1xUe4fSMY//6edV1uN2Gw0IntpRW2sXQnrb/+ksv+1r+cODst1Y2/XNP/xPwq/UK1I6YMdv+g4HbPZDNKqKkfZbKeVL8qNhVLc+MrPxp/+5n8YfZotKKGhSGhTjHVS4FB+LGxnJHrywumb8wCH8mdQw+7nSiCKaSoL9ehplV0zePzurcirF+KIvl4b2804DtWwvr0gt8iwc+qlTuSbnU6oybIW+ve+83nVulPzClfr7dp2JvjwG29Ejd2V2KkvxIFjS5FvR53qguw56fZf/ou31MJaRfsb/+33laXrNFMIAQRmlwAcyh+dm8D1lYMPt5bYOTqt+skfN7vvOCNttoo3Vsr2cqF11llkn4JkmLEzwSeNNfIyGDm+5rVdjVcGPTlA06u29b137y251WaGVv7UjufoRVYhXSV3DWXqnTtlwPWXg3sUI7YCj/r9uMzdctOwVDn0fIPmK2qk8lTgNN3ez70q9UK2cjQcNcd1VnTVt4rZA6OUrXYT0DqmTyUc8EdEbhTJBO36NuTdnSiiHsHQpIVjeh+IByQ79yauE/WlErJuVmeW89wHvGQZ8ADjOPbpfxiDo5z6OD76ZtOqadp77+jXnHZkOq5qeJ68m8pE/icfd3Ke6ynf+IPU5v5uJ/vxR+pG4Em604ptWmtJ83xJ5+WDaVqv6rqSWasoOcuW/Hwpdr/+88ru+jWefYwwOgE4lB+d2dkp+h/yvd/oETwbHDSeHwGF/T97bTVu7lp+7cFLsdtcpHYMrQShO3HgZjpenR63TXaS3AsdyZOC8r18qFlN9dNvfxbXtkvuwx98TYoCm7+69xSjINWRWzHt+wmtXDqwWtvvGTAEe3jwYzYJoEfw6LyEnqc1H+wue+VGgUwppesrngwcI287C29cP7Byyb2BR7kokqKS03Uao9kX5CgMdVoF1GB7rW9792fQaBvVjx8vkTP3LM0NPBqeSRaltZSvZTeXDk3DOGHGPZ0D9wgqZGySo0Ee1kkPODJD6Ti0SY382CD3Didtz+5QVK/SMp1yI0XHLwQtL0u5yuRqIkgt58qZ5UKNndY/faTBf/GKNrLKLi6OqkYL1WjUM0gL5XSePBsHJz3XVvQIngvfmYnRI3gmooEKPHTTD1yl2lCNTz8JrlEvnxWFHc20jHDtSqe2RR8v9vei9Df/sPP5/b1gMaR9dK+eei74XodXK6b7kqxDQwmyedV9/XWlBkNwIPYhNqJHcAhII6v0vyR6v9EjODJHJJgmAbetuB//yULn8bsL9OWaVrnrXrr0nxwrNARUufL2XxhXPvfQ/+yHt2K3mo/Kn70Sh26WDD6lE7pp593f/RVZzzSt9Te/K+fW943CesV99MObQfnT25324UonoqFR7fJqFIe63K5rehjINL6mE2Cu4DTPMo41AoHL3iPIvWNe09WdvZpV/2zvit9w8jTPjR4Hqmfms4eppWIlXcrSN/tnzbR7AjvwA8Xdb6WpF67f+Oqomh6oNvl6H2BctfZq9t4P792muYlFzomGhYY0x9ArbK7urb51c5fSiQVNnxyo7xeXv31QN539Q5vn5ZERyHvpUFKkmIpPTuj7h6l2U8ZepDz+iztXGo8OSrSYjZh60l0ptPj6tQeZjYVa3yESf9I8RCVsejynspsPGaOhbKg0T1JO7MlMzHSInegRHALSOVTQIzgePNcLlY8/iDP37waZwJc0MgL5gwgNMOqojVpkffievr67Ey867cDWaAbvtevqQ9OS/eV1qULfcTqURqU5hXq5LOcP9uJCrdIpZTJy6+pmVEnnOnQv9z9axivj5UyFHsHLed5RaxA4SSAOZLm5T8Za1eKeQLG7O7RJt1ytdG3P/Il/727QqlnkXMuLalvXaRE+/lpOj3JaBMFpLCkSzfsrbuxZG2891K9/aS92anbU3FsOndqCRMrk3IumhXsWL0Ij8ocEARCYXQLsQD6kVS5pnmDXdQOXlHr1Ij1ltg3L8DVLj9jg4sgrbfIiKxr58hM16i6cwmniSKaVN2mhlM7T976u0AIsT4ZPcjrOi0PguJpXc3I0X8/sblCVUKGeOSNnuanFIi0jQd4gSJdWAaWFq6gZSAvSsJ44Js8xZFcNAQ0/pVz5mXb0XONhqpSXREvUUG9d72Mtp+Vhm9TzmfbK9Ry7qeBtHBRVDVOL+VZqIdddGZWPSwNdZS8KyaW9JPU7phfllykvyk+nbsZuPvwslRVaLOfEMY+OgP9BYM4J0HDaelXS6zXZiGl8J9W2ez+GYaw6jmTUqnH2sBwVU2m5bZtysLgSV9Npxb31SrSva1LstCW92ZQNTevQICVFc9txyk7LXr6ouCYtzjTn9FC9BALii12CCnaBAAicRcD3m6q//e5SePBwkRpAx0OXaJW8VHF38df+u38VL73UsNZfbWkLt78T732Uqfyf/8Wt2GsXu0NAZWqgZZce6MWNz/K//A++HS3cbNtWKvYbe3fTqhk23/s3S1Ho0fgDbnQpPFaLWlEkEUAABGaWABtYj/7k3WvN7cM8LXhisesGLqxiGW7+5fX76c3lCv/dXdmTDMbH33j3qltvWZt/7fP31ULa73cST8YYLTrcyNDQyCOjjhOSQWTl0i2aY0iDxZ6swBm6odrcOUg1tw7z7mFt5XheokSG2K5ZyNRSi4W2MDa9hmPc+7d/eUNNmf7K52/t2Qs5z8ra3Z5Cbho2dmup1k49Q8Myj4xAOiwZdZGVzzTsXKZFw1Wfeg7RUFWlfHfranOrvBGFsU5N1a7jesqzvvrW9X1zKd+dh8QGclBzjK0f3FmhBW+M9Z9+41Hx6tJTcyVDj+ZWk//BiFxHcHVVQ/f0TKoum3rPUObtCCBwGQi4LUn98ftS6cE9uUAzhXv3495utFQ5lIvpTNy6+bJ8/zf+jv7D1z4fljevSW2TPhKl0grN6qXP05Em03IFsusH6t6+YdQPFTOTCYJCMfYLCwpP2kS4pARgCF7SE49qXywBPQzlttsyZb9t8nwd9n9MLSYauWm68vobNTOzSE24bGSVLHoOezTpprsM/FEjir50K0aqqVjZVlS65pj5lYBbYrKd92M77dGvo6913YUT8OXuYs8ccgOByRBg4ylsOSb1zNEzodtw6zbeFHKjYGZtx0gb3aGVbqVl1B+X0w0yGP1W26rc28kbpYxr3FqvC4ON3U2wqwjqcus1AKnUHclQI82y6HHR63zr9sqRr0KNFpJhVwu9+XTkuN7T06ajUZqu8VmmYZ+HTbO9W8srhh5U0499WgSmIV9ZoP4FnZYYpcZjQC5waAVQPn6PEhmgZHiGmv6k55L3cU+eTMM5yUUGzR/kXkgeRUq6uuaTywpfoaGoNCw29pptvbFVTrlsZG7RAjp+oDs7lUPd1CKLDFGaG9jh3tEoimiKIvUGHo+w4BVPFZ0+mpG7i15Z8AMELgkBGgwgtxodve10x3D27kfuXI/Ir6hJw7WXF+PazVt+7dXXpPramuQpCk8HPBkMqbToe62G6sYxNS+o497UDNxTJzFdor9hCF6ik42qTo6A7ztqePhosdPYpUViYvLXo7lyZvmRXFh/rK/cbnuq/qRFxsXgoR3cyOFABqN25a07yvJLu4ZuPxmiEZOvwYgaYdQKo9CRNJ0GdxhOqKWe6PAeBBAAgZkjwL79nP1ajoZK5p+MEjjq2Vr+qduPCjdW61zou7/7nduP/+zHb7mVZomGcRrb377zBTNrNd76+7/xe8Vba3U7n/Zjl4Zo1lppXqRFVJTXULEK2XZqvdRiH4RiOxtaB3e3S62Dek5sY5lZL+3nr6/smqWM51Yaxge/88033INafvevPn2DjFb1/v8nRwuvXb2z/jOf+7BwY7lavHGl7h42bR7qyYvEiLzIEIuMhWxTL2XaNFSz14AM2r7aqjRNGgbL/hJpiDz1WWpKmF0tbKevLu6T64vIpzmHj7730drjb77/yuFHW69Qr6HK/gWpB3Ehe3Vp/9Xf+rl3U/ms7+xUbZ/8H1J3KRuy3WPT8FGPekDrimGgR1CcDMhLQ8BzJOXhA6mw97hT6L8fUynJyeXlxte+rvz4P/svpfdW1xTXthW6R57dyZdOh5GdonZEfHT7KmqbfsCP4KW5mE5UFIbgCSD4EwTGItAJacJLk8ZzOqkOTaGRZC3QrExdtvLNULd6RmDcOtQ6rUODPp+zgddt4NDafLGWXa3qubWGpOi9hlWHjEtyKm8Ig1HWDE/VDFdXNSwSM9ZJQiIQmB4B7tXnYY+RFxpH66x0+9U6Ci12Qi4cPDaM2O1DUG2n3GqrSD2HaR4+ejT8kxyyVxp2ppYnp/OpgBdriamnrRP3fOhRf6Mca6YWWhmb3EU/6ROk7jRaZMU1I3Lx0F9bwzLJkLJdWdfiDg1bdQ5qObdc52GrKV6Rk60rr9rK0uI22dRCts09mrHnamSE8ioSPUOQh6brKcvTUnr3uOIYtJCN6jUdnfwGcg9i9yMXGavk8dpwzZTpcWOjSXMOnf16xqu3s37T7RqqvAgMubrIGVbD43IF9JGMhqzq7J7i+Bl59Jyk+YG6afra8VxGcVxIELgMBGi6rNyo+1aj2bF6zxOqeDqvNjZvdHZuvhQf3nhJavFE4yPn8M9u3vN+RQpp/V+hI+RlIIk6niSAs3+SCP4GgTEIaD65jmiVFyKnusCGm6JpnpJb29EXrpT7s2vu3sn4u+/nJVr9k7Z3GzjkZSs0Nr/wWFq5XY/7jEa5cWDHtX36+kdDwniIlUE+uKx8VVKSl33vPx5+gwAIPB8CtHqw7LSdVEDz3MTHHFVTAxpW6dvFNA0S0GJ2+O4323bQbGfpK393GCcPh4yDSG8/LOerhh7a66U2zb1TPcqHnapzbWTqlaNhkoGRNb0U9fD115AMT9U7rKe9lvPUuDA9ZzvZlVKTFqmJvFrbICOwRAYY9VY+GVfqt9x088Heor2YbdCYsXJAvXK02ulTDut5aGtqIUMLvxQc8lDf+3Dl1ZtGe69K8wl7xioPDu2YNI/RyKadWFU7YcPTmw/2F/yWb4sy8/G9eqtA9YnIJYXKC+Y4B9UULbIjGrxdVdXUyRdhqklDXNEjKOBBXhoCHq3IW96TcuVyhxZiOu4lV6Xo9c8Zn/39/zr47tpy6PLqoJcGCCp6YQRgCF4YSmR0GQmwI3nq3ZM77EPQa+aoF49cQtBgflkPtNLGgV64euRA+RhOXP4kIx8+JCfLx0urK6qvaPS1fOFmM168SYM/njSswnbFitvlfHeRCWpQyQb1MJr5eqgbR6tOXEbgqDMIvCgEaDhlQO4PQscjg4Z6/+keprlyHq3c6ZODvI5Kc91kS48zq6VK9srCw9Y+LewShKaRSx/qNDQ0d22hmruy2GS9jhvQ6qNullwqdHv5KA/qUTRdnqcnVvkUWDrkaoKMNztu+08Zghr1ytFwTlfXqEfQNsLctZVtJ11rU8/jIi0fqlL5Yh56mbuxupdZKbVohVLZrbdtWsAmTfOee5MQeeVOq5R3UsWM198TSa4edK/Stqkn8Yku1VlNm56SMbvj1Mx8ys/dWttrH9SKzr4a0nFpEVUlSi3n97JXlvYMKhcvONPeq6TdRpv8qT4Zkiqz4VvItNmAFnWFBIHLQsANdaVS62RajZgd18m6LgX5glxbWYnqN29IbcPM0LMAt8ZluR4usp69B/ZFZnrOvJ4MQTnuMeH84FD+nFSRfCIEVPLjF3VoAYewpXVCJyNF7ECZegRVPTSL16rq4iZ9WX8S5MZOOm7s5GiOoNZtGCpaoNCQT2nphkP6HucnguY1rQ4ZlzTATGenyqqVaampfEtXMbFbMIKcXQLsUP4oCNkrKz/j+5/zvR3n+NHNj52Bx12P4Ir0vL9y8qJR5FfPol4uNsjYP3pH0cmnqGkE3SLqaofdR+RvLlXyt9cfUE+dywuipJbI8fp6aa/wyrVK7sZKUyNl7hHk3jrqEeyuGqqahq9atBCVrp9q+fG8OxqSSsc9dhtxDNWwrcAk441W3YzJOItKb17bKty+skW+BWkBFjVSSFoL2fryWze38xtLTZXK77ddO2y4mf5eQzZM04s0ZLWY87lsIoSupwfcixdLvRPOzy0yQAM9Y1GdZYkMuWDp89d3rFK2Tr2atJiWGvHxc5vLu1weLpdEPaneYTsdkxFNl0nvOtFogRo9bzuycbrOogwXIbvnhjpJj6vWO/5F5I08pO59qShPjVoGljMI0FQ+OfZV1WnI6XZLojm7Eg06ksPFRbm6vCy1cgUjsGxaNgbhORBgu/ypIJ4ZQj61cxb/eN7vykFM+ru2e7/hUH4QKmx73gQicuyuffrdvL/1XqkT0nDPIx9/PPbe7Wy+vWssvfKUt9Fg/7NiuPdoiTz50BAvOZRSxZ1OqnQQq6e/cvutg3TYKi9TK5AnDsad7OqBVrx2EBp2r4n9vOuP44PAswhcVofy3BzjVTn9gOb/OW6KegR5Dh51AsqRZuttI2W4/BFIcFt866W99JWl+vqXXv6E58VZS4W2Tj1jmaWCEzQcbfvjx4XKvb0SG5S06Ey3cUGrjlatYrZKeqecugeupzq1ZoZWDj0afsmrEtO8PnYRQYagTwu40ChNs7Pxk7d3/Nf8g9y1xQovGqFoSie7vtDIbq6SGwclbtUbRvPRwVJjt7zaXX2U5yTaRlPNmA0yyMiVgxFQPXn4Q7cqPNzUYRcXtNqnqBvJ2CQ3E0Y+49AiMzF90Y2LN9Yar/3mz3x/86df/4hWB5XJRJZy11eq6ULGZyf3frVilz9+tOEdtmhYfNcXIS87I+kZu1V6deOA6v7sVTD6Djzuz+75k9i3YzeH3nkaNz+ke5oAz52NySeeJMEYfJrM4L/iuC1tfWZan30qpVyvYwRBh9vtHdNS3Jdflx5tvhTVjszrwemxddIEnmri8cHEM0PISRfg3PnPoiF47kohAxCYHoFIctsHRuTUTRrGxF/CeQhYRCuBRlZm1aUFYDx+8Yng++RiImjS8Clq4HBjUKcv3Kbt0ECP3kODh5tS24i+AHrk+pX8jx21tWhYWcbt2OSHSzXx5U8AhQSBmSNATtppcRc5oLl+IS3+cuw/kM0lVdNDMoaemuOWWcx15/nlyV0EV0Uj33xiuKfD8+4O67bf7WnrrTklUU8iuYKwHOoZfCovTs8Ly0RBaJBB1n2/kw1FTxAl1um45nFvGllqHW2l6Fpk7aQ2Frv++/qP69MKoOTDTwvI/2HoBt0hmrSoS8y+/FSbFq0iv4Uazfnj44lAPZAqRZ2PJrbxM44XtDEp8jZOo2XUwPzc9apEkY3lo+1PDOOIXFZ4dS8TOJ7dnQtFedCxO4qpB9Rj6crm6Y9mvePhBwjMGYE4MuRqI9CaDZncwZAj4eM5vZomRYvLcSuXgw/AOTvlU68ODMGpI8cB54mAEpCLh52PCp3yg5LcIb9X7PNPtxuSmWl0sguBZ+ef6r1TafGXoHVAc3JCgybHkMP5UlnLLJd1+hovuChek/oTm5rs1NO0aujxMFLVVxeulY2Vl8uGDkNQsIIEgVkk4JZrZmu/yh98aAXNY8OIDBoa+ki9fbRy5wkjiuvAhtjJunjk56/y7oP15k55sX9ffnNpu/jylR2bDKP+7fybFppRqTcwTUM1uz2CNPTS10yD5iYOnkA06Li1B7uZ8vv3l2KHehWPDVkaxhnmri49ouGq2yrNMzx5XHIfYdDqp+lu7+HxTpm8AOqFlGuVcp40oH4nj+2QT8XWQc3yyrVFWs20a4CSwdvQs6l6erlQzS4UXBrCeurYJ8uCv0FgXgiE1FS4f9fPPrgf5slfYO8ji0aflN94U9u/fiPofsiZl/qiHtMnAENw+sxxxLkiEEsdp2JRjyA55aGHNDX2aM6fQwvAuKFmx6b2pKePqx35TVvyHVp8gYc8ka6RbmtWoU2Ly/QagTQ3UA2be4YUOuQ6IjoaP0PDstRMqa0V1hyaLIiG0FxdQ6jMPBHgYaGRG6pkyJAR2B3KeTR2knvhdFpESj/qHeuvs+gBFNuOhyVKgeNrZFTm/Xr7aCIKuWOgD0gds5RrZjeW6jT/rn/AQTe5THPs4iiknsijVUiPHLGrPq1Oc+q5cfK44vherWm29uo56tGkHr7j+Zy0Wqi9lKvaS8UGGYW955VIQ7rUA0q9kFR/2na0n8uapjmRA8rJ6fqP7wcBu8wwnVrDInYW92qyDq0W6pqFVM3M87MSK4YyE4TLRKAp1Sq6Wa3J1EPeHXZN48xpaCj56FxdC518UTk1PPwy0UFdz08AhuD5GSKHS0zAjVzFp97ATv3xEi0OodITOlJSxQMlvVwZOISzXS5G7coyLbFu0IIyjlG4ciAt3Tzo9x/Y3LublrfeKdEqpN3GHzX8QvJH4durr1eV61+rxob5ZIzYJWaPqoPALBPoDmvsKyAvFqNnzbaWsVxlQO9Yn2rvJzmZt+qfHVxlH4O8UTUMR0+ZTuHGSnnxc9cPNavr/q+n3/vBJt+xAUerSgSKbTq0UM0pQ7Cnf+JH/cFevvLB1kbo+d3FaegDV6zqur/29q3Pii9vVBTztFHJWfCQiF5W1Fjl4aRWNuNa+fSZ8/qilqc9/t6H6852Ld/tSeVh9hTsUuZw+e2XPi7cWjns5Y0fIHBJCAShJj960MltP+7kaZFdmpLbofmBkmtlOs7GdaVVXAjPvLcuCSpUc0wCMATHBIdkIMAElJA+0HtNO/La7CuMPtTRfBbNbtNncJr392S4px+0FY1cTHQiWskvDrpO4qmV1JEzhZaSW2oHmtoRU+c7bXI4X9vOSGHXkTP5DNN8SdPpG3kqzNES0dQclPAJENcfCMwmAW6pkb/AWDHUU/P3yKBi8+ZUb9rJmsS0ErFLwySDWtMiY8wiJ/Oid8wj9xI1ci/h06Izp/PnjOj4tCInNxl7hh/5hjjzmJw0pq5IXteG/AfaTr2dE/MbuVeOFoppm6Us9875XEfW7w/k+YYWyaL50f31Iy0ezKYN0O9Py7/ZbYS3W885h/UcJesagVwH6vVsZ64Uaya5vjiZBn+DwLwT4DmCjaZjOg2J/WpSE4N6A03ZS5mSb5oKLQSVmncEqN+ECcAQnDBgZD/nBDqBHLb2CpFbLdEKd6pMPXdKerGsFFarRt+wUK26Y0iVLVv2XZuMwePV/Mgp9Mrtsrn5pYP+oaGdysO0s//JUuy3qReAGnNGqqZYuapuZEJahOZUA2zOCaN6IPDCEbCKOS/yaRiXfGJenh+pNISS3ME/8Y83qHLkdkI5uPOgWN+iEQSul6IFVLqGIPWsVRZf3/gktZB3BqXjbaquxrqtOeTQXqMVS9mvqUzzBmmt0KOFWZ6VjrcHNLyTfBWqzb1avr1fWWcH9tSTGdOQ0F27mKmmVvJtGqI5sAeCfCIGRopcWggDlButPEyUFn+JwkhRjcG9iKI8vDhN5d72etfJPfki5HwUg4aFrhSrV376zcfqM+Y4ivSQIDCPBILQlfd3pcz+AfcIdkdTx6WSVC0txA1yR0rtATTj5/G8T7NOuIKmSRvHmisCvIQXNepkJfDMKPLYVxh9ipc6qplxybmr119Z32toRm2Lx/gf+diixhXN3QklK+/L6ULQ70g+CFq64jRTUYfcUXBQTU/SLeph1DpBb6p4f+74DQIgMEsEFI16BcnwYSOKh1UezZsjB/NeoFPvXneS4KCX71GPHPvva2v1T7dL7f0qDZM8WiCCh5bSUFDXXi7WdesZvYEEgebd0TxlNaRewW6PIRmEKs0Z1ENaTZTz59A/N6+74fg/Z6dsV7cqWbfWTNMiMbzQDbt3iKkXskG9gQ3ygXjKgb1Ir6pGLOtqeDwSotujxz0YEc1zJB+I1KE42IDkMjV2a3b70WEmaLmpiNxtUD8ijYhXQz1tNs206Zo0FJXnOopjQYLAZSFAfe+y4yiG70YG30/8gSSVkjwzJQWaxN+U8W34slwLk6rnoHfRpI41bL7dF8ixcu83HMoPiw96UyNAA/bJvYMiOfWi5DUXqdGkyrIWqYvXDqSVlyu6ZnXESg7a3sdZ5+H3V2i1UJpzQ6M7aKinbKRaxuJmS115rd1fZr1xkGlVtlZj38keNf5yFTmzvCebWCSmnxN+zzYBdih/NJav519cFJif6xwvsgXTfVewE/Dn7VCejSzFUmJaJCUi1wlB7Kk+9eiZ1IhTyNdewa02XXIJ03u3CSgsOa3TbGvV7Ur60R+/9wVahbNIhiCNrKRnBi3Wkl4rHt74lS/cswupZ48Op7mAvDJp6B85n6cFXCxyP6HGnm+w2xr1aKGXgewfffvDq4//4s4rzm6FnlVxt31AZYqX3rxxP7NRrFmZlHik9Re7+1tL6+TwPe3wsNTeTjpeY6uSp5U/QytvV6mCT/YdK5FhrO5954MrlXu7y+5ubT3w/O5YN80ynMJLa/eLm8uHg1Yp7R3jgn/wNURnkIpK19LRdXrBR7jc2fFFBYfyw18DfpiXDw9buUolKtA3E/LcIkera3J1dS1uqIZH97GYVDJ8ntC8SAK8lEPX84/IVDzbhRTbZ1bOoiHY/4Lq/YZD+Zm9hi5twdzDzyxp9266Q3P56Ks2tXa7l2us5dbqevFq01P13qIu5DLCDCqP6UEecKuY5hFaTTIE67Jy2rgL3YYpefVCHPkmfQCMZTPTlNMLNUmzB88JurRnABWfZQKX1aG8OCfUp9UxC+lDsv/i6LC+1Ilixak2imQcerV729l4c7mZLma7wyxFT11IK41+8v9876a3W8l5dSdLDubZj6ikGbqTvlLayqwtlg3bjJJ6x2juYEBDOMu0eqnUfHxICw93Vy7VDz/cXmI/hgufv3HAvgtFOVk2D6rm/jufLlXuPFxnIzBodhenifW03dBts53bXDzMXV1sdBKGZ9qL+XZubeFwX1PZSO0+DCManrr3/qcbQdvVszdW63Ka5zQ9GdZwePdx1t2v2Tvf++R6c6eyTPMEeRREh4a3eho5rl98+eqj7NVFcpg9vcCdpjRTEg7lJ4ScvyTAofxwcGvVtlbZdw3f0fTAl3S6pXkKcJRflJulBbnNg6+HywlakyMAh/KTY4ucQWDGCcQHn6Ti8t1sp7v4S9fmo/VflMhY2KxHa681qcHTe0hHzX07ru2Wul/Z+eGtZ2jqd6EWGtaR12eqKzuS5xC2a7T4TKPYCT2Ll4lW7GxDL6xXQ93oGZZdRfwHAiAwswRk8rWXWi2VJa0eetVGiYaR0+IvrZKjq8Hhx9sLXHB6RjS5Zce/aS6gSj2Gxt537twmmQ+aTp4Xa+HhpbRgSmvlzZt38y+tHhjp0y4jOL0Iei7lZ6+v7pP7CKX84UOyIzsKzfWT6/d21qhXUDfyGVelVUu5fNwzycetfrqT2/7ex9cb93Y3nIP6CuXVfZbZxXTZpLmBpVeuHmY3Fp8auSCOJ2RmtdAOWyuHOjmdd+k5yCt/khGqVe9tX4toSOz6wWsPIj9FPg11GhhBI2apt3Dvx/cXnd169vDu1k2n0h1V0Z0bqKWsplXMHK5/9dWHmfXk44rjQ4LAvBHY35eM3R3Z8lzJCEOpO1WERgZ0Vtel+sqq1OJRR91+63mrOOozVQKz2CM4VQA4GAiMS8Df/XEh3v14gebf0NgMasxpRpMWdiFH8suunFl8auhW1DhIh62dJZl0uZdPtbNVJbtSjrW+HkEaakpLg6lK15F8oyDFZCOS6wg1vVpVVl85MAxeMRQBBEDgRSAgm1q8+sXbnzQelwuN+7s3aIhmdwyXT8ND7/7rb/+sVcpUaBGWGjl8J/cwStx4sLcatfxUu9ossQHIjtlVXfOsYvYgvVrcu/GrP/mRUTh75Ux7oeCtf/W1R/RRqrP93Q9dXiiG8tJpIZZbtUf7G9X7O2tGxqYVQHN1HipKhtoGGWomuW/I+OzEnYJiaJ6RshpXfvr1d5deu7abZofwZwQ7lw46V5cbqfXSTkhdF85edZ0MQdU9aCwHlPd3/6d/mdXSlpOlXkOe++iXG0W36aXjINRp6GqOhtZ3jUBaodTZ/Pk3/zK9XqLFaYrOs1xVnFEc7AaBF57A3Y+l7MNPoxy52Oy11VVVil+6pdQ2bwRNTfPJEOzteuHriwo8HwK4gp4Pdxx1DghEjUNbalbT5DSaVgfk4Z66x47kfSsXpnXyL98fAlfveK0MryxKmzsKLf6imJm2TrVgCgAAQABJREFUqZo9PSUMZM851Duhw5/M2cUEtcjINWEq6+i59Va/r8H+rPEbBEBg9gioqtLJXVvqTh4h338t8stAt3hg0fBHwynXVmjYp+21nQzNfwtoBYi49bh8hYaG8vw4nlvCC74EPCyTjMUyzQ0sF2+tPTUR5Vk1Zt+C6SsLbXs53ySDrx7Q4isdx1dJZiTXS3MPoWY2XLNOqxKT0/nmo/I17rnj7bwQBbm+CFTbbJG7hsP8S2sHi2/dLHOeTwZ0Dj6yatDcxGwqoPJWqR6GV2ksxKFkkGN4M6Yhog2Kmmk4scv1byz41eZCyENBeQEM6vVUVCXUqL4GDQktvbqxm1kptgxaFGeQ8/rBJcBWEJgvArVDyTw8UO047nTbDVw7he7RxWXJLSxIvqLCEJyvM/58agND8Plwx1HngEB8+KgYVR4u0bw/g3ruItUu7Uvp0oFKwz1PVi9qHmTi1gEvFmN0Gz3pxUN95cZBaNjHy4hKkt/aM+KP/mSp45IjeWqUUXuQFplXA624Ue289HPl2Ez1dE/mj79BAARmiwD72ivcvlKnuXNu+3Hl2639au7Rt378ZRqmabDhFTTa+bDtZqnU3aGhbCzR764RSD2BfuHm6t3sxtLey3/ry+/RMMkze+T6a6+Ts4jFz10rv/rbv/AHj//8/duHH269TPP0MkfHdWjYqZRzK+1FTkM9lUerE9NvI5uq2Iu5w4XPbX6y+Ytv3c1tLDU1W3/mAjH9x+TfGvk2vPHvf+XHzl7t/p1/9g3Da7hZZ7+6yscN236GVhBNBQ2nSD2UCi+u1a05fUTTM3bDzFq1m3/zy99Orxcay2/eOuAeVfJL2GVz8jj4GwQuA4FHn0m5B59JxSA46vYzDMm3yZn85o1Oa+3K8VpclwEE6jhRAjAEJ4oXmc8zAUXWo1A1Qo2Gg0b0RVs2czXFzjXYzcPJeiuGSY9yo80+l8lojCU739KtopMi3aetRuog1ExPMVJV+lAeKbrdkqycZ5jZqNd1eDJz/A0CIDBzBHhRFNNQ4k7KClNrhTr1t3XMrF2P/NDkyMMyyczhjrbu84J61HiRVVooRffJ9YSfKuZqmcV8PXN1sWWk7aGNMT4uBxraGWauLNTthVzdzJWpN7EjsT9CmXomeW4g/X1kdNJQTP44RUNUIyOfqlmL2WpmtVgrXFtpKtwT2Le4SzfjhP/Y+E0tFmiKoNahoac1XtQmbLkZHv7JPaLkR4NnSCvc+0duKXj4fNfxvU5GoFmk424uVzNrJaqvycNlE46EXSAw/wQ0umtMMw7TabUdUd+4SU7kM3m1lbL9iPadamfMPxHUcBIEYAhOgiryvBQE7C/+5odWa/9+WN16l501K6VrTdkuBNrCzVPOntNf/o/fNa68scOrA2qyFhs3vrovFTcdP10KecwHByO1EMSbXynruv2n4eGnP4o1PaKVRUPjtV/bjo0nQ0iPtPE/CIDAi0CAjZprf/3thx0vVNZ/6tZW+7Bp1+5uL7b2azmv2sySWRTRmvCBmc+01Izlbf7s5+7ruYxvZsyQ3SbwsMxx6snHXf785mH++tIPnFr7vf137i171ZZNc/fy5Gie5gS6Fi9Uk9lYKBuFbGvpi7e3UvmMn6J0saXTOM5kB/DPKlMqYwUcv/IP/t4f+21X2//Rg0WvUkvVHx6UIh4yWmtlqefQVdIWzX9MNw3L8tfo2GR8tk02eNEL+Cy02H7JCPzCL2uP6vXO7s/8vPyZ52lqKhWFZoocSpQM+ojCCw53Pa1cMiqo7kUTgCF40USR36UhEOVWPfLwHJMFF8adUNZyV1zVSNGyDE/cRggYUW7dMxYbNZ8aXuRlutPJr3lKKhd2+lYWDTS1o9n5UC5ttDXd6PiKTragFdEcQfo6LsxFkSMkCIDAi0BA9AyGNGfQWi46sqFHtFKnRj2AoZOxPUWVQ0XTIquQcbS04adWaGFRMqQ0MojO0yvGaalPrRORDz9b1zu59WLDzxi+ZmgROW03grZn0HyjTmq1UDOKGSe3UqDjW7Q4sT724IP+8lpZO+Thndm1fEtNqbx+jBy7vublbFe1qRwpyzeLdluzzMBezLp2IfPUAlsvwrlFGUFgkgQKBSkwTIXaAXEcBby0gBRZlkJ9gzw3EEbgJNlfprxn0RDk4Soi9H7DobxAAjkrBKyNN085kOGyDTLZrI23mhLFkzdcv67BC8wsXvM4UgOuelJ3VuqNcoDAMAQuq0P5Z7HRyJF7bqXoShSXXrk61MIvz8prlO0mGXYc0196dX+UdBehy8ddfvN65TivnYvIc9J58IhUOJSfHGV+r8Gh/HB8r143To0uGi4ltKZH4MV3KD+Lg/D7xz33fvc7lJ/eCcaRQAAEQAAExiEwCw7lxyk30lxuAnAoP9nz/8Sh/GSPg9xBYDoETvUHCLtFyOkU4xxHmUVDsNcLSPXq/UaP4DnOMpKCAAiAwJQJcI/gURCyVwB+rvee7b2t5/vRzY97c+Jul44C71rn43lpU/f3CBKEi75OLy1XUXH0CAoSkPNBgHsEnwrimSHkUztn8Y9ZNAT7rejeb/QIzuLlgzKBAAiAwGAC6BEczAVbZ5sAegQne37QIzhZvsh92gTQIzht4jgeCIAACIAACIAACIAACIAACIDAOQnMYo/gOauE5CAAAiAAAiAAAiAAAiAAAiAAAkkEYAgm0cE+EAABEAABEAABEAABEAABEJhDAjAE5/CkokogAAIgAAIgAAIgAAIgAAIgkEQAhmASHewDARAAARAAARAAARAAARAAgTkkAENwDk8qqgQCIAACIAACIAACIAACIAACSQRgCCbRwT4QAAEQAAEQAAEQAAEQAAEQmEMCs2gI9jth7P2GQ/k5vPpQJRAAgbklAIfyc3tq57picCg/2dMLh/KT5Yvcp00ADuUnQbznRJ4y7/2GQ/lJoEaeIAACIDAZAnAoPxmuyHWyBOBQfrJ84VB+snyR+7QJwKH8tInjeCAAAiAAAiAAAiAAAiAAAiAAAuckMItDQ89ZJSQHARAAARAAARAAARAAARAAARBIIgBDMIkO9oEACIAACIAACIAACIAACIDAHBKAITiHJxVVAgEQAAEQAAEQAAEQAAEQAIEkAjAEk+hgHwiAAAiAAAiAAAiAAAiAAAjMIQEYgnN4UlElEAABEAABEAABEAABEAABEEgiAEMwiQ72gQAIgAAIgAAIgAAIgAAIgMAcEphFQ7DnRJ54937DofwcXn2oEgiAwNwSgEP5uT21c10xOJSf7OmFQ/nJ8kXu0yYAh/KTIN5zIk+Z937DofwkUCNPEAABEJgMATiUnwxX5DpZAnAoP1m+cCg/Wb7IfdoE4FB+2sRxPBAAARAAARAAARAAARAAARAAgXMSmMWhoeesEpKDAAiAAAiAAAiAAAiAAAiAAAgkEYAhmEQH+0AABEAABEAABEAABEAABEBgDgnAEJzDk4oqgQAIgAAIgAAIgAAIgAAIgEASARiCSXSwDwRAAARAAARAAARAAARAAATmkAAMwTk8qagSCIAACIAACIAACIAACIAACCQRgCGYRAf7QAAEQAAEQAAEQAAEQAAEQGAOCcyiIdhzIk+8e7/hUH4Orz5UCQRAYG4JwKH83J7aua4YHMpP9vTCofxk+SL3aROAQ/lJEO85kafMe7/hUH4SqJEnCIAACEyGABzKT4Yrcp0sATiUnyxfOJSfLF/kPm0CcCg/beI4HgiAAAiAAAiAAAiAAAiAAAiAwDkJzOLQ0HNWCclBAARAAARAAARAAARAAARAAASSCMAQTKKDfSAAAiAAAiAAAiAAAiAAAiAwhwRgCM7hSUWVQAAEQAAEQAAEQAAEQAAEQCCJAAzBJDrYBwIgAAIgAAIgAAIgAAIgAAJzSACG4ByeVFQJBEAABEAABEAABEAABEAABJIIwBBMooN9IAACIAACIAACIAACIAACIDCHBGAIzuFJRZVAAARAAARAAARAAARAAARAIImAlrRzlvYFn3xTav2//8PIRYpVRVKieKh0QlfIYRIJXSFHSTOK7jj5TyvNLNZjmDIJnWlxGuc4oozDyHHyn1aaYcovdKZVpnGOI8qYJEW+Qibpin1CV0ixPUmOoivyGSWN0BVS5JEkhS7L+P4PpKhdluJWIynJhe6Lw1BqPChLUdOVQteXJE2T+CXHTqyFHOaAQlfIUdIMoyt0xsl/WmlEGYeR0yrTOMcZpfyc//6796Ww7Uoxe5ZHuFAC5XIsffC+Iv0f/8SQFpeZ9uCg0N0a010r5GCtp7cKXSGf3jv4r1F0RQ6jpBG6Qoo8kqTQFTJJV+wbR3eW04h6JUlRfiGTdMU+oSuk2J4kz9Jt1jVpd7stNZshPTOScprdfc++E59fmeW+Q/d+u/e+Kbn3vtW3Cz9BAARAAARmlUDU+wAXnSwiP9c5dk7uOMff3XdFHMZS/eEeRUnaefezc2SHpJeWALXm+ozA7nV1aVlccMWrh7FUPZSkTz50LzhnZAcCz48Av3f6gnhmCNm3azZ/zqIh2N846P2OItGYEHJYoCopDptG6Ao5zDGErpCjpBlFd5z8p5VmFusxTJmEzrQ4jXMcUcZh5Dj5TyvNMOUXOtMq0zjHEWVMkiJfIZN0xT6hK6TYniRH0RX5jJJG6Aop8kiSQlfIgbr8XO892wdqjL6xl1+vES8+zyo0A4J/CzlM3kJXyFHSDKMrdMbJf1ppRBmHkdMq0zjHGaX8p/PvXVfDZAOdZALiloz9pxrOpxKJ0yDkKYUBG4SukANUTm0aRVckHiWN0BVS5JEkha6QSbpi3zi6s5xG1CtJivILmaQr9gldIcX2JDmK7nE+4pkhZFL2M7FvFg1BBsNPCRH7rLi+n0PjGyWN0BVymIMIXSFHSTOK7jj5TyvNLNZjmDIJnWlxGngccQ+KnccPD/GnKOMwcpQ0QlfIUfIfJ80w+QudcfKfVhpRxiQpyiJkkq7YJ3SFFNuT5Ci6Ip9R0ghdIUUeSVLoCnlK95k7TmkOt4HvF86TI48APT3vvdf6TG58Uton4TxpnuRy9i9xnLM1j4xZ1jtfGv5KzVY6B+Z1OoySv0g9ShqhK6TII0kKXSGTdMW+cXRPpxHXFssXpmEnEMyAFPcnX2uDr7cBhRSnQcgBKqc2CV0hTykM2DCKrkg+ShqhK6TII0kKXSGTdMW+Z+iKtsVT3IWukCKPJCl0hUzSFfuErpBie5IcR3daaZLKfWKfeGa8MM8LcaGcqMdz/ZPf1lWKDkV+qfe/2PklNircUdIIXSHpcGcGoSvkmQlIYRzdWU4zSp2nVY9hyiR0plWmk8exqABfoMgNs08o8jVfo8j3wEld2nRmGCWN0BXyzMxJQegKOUqaYXSFzjj5TyuNKGOSFGURMklX7BO6QortSXIUXZHPKGmErpAijyQpdIU8qevRBn5RXlTge+VTivzOMCjycU8GURYhT+4f9LfQFXKQzslto+iKtKOkEbpCijySpNBlaR7H10gyqx9R5GfOySDSnNye9PcoaYSukEn5in1CV0ixPUmOo3syDbc3dim2KT7VoE46MPb1CLTo1x2KKYp8/Q3bfhPnQUhKemYQukKemYAURtEV+Y2SRugKKfJIkkJXyCRdsU/osuR2Pd/fX6bIvL9Dka9fEfp1X+TzMe16CH5nySYpcKycpTgr+2fREOQLMzgGxA8RPtkiiBMv/h5GjpJG6Ao5Sv7jpJl0/uOUaZw0s1iPYcokdMap80Wk4WudjUG+D7lxzNc9P0BgCL7YDQZxbQhJp/TMIHSFPDMBKYyiK/IbJY3QFVLkkSSFrpAndfkaH7bxcTLtoL85L35P8AdDnSIf92QQZRHy5P5BfwtdIQfpnNw2iq5IO0oaoSukyCNJCl2W3BhnY4Y58XOHV/Hh583JINKc3J709yhphK6QSfmKfUJXSLE9SY6jezKNuL74A8ZFXrdJ5Z6nffxe4+uM73s2ToZlKM6DkJT0zCB0hTwzASmMoivyGyWN0BVS5JEkha6QSbpin9BlyZz5/ub7nXkz//4Vu/p1X+TzMe16EMahAn9cY8ObVit7McIsGoKiR5BP8gtjUb8YpxulnDECy1Selynyl9LvU+TeQO4ZxJdngoAwlwS44cHP+IsK3NC8R5ENQX5nIDybwArtWqB4g2KJ4v9KcZsiQjIBvsb4usVzOZnToL38keZDinxv4v4cROhitzHjLMUixbcp8rP2f6G4RRFhOgT4WfFCPS9m0RDkUyUaCvwARgCBeSUgvpKKITN8vfNXJDQ45vWMo16TIMD3EcLZBPjZ0v/M4b+xfOPZ3KAxPgFuEL8wPSPjV3NmUrIhyD2CzNymKNoUuM8JBsJgAv3z7wZrYCsIgAAIgAAIgAAIgAAIgAAIgMBcEYAhOFenE5UBARAAARAAARAAARAAARAAgbMJwBA8mxE0QGBSBMScCZYiTupYyBcEQOByEzj5jBHPn8tNBbUHgfklgHt8fs/thdUMhuCFoURGIDAyAZ4/wUFMLhZ/H23F/yAAAiBwcQTEc0bkiOeNIAEJAvNJAPf4fJ7XC60VDMELxYnMQAAEQAAEQAAEQAAEQAAEQGD2CcAQnP1zhBKCAAiAAAiAAAiAAAiAAAiAwIUSgCF4oTiRGQiAAAiAAAiAAAiAAAiAAAjMPgEYgrN/jlBCEAABEAABEAABEAABEAABELhQAjAELxQnMgMBEAABEAABEAABEAABEACB2ScAQ3D2zxFKCAIgAAIgAAIgAAIgAAIgAAIXSgCG4IXiRGYgAAIgAAIgAAIgAAIgAAIgMPsEYAjO/jlCCeeXgHD2Khw9i7/nt8aoGQiAwPMiIJ4z4vh43ggSkCAwnwRwj8/neb3QWsEQvFCcyAwERiIgnL0KR8/i75EygTIIgAAIDEFAPGeEKp43ggQkCMwnAdzj83leL7RWMAQvFCcyAwEQAAEQAAEQAAEQAAEQAIHZJwBDcPbPEUoIAiAAAiAAAiAAAiAAAiAAAhdKAIbgheJEZiAAAiAAAiAAAiAAAiAAAiAw+wRgCM7+OUIJQQAEQAAEQAAEQAAEQAAEQOBCCWgXmhsy6yfAqzWZFNnY1ilGFF2K8XEkceFBrBA1axOEuVwGRb7emAVzYB4hxVkrKxUJAQRAAARAYEYI8DuD3x/8LlUptijy+4PfpQggAAIvNgG+ry2KfG9z9I7jJO9vPuYk86fsX5wAQ3By54qNwC9RzFN8mWKZ4jcpHlCsUbzowBc2vyzZsAooztJFnqHyvEbx+nH8S5L7FO9T5Jc6AgiAAAiAAAgMIvASbXydYpFiieLvUXxMsU6RPyYigAAIvLgE+J7+KsUVivz7B8dxUvc3t5M5OhT5g9KlDzAEJ3cJ8FfMqxQXKb5C8RHFi+TNvWycN1/Q/IK0KbLRydv55Si+qnxGv9nY4r+fl3HIRvEGxZsUX6b4IUW+ydl4PW/g+jPrNEX+qsTHEpG/LnHgG557Ie9TZCMZAQRAAARA4MUgwI3D2xRZLlD8BsWLeJfx+4ffGfz+4I+V/C7hd4eQvJ+Pwx8t+f25RxENR4KAAAIXSIDbrrcorlPk+5vbrBdxf1M23cD39BJFvq+5jcz3Oke+p/l+blPkNiIf16fI2y9VuEjD5FKBG6KybJj8TYrXKf4Uxe9R/JcULyrwy+uvUVyl+EsUr1DkXjfezgbQ4+P4P5J8nyIbos+r941v7l+l+IXj+C7JQ4rCUKOfYwW+fvkG5/zfpLhJkTmwAX6NYoqiTPEuxXsU/3uK/FKflcBl48BSxO4G/AcCIAACF0zg5DNGPH8u+DAXnt3blON/QpENQY7/gqKYZkE/xw7cAOX3BL8/foIivzu4McqSI79L+aPq/0WR35+/Q3ESo3koWwQQmAiBF+EeX6Oa/zZFbr/x/b1F8f+meFHGIPc0/l2KfG9/jSJ3SnBkNnx/f0jxE4r/kOI2RW47X9SxKavZD9yQRpgMATZyhJHCXxuaFPklwi+w8wTO91WKyxR/nSL3CvJLi4eE/gVFPqf81YNfcnzh/22KP0nxn1FkY8inOO3AX2L4ZuevMBx4mOwOxfOWxaI8foki5/02RX6I5ChmjyV/CeIvPnyz81efWbu5+ZxxYClidwP+AwEQAIELJnDyGSOePxd8mAvLjhtq/D7j9wYba/z8PqDI71N+pp+3/PwR9bcpct7XKfJx+P3BH3H5NxuC/I7iD6j8/p619wcVCQEEEgmc9x5JzPwCdvI9xm3VIkUuK9/fDYoXcX9z+/CLFF+m+IsU+d7mNuIuRTb8uJ3MbVO+31nntyjyB5//nSI/Y2adHRXxYgIMwYvheDIX8QJjQ5ANNTb++GXCF7hH8TyBz9kbFPnC/Q2KfDGzgckXMM+94+EsbBh9nuJLFP8OxUOKf0qRdfgGm/YLjW82LhMbaHxzcXl4mM15DUHu8ftlipsU+YbnhwoHrh9HNpr5GGwM8o09a4GvEw4sRexuwH8gAAIgcMEETj5jxPPngg9zYdnxu4zfHfzeYGNtnyI3FPl9yu+x8wZhCPI7mhuJIvD7giO/T/i9wRGGIEFAeOEIzPI9Lu5vNgT5/ua2Gt/f3Fa+iPub24c/R5Hbwn+dIrOoUGQj8LsUr1EsUPyZ499sjH5G8Z9S5LJcRBkom9kP2uwX8YUrIV9s/NVhhSK/wPhF9hHFhxT55XKesEGJX6H4H1F8jSIbVB9T/J8pspHHvWwcuCfs1yj+OkW+Cfgl92WKbBj9MUXuHZtGYBZ8TP7icp0i31jc9V6leBEv1oDyuUvxAcU/pCgaCq/Tb+4h5DrzsZn9fYqsP0tBfHFiKeIslQ9lAQEQmB8CJ58x4vkzqzXkL/o3KHIDjRuN4n133vcXv5c4b34H/R5FDlsUuaeA469S5Pcnf7zkd/Y9ivcpztr7g4qEAAKJBGb5Hue2Id/fVyjyb3F/szF4nsAfcH6R4lWKv0mR2+F3KHI7/H+jyB0ndYrcTuZ9/xVFbidvUuR7/qsUuT39HkVus859eFEMQX5wc+SXAff0cBSBLyDex5Ivet7H8rxGF2UxVuCy2BTZAOELkv/mi46/ciTdlFx+EUQ9xN9CskHHN80NipsU/4oiv8C+S/ExRY+iCK/RD97GRlGK4hJFNk77j0N/TjRw3fkaY2OYefANyBz4a0vS+RFl5PTifA5ix3nwQ4P3sYHJNy9LTr9BkY/Ddedj8jnov27oz7kIzIivMw78mx9cSWxZDwEEQAAExiXQ/8zhPPh5M4lnDr87+J3HRhsH7gnkj4hJjTMuG7cTOPBvLtegdwfr8Pvy/rHkRiK/Pzi+QlG8o/idwSN5OM7j+4OqhQACiQT4PuI2HN9H/JvvjUH3FG0eKfA9yPc3tw05X3F/s3xWYL2z7m/ev0nxOsWrFLmsdyneo/htiv3PBD42txmvUbxJkdvuyxS5zcjHuhSBH7SzHkwq4CLFzHHkhj9H/jrHJ+pNimzV36LILwg2jMoU2UhKemHQ7okEcRFyebiBzuX8mOIDioNellwHNlxepcg3Gwf+4sn14LT9N8WX6O//nOI6Rdb5hxTvU+QLmW/O/rBDf7xD8SsUufub0zAXLtO0Ar/A+QbboMh14275jyhy2Z8V+DwzO2bCbDgNv/zZkDt5Pvnl/E8ocmC2vJ8lH+tlimwE8t+fUfyEIvOcp8DX2irFX6DI9zI/8Pic/4giAgiAAAhcNIH+Zw6/S9g4mtQzh5/f/Bzn9z8Hfu/foTjo/cHvCvEB9gr95nLyNn43cuxvuPJvzoPfCf/4eJ94N3Aabpzye4v1uEHIxuEWxZPvH9qEAAJzTUDc73+Dasn3Ot8T/47iLsXzBn5+8P3N9xq398T9ze3Uk4HvS25Pcvvw5P3NbV0u2//P3psAV5bd5333vv3hYQd632emZ58hZzjcSXOVRFOyJMrRRsexKolddlxyoopT5SRlq1KJU7bLcaK4SpHjOLEc2ZZElSTTpESGIukhRVEUh8PZt57pZXrvRmMHHt6e7/cap/kGA6ABNPDwHvD9uz/c++4999xzvrP9/+ecew5CeKkH/iPh2OI59dMvC7hDHyQOQfh9SsDfhwX0qOMCnUT4tSuESHe6kFloCEYEpoggVOJkChR+EpuK+7hARY17GpBLAiNQRaGdQoYNDRIZiUw3KywNB+7I/MQJ98SDsOOW57gfBHekFfGEC+4tCGRsCiSNWGvm1s+mYYhfZHQku4hWf5s3tvAP4abHhfjxXozV1jDpZ1O4h1u+dxwW4IJrcEaBJB2XE+KMgdgqPAePvBc/cYM/NOihstBpVwvxI25wdUDYJ5AHKBe7pvJSXC1mwAy0h4FQ59BehTqHupa6eavqHOo4FDTaLmSl9oO2kfDR2UmnMIol7QZt5HJKpS432wXqzNa2hfcEvQL/qE/xB3c2AkWCZdcwQP5Hv0Yno7zvF9DdKBOU+80Q6g3KN/o6fobyTZlrlVC+CQfhoXyjyzEQsLR8U37R/aincItfuENPHheW6slBPyRenBMO/KAu2Kx4yqvOlm4wBKnc/1PhHQK9B78jfFH4S8LdApmCTAtISAwfDKSvC7j7itBOofE6LJwQCBONyBvCBSEYZTptZta9Ov514cFF0HD9tvCS8KIQCsQenVMQiT/xfVMgY58XiGurv/rZFAykiwJ+kKExIikcW9Voy+u3CQWcNIIPhEL7mrDUKMYdBu7fFE4KjwsU2j8SviacEpaLoy6/RYgn/GMgHRfgn0rgsgD/O6ExJ07HBPLO3xIwsknTrwrfEcgXFjNgBszAZjFA/RLqnL+m89COnNb5kwLtzFZIaD+oz5Hl2g90GBRE2sdfFnDL+TcEwsZskrPCWoR48Sx+0JbQblwSUFAbgsUM7AYGgo5xnyL7l4WlOgY61WYI7wn6IXVMKN/ofkG4Hsr3f6NzdEnK6JvCrwut5Zu64EHhiIAb6o/vCc8K+I0hu1Qo12MCejT6YUag/KMvUwfsCoG4TpecAkjiAzLEPcJDQlZYEM4KxINKnJ4A3GAMkCGeFkhYjAjQDiHzkIkGBTJxXZgQpgUyHeGmYB0T7l8E5xSuKeGaQEEgvLhH8Ou4MCIQVzIujW9JWClehIP3B8EvwtJOIayhUPFeDEDihnGMwAXp84jAqBZphtFL7wwFnEYYTlq50M8VhYqF/AK/+As/cwLv5TzwqdOuEtKSPE2nCHkcvuCV9IUrjL8LAtwuNbJ1yWIGzIAZWBcDoc6hw4k65zGBOoc6NtQ553SOgrVVdU5o11HoEN4T2g/C1yf0C+8SaPdpR6knaR+vLx4J61qFdoM4cqStmBZou1dqY3XLYgZ2BAOhvLfqGOjcQce4rPOgYwT97U4jjt/o7ZRh3h/KN8dQvimLoXyf0Dl1EeUbPZlja/nGP8J/XEAPpAyjQ6IfEeaV9F+eA0F4DuwaoaLtdCFByQAYQyTOe4Qjwu8IbwjPCCTiR4SHhc8KDAnz+3sCGY2eAAyCdkjIjMf0Mvill+GsQGYkI9JgEf6fFH5KoDEjk/59gYL2xwLhbS1sd+n3Dwkc8e8F4SUBQ3gloQCFhhs3FBgAh+0SwnBcoHAiNKqnBcINT3uFUeHvCrg5KsDBrwu4+/cCPBDntQgVCoYkaY7CQiVABUa8a0K3CnGBS/LLIYG8QHzg6U3hGwL5G67amb56ncUMmIEdyAAGFUrXjwj3CD8qUOf8lvCaQJ1DPQ62qs6hzmtt+2k/ziy+k/DRkXqv8LcFOkm59qrwvwsvCbhdT72PjnGXQPtBW037gR9rbX/k1GIGupKB5XQMytvvCegYXxXKAjoGZWMzJCVPKN/7hYQQyjeGYCjfh3X+94Sl5Zuy+X2htXzjH0bjOwXsBvS+pwT05ZXKcKx76OCUed5JXTYrEAbOd4VAXKcKCZQVegUMGhoFMiAV/JPCHwtkBoBbfk8L7xYwLjAs6EkkkcnA7TQEMUb2CYSXDDW2eP6Yju8RyKw0OGS0LwkXhe8IFIQZYWmmxb+HhL0CGf914UUBXnjPxwQKKNxMCjSG8MV9CjjhgBv8by04+rmlQvphuBB+hDBcEAgz139YOLYIKoIvCKcF0veGAHfrEQxB/OUIt9cF8kdJ6EZBMSHN3yvA2VEBnj4vkE++LZCmU0I701Wvs5gBM7ADGaDOod24T6DNoeMSpSrUOd/SOb3xW13noJTRhlH/cT4uUOfRJjwi0Mb/iHBcyAjUg38gnBOeF6j7affXI7QbKJ4caTND++G6VWRYdiQDq+kYVxXjPxMoWxhHm2kYUabRDynflDf01lC+0eHQjynfR4RQvr+ic3Rfyje6ZGv5jvUbewZ9kroLPYlOqleEywL+jAgfFt4Q0DNBTeD9AwLP8HtcoH7bzPjKu84ViOtUIWFpCAoCiUSmIZGeE35ToMIncwb5vk64/4ZABqGXgQzE863u9HNLhcxEhsP4ITxkRjI5Bu3jwqcFMjjXMIq+IDwrnBEqwnKCf/cIoYEi7qeEUYGG+q8JvOd3BDJ3MAQp5CGNZ3RO5qaBa5eQZqQD4UdIBwrlwwLXf0a4T8BQQ7n4fYF4vSQsNYZ16baC0Q8fHCnEFGgqs9YKQz87RsjjCMeA5oXFP8M6ws/PCXcLGP/w928ElBTit2sqK8XVYgbMwMYZWFrHhPqn1UfqnBPCDwt/XqA+pm4OdQ7tFu3aVgrhCiMUtHGhLqf9oC5/h0C9+FMC9T1hpC39lwJ1Yuh41em6hHaDdim0HxM6J+5bHV+9wmIGtoSB5cp464tW0zHQnSjvm61jECb00oxA+c4KlLNQvo/q/OMC5ZuOmVcEyjd10HlhufId/MT9CYEwLwjow8SB+gK985eEryyC+PHOXgEbA+MUvRP36MubHW952ZkSjIRODB1hu0s4JJBAZwUS9WnhjEAiLxUSjgwBkDkhZLDmhS3+Myj/ydgc8wKZloz2iwIF7pMCYXxe+LLwh8JrwrSwnOFDPCgkNEz4i5vQ0NFIfUqg0MARBuhfFJ4SPi9gANOoUdjqAoXnitCuRo2w9wjHBQoZ4T4mfEb4SYEw09ifFf5X4ZKAQQxfy3Ghy7eVIbk4KcA18aTyeEOYFzpRyAsIR0A+J60fE94tHBcOC98VviB8R6CCuiigEIXndWoxA2bADKzKQKhngiN+U0+jCFEf056gMJ0QTgm/IlAn3xBoy6hz2tF+0PYfEzDyaCNo6y4LTwj/o/AJgY5WOsNoS/+ZQNv2plARaO82IrQb9wqh/SDOrwv4aTED3cjAUh0hqUigG1KWtkvHoHwfEdBdKd/oe5TfUL4f0flDAuU71EPc5xy9f7nyje43KuQEdGH0SZ7BBqB++7hwj0C98S6Ba9Rt3Ke88yzPERbqGvTl5d6jyztPSJBOFRKlXyDBaKxQgElcDIqVFHvckdF5lgJABU7GIXGXE9zjlszI+XKCP2AtijeZEOMnK8BtaEAe1DkZ7aRwQaAn4rTwfYGpLis1roQNfzKLIB6EoyTgNwUaw4E4EwcyNEYXwjNwF7iAB3hbKXMH7vBnNSGshOF2EsJEGOGFeBK2u4UHhIPCOYH0fEYgbVE4VuJCt24rvId3cCTNZoVpYaX0162OELgnnck3VGhUkvcJKEKk6RXhVYGRUtLRYgbMgBm4Ewaoc6jrQ52zT+f3CscF6mYMrFeEl4UJoZ1Cm0W7RtvBOW0W7R1hpB29R+D+eYF24zmBDt+1tEtytqKE9gNOWtuPldrMFT3yDTPQYQy06hjoFNupY4TyHfRTyhc6Wmv5PqzflG905bWUb8psXkCPIq5FAX0XfZL3BVuCc9zBAfUfbin36O2cExaMQ/Qs6oBdIZDWqULYjgsowyTeReG7i0cdlhUSlAxOIk8tAmOAzLBUMFRwt1/4oBAyBYlPhuAIyFD49SUBv1YTwsr7CQf+nRB493EBw4w44QeZe1LA7+XCpstN4RnCF4xh3GMs0SiCrwv7BBpufn9TeFNARgSMCTI4mXtMoLFc7n2Ei/A+LtBbQryXE66TDn8oUFBWEvwj3HsFuKDgUVDxmzBxHSE+0wLGIMrGcmHT5TULRtRdAiOyxBkl4aywWlh1e9sF7h8SUHweFKiIyHOfF14Qzgkzwp0qOvLCYgbMgBlo1sfvEQ+0Gz8vULdfF6hzXhGuLIJ6p90S2n7aNdp+2lXq9NAuodTRVtCeUcfTjhCPOxH0AdqPYwLtLm0G7TTtXad3JCqIFjOwKgN0kL9DIH//RQH9Yrt0DMr3UYGwUL7Rbx8V0NkQ9EXOKd8Yg2sp3yNyh85J2aWeQJ8MOiX+/L6Absi7nhKeFijf6F6HBMLDOfUKdR/6Mv7sCiFBOlVCxUylj2FGg0SlvFLDRIYiE9BTiNGBMr1aBsI9ftPIvFPgGd5D4odjyFBkmLVwhX80JmQo/OgRyFhBgQ8NCnHj/bgJ79Lp2wR3IT7cxB96OSgkAD6I48sCDdezwrgQeBjWOe/hOQxQuOO5pUJ4KXxHhMeF5QoA1wg/hh3hWk14JxUPYYc33APegcAJQLiO+8DHcu/G3VoE/4kzR+JJfOHjTpUEebHpQrzhhrQivFRGVFJHhVMClddrApVWSVgu3XTZYgbMgBlYEwOhzuFIPX5CoF45JkwLrwrUOX8m0GZsV71JW0A9TntK+0jbTD1J20d7R9tBO4E74nK7dlROVhX8CfUwdTDtHO0p7wN30ibpcYsZ2DYGKB+jAmXpHoGyDl4StkvHoLzRsQMou+hBhK+1fHMdd9xbS/lG16bsEl/Ka2vZpc44LVBvvNgCyjnP8W50VX6ja6E38syuKfeQ3KlC2O4WDgsk7phAQ8VxqYSMReNBpqdxw+24sJJQ8T8oPC78hECGWCpkDEZk8Av3t5MjcnCPgGIfMuMNnf9vwl7hpwV6LSiI5wRGOC8LNDrLCe/EQCCTIhi3xJ9GGv+J36SA//wm89LAEwbewbO4IQxnhLMCcVoq8AbPHxI+s/Tm4m+eI6ykC3yvJrg5LuAnbgkbhfCPhSeFDwr7BMIIH+8R4OMZgYK4URnRgycF+IcjDGXiDS+dJLECA+cHhRMCXJA/3hD+gXBKuCAQbvIG/FnMgBkwA3fCAJ1ztI/Uk9Q9PykwCvgPhWsC7dysQB28nR1PdEy2tv3Ug+Arwh8J/4Vwl0B7RRvyewLhnRA2UldiaOIPdTJtLv7QHtHe0u5ZzEA3MoDuxcDE3xEoF+gZ6BX/vXB+8Xw7dAzKN3rPcQHdviJgfP1/AuX7hxdB+X5Y+DcC5Rtdd6V6iTrtgEBZxg06L0DvRBdEd6Wuo45Dp6KOe0igHkT3otyfEc4K6NjTwkbqEj3WfYLC3qlCBqFixggiMcmwUwKJuFTI8LjrFYgTbjCA5oWVhMxC5rsiPC+QgWKBxA9H3otSfk4gs95O+uWAgkdGJ/O9LOA/vRBkSvy6T6AxJgPeI6wUJ91qGlGECy4QGiV4CIWB8AHiGiSMLg3qAlyQqS8JNPCEabnMjb9wdkF4dgU3vAdlgcLC+WpCeOEBPuCSdDgrvCTANfco1IcE3MAJ8eQ+BXS9QvpTkIk7Bj1x5J1whX+BL51uq8AFaU8Y7xWOC4SZ8F0WzgtvCBiwrWmqnxYzYAbMwLoZoM6hbcQIRPE5LNBOUoefFah3qHOob2ijOqGuDApsaD9ov14XaJtoUwkvbSztBwrgcYF4TgnEa72CX+ga1Mv4Q7uBMbiWNl/OLGagYxig7FAm9gvoVORtjuh/p4U3BcoPRtF26RiEEf0UUN5mhKeFUL7v0vkDAuWbcnlcwF3QYXX6NiGe6IC4Q9BnAbogQMcNeq5Om4IuRn0YdDD0X0C574R6UMFoj2AodKoQtmMCiUWCUjFfFZZLINweFTCuyGRU5GcFnllJ8PM7Ahnw3wkhA+n0lpCByBSATHg7OSAHxwUyFobOPxXOCd8ViAcG0k8JZPR3CD8jkPFWKpDEhcwd0okw09iRoVeSft34oHBk0cH3dHxV4B3EZznBWCS8Z4VfF5aTUJjgAn5Xk6XpQRx/VYDr7ws07IeEBwV4+YxwVviqAM8rhVO3lhU42isMCTTmxOeygF8bMSz12KYL+Yv0JG1I/58QSCPiek34vwV4ekXolDArKBYzYAa6mAHqnPuFdws/L9BO5gTqx78v0PnEyBftKugEof04LhwQCP9XhF8TUF4xVv9AeF0gPiiKf0E4K1B31oT1CnxQJ9N+IOgNZwXaW4sZ6BYG0DGywnuFkwJlAzklMBjxh8L8IrazrAf9EP2H8n1a+GXhjED5pjwSF8o3dUAo3+d0zmDGcoIOSNzxD51qehGrxfNhuXlEGBDQaf9YOCtUhF0lJEgnColJ2Oi5JHFR6KmUSVQSeangvk8oCGQgDCUywmoVOf6QqUj0koDwLNfDkWu8M4DfqwnhJVMRHvxFwcd4xX/i8KZAY0bDi7F4SKCwEvblDCDeSxhD4wYnPIf/ywnh5j69HBiExIX3XxBW44L3EF7eQ1iX41iXb/Gw0n3cIISP98MHYSIOGH8Ym5zfEIjLmECjC2d7BIw5wsm1271DTm4JBjbvCxUIcbidwXzr4S0+IWykyahAHI8vHskHcM51KiEqaOJO3l1P3OXcYgbMgBm4xQB1DnUh7eEx4V7hoDAuILQ71D30xAPq/04R2otQn1Nv0l7QllNf0kYS7osCIwCEHeON9o44EN/QZup0zUJbRBsEZwj1cKe0H80A+Y8ZWIUBjCCALkE5PyqgSyGUH/TO8wJ5mt/bXd4p3+iGgPCgD6MLhvLN+RmB8o3OFMo37nHLM0uFeoHrQXeiLAd9cKlb6hh0VPjaJ1D+efbyIrabHwWjvQIBnSYkEA0AiU4GQF4UVjMOaBROCLgnk1GRnxZ4ZjUJBlZ1NUfruMf77xIID4r9KYFCSMbCCHpSYBTsvQIZ/EPCOwQy4XNCMEh12hTCRaHAL4RG76gAP0sF3khP/P0hAcOI935H+BMhKAE6fZtQeADuN4OLkB70+JAeFPBnBCoi5KxAw/5dgff9OYHwflR4QfiGsFxh1+VlhVHAu4WRxbvE9bSAgbXdQlrdI/y48BcEKjIquP9DwCD+rwXSjbwYKjGdWsyAGTADG2KAOof2kLbmbwu0K7SJvyFQ7/5NoSBQ51Dnd4qgoNFeoMAdF6jXqcuvCVeEIN/UyfPCpwUUuY8I3KdOxS0K3XrixXtOCp3YfihYFjOwKgMMJuwX0DF+TAi6E+Wb8v7vBPTQThB0Hcr3MeGQQPkmjFcF9ETkFYFyTPlGnw3l+1/rnHK9XPlGt8QvDELqkMMCuiW66FLhGobzY8L7BMJ0QfiWcE6At10lENBpgkEzKpABOKcBo5JHeV5JSHjcU5HTmNDw3e4ZOdk0IWNlBUb2aGDJlGRuMmXIVCj5ZOI3hK8J7xEeFR4XaLhfE5YaghRoCgRxxx/8PiDwHgoT7vEXIe4fFB4W6N3k/RSowMNmGHjybk1CepCGhIP0w/iBk1bDjPA8LdDb+26BgkmhhMs/Fbi/1sacZ1EI6DxA4It4L+WTe+0QytWgQFrQM0dac+27wksCBuApgfxNusIX6RjSUqcWM2AGzMCaGaB+oU14QqDOQcmhTaLOuSBcFGh7kNAWdFp9Q32IUktbRnwIJwoi9XmrcJ22hM5F6s6PChhzHxZOC7R9QRnW6W2F9oN2tVPaj9sG2A52PQOUj6Bj3K/zewSuoTudF9Cd/sbisVPKObo5OiHlGz0PoXyPCa26HjpRKN+c/7BA+X6/gO67XPnmGuUYfZP3HBTQv+GE34ED6gsGX9C7Dwvcf0FA/0YXpd4IbnW6OwQSOk1IqP2L4Bxlnh4AEmklwR0VOcYHQmbgmaUNCPe2QmiAyaCgIJwXyOBkxNZMxfnrwpeFIeGdAkbQIeG3hFmBjB+ETHlFmBAoGHmBDI7RQ2NPDwgFiHQ8IXxGOCrgjoafSuGS0C4e9KqmcUOBJIwU+nmBtJsUWgVunhLg6q8KuP+AgDLwG0KoDHT6FoFr4os7CjhCxXJMoGJESH8MTxQhwoDAE9c5tnKsn5sm5EPQLxwXPiGQth8Wvi78B+GrAnkDIc6Ex2IGzIAZ2AgDrXUObUqoc96rc9qAfyk8L6Ds0K7SRmJIdaIQFzp0QVDqaL+Wtv3U39Tl3xWKwvsE2jziTvyeFJa2vbrUbC8w9mg3QtvB9WHhiEC9jdDuzgm0NbQftNuAa66vRYJl2xgI5Z18ic5Dnn+H8ICAjvEV4VmBMv6XBfJtp0jo6KF8o5shlG+MuNZyxXko33Sa/zmB8s0Rg5DyTfxan2HAJJRR6gf0Lu5Ttim31Ae8H3+oL35ewGbA7feEZwTqGdztOulEQzCtVKBSBiQcGeKsMCGsJOEZjCMaBhKUzEUGaIfQAFMoyWRkPjL3m8JyDS6NM0bRg8ITAsYAmfUxAYPmZYGGCCGTzgqvCH8k3CfcLfyi8DMCBZ4GjWcpXCcE+Pqm8MVFXNaxXUJYSAOAQUzBPCvAx1KBJ4zceeHbAun9iED8qNzOCcSjVWiYf0G4X4Bv0h2hcjgsoAQg+EMYPi3ABwLn/1ygwnhVaK1E9POOJSMf7hVIh58V+oSSQD78rwQ4IC1Wy8e6bTEDZsAMrImBpFzdLaD0UOdgyFDfUef8dwIdhacE2hDq4k4X9JGji6DtLwpnhOXqTBS27wk3hJ8RUOreI1AP3yPQfhD/IHCFEfi/CLQN+B9kQCe0KbQvyMeEu4R5gTYc7mg3flm4KvBuixloNwOtOsZf0cvRf9AxviH8MwEdA6DbkNc7TShzBwXKOGWdskX5DmHW6S0J5Zty/AsC5Rs9NxYo39RxF4Qg6Hfoy88IvOdR4ZjwPwuUWd5D/YjOjV+HBAYiePfvCq8K7bIX9KrOEhKj04SExojAqKJRoxGjsqdRWEl4JiOQAaYWwbNktHZIVi/pE3gfjQcNEGEmYy4V7hMXMuB5gcxJA7RfKAmnhGAINnROgbgivCjACwWJxv+wQONGnN8l4AfuKRAvCa8IrwubbfDIyxWFdMAoA4ELGtDlGnJdbqYvz7wh4P5+gXhQgAMHOr0lxPcu4VHhpECaI3BApch9uMUPCjqcwglCOAaFGYF3bobgD++m0iX9Cds+gfRBSIMrwp8KId11ajEDZsAMbIiB1jqHNvK4QH1JnUM7ROcgdQ5KDnUdnaLdIqEupf1YEGj7x4TlFDTqddpY2oCLAnU/CiJGHZ1xPEc7HIT78EPbEdrO1nv4Q1tJ+4EfDyz+1qHZNqF08rzFDLSTgdby3qpjoGugL6JjoD8FHYNyg07ZiUJcqLMo3+h36HyUU3T2oKfptCmhfOMulO8TOg/lm+uthiC/0bHOCujJ8MO7KO/4PyTAy+MC5Ry9Gt7AaQF9fNdKJxqCJAYJRYamMTsrYNjQA7CcUMGTaUhIGg4aQQoHCd0uCY0M76VxolCeEiioywnh/a7A/R8X9gtkcjLud4SlwrUXhE8Kl4X7BIya9woUJt6FoYOb88IfCnABj+0UCjqVFY3qc0JNIJ5nhJWEAvw5AQ56BSqJewTSD//gKgjnCwLKzcsCikMQ3CKtz7Q+S/55XSB/bBYvhBf8tHCv8A4hxOeczr8vEF4Uss16p7yymAEzsEsZyCre1JH/sYCy85BAPUgdelX4thDqnNb6T5e7Qqi/qftp+2nrnl486vA2oX2h4/NfCbQftKUofXDCddpCBD9RAlEiUfyWM45b2xJ4C9xxHBdoN3iOsFnMQLsYWEnH+H8UAPIkOgb6BWW+G3QMyhlliHCju4byTVleKlzDuAvl+1M6p6OG8l0QGBxpFTjALeUcd9QJ9wtw+H4BnZj68YyAfvZFIdgNOt290omGIJmZBKMiJ7HoDSCjo2CvJGSYUFHTeGAUtbNQkLHJeGQqMi7vJ/yrhYE4ElbiiEHIbzJyaIB0ekvwGze4PyugCOCenk8KEw0e8T8rEIbrwmrv1u0tE8JDPAhTSBca0pWEcHKfCuJNgUJLfOFxqcDNhEBcGQGkgV+r8I45gXy0HMdr9Qd3vDsjUNEMCqMClQ9xJ9ykU0iH5So43baYATNgBtbMAPUjHYX0bA8L1DnUPUioc6gXqfu7tc6hLaCOxpijXaQdpb6nPVlJqHOJN8ezAm7BchzgP/Uy7ctahbaCtmNM4B0WM9AOBm6nY5CPlyvv69GJ2hGP1ndQlqirKN/oh5Qnyje67Eo6GWU2lG/qBMo15Xu5Dhn8wD90ZdziDoMRnZIBCjpyuA7OCtSV6Om7XuIOZYBCQMOHoUpGIGFJ5JUyC/HICRxxD1YzHHV7U4WwJgXCSxjI4IRhtYYDdzwT4koGJ36rGSr4j3ue43mA8CzvC8fV3ov7rZQQNgwlZK1cwGFWIE7wQFxI96VCOuM2xH3p/ZV+4ycVAzzdqTwoDx4S/jPhiPCUcEb4twJKAxUd4QeryT7d/CcCcfq/BCq854XtTD+93mIGzECHMUCn30eFjwufEL4toAz+rnBWWEudc0DuMCD/B2FE+KxwUegkoX2jbqeto85G4aMe5XwlCe0uzyK4pw5trX/xEwQ9QadrFtoM3h/0kDU/aIdmYIMM3E7HCAMNrXmcV5HH+wU6i35P4P5PCueFThDKKvobRwR9l/K1ml62XPnG/XLGoC43JeiJ6KMIvFCGeQ5OwvOr1StytjskJEanxTYk8HKGwHJhJTHX08u3nB93co1MFTLWWv0hzDRW61H61+t+rWHZTHehYlpPvOCC55YbBVwaNoy5dgsVF0oGI7FHhJPC3UJQvt7Q+VmBacGMXpN/XcGIBIsZMAMbYgDFhc406pyDAoYgdQ510VmBOgdDkF7tMGVxJ9Q5oe1HQVyrhLYmPLvcc3AD1tLGLPe8r5mBrWRgIzrGVoZnq/wOZXWzy/fS8G6Hnrg0DF3zu1MNwa4h0AHdFQygkDF6d7/wSwJTDZhy8I+Fl4TXBQzA9QrKHsIxoHnBf8yAGdjVDNCTvVdgZOCvCwPCkPDvhX8uvCqst85ZWseE+kdeWcyAGdhGBrZax9jGqPnVnc6ADcFOTyGHrxMYYJrBMQFF7IzAogzXhOcEeuTXOnItp28ReqgRjgHNC/5jBszArmaAtpnZB9Q5bwr0oFP3vCwwEriROmdpHcNvixkwA9vPwFbrGNsfQ4egYxmwIdixSeOAdRADLNJwQmCaFsoY3+eAmnAnylTokQ899eG3vLWYATOwixlgKvpRAUPwgnBR+G0hfIag03VLqGfCg65vAhM+moHtZWCrdYztjZ3f3tEM2BDs6ORx4DqEAb79+5LAdC3KzJRwp0agvLhlRIae+jsxKvHPYgbMwM5ggG/ZviZQ31DvMAJ4p3VOqGfkVVNc3wQmfDQD28vAVusY2xs7v72jGbAh2NHJ48B1CANMy2I6qMUMmAEz0A4GMPqYfm4xA2Zg5zNgHWPnp3HHxpCViixmwAyYATNgBsyAGTADZsAMmAEzsIsYsCG4ixLbUTUDZsAMmAEzYAbMgBkwA2bADMCADUHnAzNgBsyAGTADZsAMmAEzYAbMwC5jwIbgLktwR9cMmAEzYAbMgBkwA2bADJgBM2BD0HnADJgBM2AGzIAZMANmwAyYATOwyxiwIbjLEtzRNQNmwAyYATNgBsyAGTADZsAM2BB0HjAD28dA2NA5bPQcfm9fiPxmM2AGdioDoZ4J8XN9E5jw0QzsTAZcxndmum5qrGwIbiqd9swMrIuBsKFz2Og5/F6XJ3ZsBsyAGVgDA6GeCU5d3wQmfDQDO5MBl/Gdma6bGisbgptKpz0zA2bADJgBM2AGzIAZMANmwAx0PgM2BDs/jRxCM2AGzIAZMANmwAyYATNgBszApjJgQ3BT6bRnZsAMmAEzYAbMgBkwA2bADJiBzmfAhmDnp5FDaAbMgBkwA2bADJgBM2AGzIAZ2ImLsDMAAEAASURBVFQGbAhuKp32zAyYgQ5iIKWwAIsZMANmwAyYATNgBszAEgZsCC4hxD/NgBnYEQxQt/UuwvXcjkhSR8IMmAEzYAbMgBnYTAbcW76ZbNovM7A+BljaeUHAYPlZoShcFeoC+/+sd+nn9TwT3IajXndbCW7D8bYPyMF63Ab/1vNMcBuOrX7kF3/AayuXwW04hmdWO27EbbueWS3cS++1K0wbec/SsK72eyP+t+uZ1cK99F67wsR7cgJt/pRwXigJFjNgBsyAGdjFDNgQ3MWJ76h3BANlhSIt/NzisSMCtUMCEUYCMawtZmC3M0Cn05zwb4VnBeoeixkwAzuXATqALGZgVQZsCK5Kj2+agS1lYFa+f0EYFP5ESApB1jNSsJFngv/hGPxY7RjchuNqbsO99bjdyDPB/3AMfgzo5LMC1/+1wKhgRWBkMLgNR126rWzEbbueuW3gWxy0K0wbeU9LMG97uhH/2/XMbQPf4qBdYeI95H+Mv+cFZh54RFAkWMzADmagdSbMDo6mo3YnDNgQvBP2/KwZuDMG5vX4FwWUtKWyHgUxPLueZ4LbcAx+rHYMbsNxNbfh3nrcbuSZ4H84Bj+O6uQTAqOCvyKMC4yG2BB86zRZUbKiBE7DcUWHLTeC23BsubXi6XrcBk/W80xwG47Bj9WOwW04ruY23FuP2408E/wPx+DHasfgNhxxa+VwNcZ8zwyYATOwixiwIbiLEttR7VgGVlLMVrq+WkTW80xwG46r+RvuBbfhGK6vdlyP2+DPep4JbsMRP5ae8zug9X6rO66vJhtx265nVgv30nvtCtNG3rM0rKv93oj/7XpmtXAvvdeuMK3nPUvD6N9mwAyYATOwAxkI39DswKg5SmagqxnYiNK2nmeC23BcC1nBbTiu55m1uA1uNuL/0mdaf7ee847wOxzDe1c7bsRtu55ZLdxL77UrTBt5z9KwrvZ7I/6365nVwr30XrvCtJ73LA2jf5sBM2AGzMAOZcCG4A5NWEfLDJgBM2AGzIAZMANmwAyYATOwEgM2BFdixtfNgBkwA2bADJgBM2AGzIAZMAM7lAEbgjs0YR0tM2AGzIAZMANmwAyYATNgBszASgzYEFyJGV83A2bADJgBM2AGzIAZMANmwAzsUAZsCO7QhHW0zMAuZ4Dl8oO0nodrPpoBM2AGzIAZ2MkMuO3byam7SXGzIbhJRNobM2AGOoqB1lUSW887KpAOjBkwA2bADJiBLWLAbd8WEbuTvLUhuJNS03ExA2bADJgBM2AGzIAZMANmwAysgQEbgmsgyU7MgBkwA2bADJgBM2AGzIAZMAM7iQEbgjspNR0XM2AGzIAZMANmwAyYATNgBszAGhiwIbgGkuzEDJgBM2AGzIAZMANmwAyYATOwkxiwIbiTUtNxMQNmwAyYATNgBsyAGTADZsAMrIEBG4JrIMlOzIAZMANmwAyYATNgBsyAGTADO4kBG4I7KTUdFzNgBsyAGTADZsAMmAEzYAbMwBoYsCG4BpLsxAyYATNgBsyAGTADZsAMmAEzsJMYsCG4k1LTcTEDZsAMmAEzYAbMgBkwA2bADKyBARuCayDJTsyAGeg6BuKWELeet1z2qRkwA2bADJiBHcuA274dm7SbFzEbgpvHpX0yA2agcxhotASl9bzlsk/NgBkwA2bADOxYBtz27dik3byI2RDcPC7tkxkwA2bADJgBM2AGzIAZMANmoCsYsCHYFcnkQJoBM2AGzIAZMANmwAyYATNgBjaPARuCm8elfTIDZsAMmAEzYAbMgBkwA2bADHQFAzYEuyKZHEgzYAbMgBkwA2bADJgBM2AGzMDmMWBDcPO4tE9mwAyYATNgBsyAGTADZsAMmIGuYMCGYFckkwNpBsyAGTADZsAMmAEzYAbMgBnYPAZsCG4el/bJDJgBM2AGzIAZMANmwAyYATPQFQzYEOyKZHIgzYAZWCcDrRvptp6v0xs7NwNmwAyYATPQlQy47evKZGtvoG0Itpdvv80MmIH2MNC6kW7reXve7reYATNgBsyAGdheBtz2bS//XfF2G4JdkUwOpBkwA2bADJgBM2AGzIAZMANmYPMYsCG4eVzaJzNgBsyAGTADZsAMmAEzYAbMQFcwYEOwK5LJgTQDZsAMmAEzYAbMgBkwA2bADGweAzYEN49L+2QGzIAZMANmwAyYATNgBsyAGegKBlJdEUoH0gyYATNgBsyAGdhJDLCiIZ3RKx1Z6KK+iHDeetQtixkwA2bADNwJAzYE74Q9P2sGzIAZMANmwAxshAEMwJyAHtJ6xDjkd01YEMpCpeVY1Dn3LGbADJgBM3CHDNgQvEMC/bgZMANmwAyYATPwNgayuoJRlxGSQlrA+EPvCKOAuOFeOOI2PMNoYEmoLgJjkHOuYQhynxHCcI7ByDlH3HHfYgbMgBkwA6swYENwFXJ8ywyYga5lAEUzSOt5uOajGTADW8MAhhzYI+SFQ0JBGBYw9DhH98AA3KhgAGIQYhzOCRh/lxbPOc4snutgMQO7lgG3fbs26dcecRuCa+fKLs2AGegeBlAUg7Seh2s+mgEzcOcMYPBh7AX06LxXwOAbENAx+gVGA7mHe65thoKKIRn84f34jUE4KswLTCvlCDAMMRpnBY8UigTLrmDAbd+uSOY7i6QNwTvjz0+bATNgBsyAGdhNDGB8YXQBpnQOCkOLxxEd9wp844cxGAy1KIVrPRKGARMJLgSbLNG0DnGBJOSovuQrQOZ6IvV685lYtzEuuZLlkv5jeAZhtBCjcEIYE64KjBzia5hqikdWlEWCxQyYgd3LgA3B3Zv2jrkZMANmwAyYgfUwgB3H1E6mezLyd0RgNA6DEH0C4wwDsGn26diUgWw2um9gKMrLxWg+H2VkFRYSmagvm46yMgj7spkoL+uvTw5S/E6ko7IswRlZeMVSNZqrV6I5Hcv6PV4uRuVaPZorl6NiVW5KHOvRM2Njt8xKvZRwhPBgqB4VMAInBUYKTwuMEl4TbAyKBIsZMAO7kwEbgrsz3R1rM2AGzIAZMANrZQDDDmDwMcUzjAAe1DmGXxjoazpitC/dNAUTUUZ3RjOZ6NhAISqkUtFeGYIc+2QcDqRkAMpkG8pkdUxFQ7lslNWxL5WNKjL6pkrFaKosI7BS1VEGnwzCiWI+mpMBOCUDcK5ajSZLc003AzPZqFqrabivrmdvGqLVep1wMTqJYPBhtLLq6Pji7ykdw8IyjBBazIAZMAO7igEbgrsquR1ZM2AGzIAZMANrZoCpnRhTxwVGAO8TMAQZFeQ6OkRz+mdzJC+djh4eGWgae0/sPxgN5zPRI0PD0aCOAzLuUglZaImbakeWpxeFiaEJ7i3+TjanjUbR/kLm1ijfzSmhqeZoILZbTa5vTgmtRzL4onMz0zISy9EzN8aiV8cnojNTM9GFuWJ0fmbmlh/ynjgQ9vcJTB/FIMQYfFmYFhgltJgBM2AGdg0DNgR3TVI7ombADJgBM2AG1sRAGAFkNI1plnx/hwHFwi9cY2QwxhGje3lN8eQ4kM5Gx/oGoj0a9TvRV4iGZACe6Ou7OfVT2sbN7wL10LISzMAf3MS4XCqFprn4VtUFQzChfwPZYjS+UIxKGhLEUOR9eFHUyGGpWo+nSqV4cdiPkUFMUaaLIsSPEUNus6hMGCXUqcUMmAEzsHMZeGttunPj6ZiZATNgBsyAGTADa2OgT85YffMRgWmg/MZwwjJrjgDybd9+GXsfO3Iw+tjhg9HJvsHopL4DzKYxyvjWD5sqpSmiWz/jkkAxerhXODnQp5FCjRbqWrl28/vBb164GJ2bm4t+9bkXo/FiKZqRYSjBwA1TXPnWkYVl+IbwnHBWYIXRpkMdLWbADJiBHcmADcEdmayOlBkwA2bADJiBdTPAaB8Iq39iADIVFKMpgfHXo+mfo7mcRt+y0QkZXY9q6iejfvvzBU0FZaCQkT8G2sJoXjg2b23JnzDSyJtaRxHz9UyUk2F6VOHMpJLR+/bvjW7IEDwzNacFaMrxWLEYa50ZBCOXUUICTtxZUIaFZPiekHMvKCMSLGbADOw8BmwI7rw0dYzMgBloWbZeZDRHMEyKGTADqzJAOTkgHBdYBAbcEgys/YWCRtyGo7908q7o8GAh+vDBg1H2LVpEmGl567FtPcFAzAvvP7i/GY5PHTscTWj10c+dOhO9oFVGf//Ns1qNtNacOioHGL1gn/CA8LTA1hNnBKaLWsxAtzHgtq/bUmwbwvuWKnwb3u9XmgEzYAa2goHWHvzW8614l/00A93MAKNhjPqxJQTGH8YgBlFzdA1D6vG9o83Rvsf37osO5grRO/cPN7/740EW5rw5AsgTnSssNoNh2KeVSt+zfyQ6qmmtB4Xr88Xoe9cmtLDMTHSlWAz7FKIbMV2UqaOMGbIpPSOEnioqEixdw4Dbvq5Jqu0LqA3B7ePebzYDZmDrGGjtCW0937o32mcz0H0MUDbQAzD8WBGUzeDZd68pWe0BUdDWDh/RSNoxTf/8saPHZBDe3OsvuPnBeis/uNKJZxiBTG1lBPP9+f3NlUYZ0TytVUWj6NXm2B+GoNwlZDQyy/SogOHH1FBWFGWFUYY8rVyLBEtXMOC2ryuSaXsDaUNwe/n3282AGdgaBlqVtdbzrXmbfTUD3cUACiKjgHwX94TAtgoYgewJGA3p+7/9PT3Rf/Lg/doIXt8B7h3RFMu0vgvM6Mu/enPUDMOqm4XQs5H9A+m+6JeeeCR6dWwiOjU1FX3tzfPRVy9e0Sqj7EjY/HbwpJyy1QQc3RBkNTYNxM6aB6tAWczAEgbc9i0hxD/fzoANwbdz4itmwAyYATNgBnYqAxiBYXEUjBu+icMgzMs4YkAs6tcG8IcK+eidI0PRA8PD0aG+XMsiLN1tACqeTSGeWUUlK9u3T/ElVgVtZn9mYkaG8ER0Q1NJtak9200wWsoCOnsEFGvOMQxtCIoEixkwA93NgA3B7k4/h94MmAEzYAbMwFoZwAhkzzzwIYG9AQF2UHxCewCeHO6LPq0poJ+++3BzY/i89gfcGaafYriKHOObQRm/hwuK//Gj0a88/1z0sjamPz8zx8gguhLfT7KiKAbhdeGPBd1qQgeLGTADZqD7GLAh2H1p5hCbATNgBsyAGVgvAxiB2HRMCWVjeEYDOU/qYtynj+f2F7JaRKUvOtyX13YQeX1Pt/R7QLneocKqqGC0J63hvkJ0tKegFUXL0WS5Gi1UKnGpXmcLDYQRQr4bxIDmyOigxQyYATPQlQzYEOzKZHOgzYAZMANmwAysi4GwR+Bjeor9FMJIYHNbiE/ffTT65MFD0UcOHo5kD0aMBO5G4TvIHk0R/Tvvfjy6IUPwHzz1VHNU8Nmx8UjGIKSwmA4bJn5E4HvBUwIjgxYzYAbMQNcxsDtr+q5LJgfYDJgBM2AGzMCGGWAkkK0QGAVkWmjTCNQImKaD9kUnBvv0PeBodPfQQLRX0yORbtgSohnQTf7Dt4MM/bFnIiumsmXG3vxMdL1UisYXyvFUqcT3lSyqA5/Di8cpHb21hEiwmAEz0F0M2BDsrvRyaM2AGTADZsAMrIcBjEDa+gcFFobBeGmuDjqYTUf/5TsfjU7o+7gPH9nfHAXEAGRvwN0ubDPB1Fj4uVaaiyq1evTqxET07WtjbD2BrTgqsNE8ljObz08KFjNgBsxAVzFgQ7CrksuBNQNmwAyYATOwZgb4LpAFTtgaAjAamNZ+evFDWg10v1YDfff+0WhPNtc0AvlGDtmto4HNyDfjf5MHfhdkMu/VTNCfOHEsekYjp5fmStFUtRyPFYth4R30qMsCxjXGYFmwmAEzYAa6ggEbgl2RTA6kGTAD62QAJS1I63m45qMZ2C0MMHLFXniMBDbnfebS6ejxPSOaEjoQPTI6tGu/B1xrBihoe4kfOnE4GtHI6dfOX4ouzSQiGYI8zlRbcEBglHBesCEoEiwdwYDbvo5Ihs4OhA3Bzk4fh84MmIGNMdC6kW7r+cZ881NmoPsY4DvAu4RjwmEhwzjXyQFtEaGRrV94+L7oYL6gvfR+MPql25ZlGKhrT8G0eDqp7TX+rhaReU6bz/9PTz+jVUVLUVEbz0swtA8J/LgmjAteQEYkWLaVAbd920p/d7zchmB3pJNDaQbMwMoM0OsZej7DsbVu44MntF0QlDM3kCLDsmMZoBwwVZFpoWwV0RwJxJhhMZiDPVogpm+wuSCK7km8N/pNHpb/ywIySJ92oH9gaDgq6nvBoZTolYG4aAgyKshKomwtMScwRTTUNTq1mAEzYAY6kwF/Ed6Z6eJQmQEzcHsGUHaZjsXIB98+MQWO6W8sjX9c+HGBOu5JAaU4GIPBCAxH3bKYgR3DAJ0gGH8sDPOEgHGS2pvPRge0N97feOeD0Y+eOB4dHeiJUvHN/pI4dlEQR7cVKpBMKo56ZAQeGchH5WotOj0zG9VkEEqoj9iXEe4vCYwOmliRYGkbA+RBOiTo+Pk5gfz3m8K0YDEDyzLQ2mu+rANfNANmwAx0CAM0ctRZGHfhSIPXo+74HrV+PVLH0plUKl9qNPYtLG4AnWo09shxUt30KS3xNyv3fNxTksVYGb/5PQ9aHEqbe/BFgqXrGaBsYIwENCO0P9cTHezPR/cNDAkDzSmhu31RmPWmNCODTKUdzdejJ/aORi9riuiefD66MjcXayVR7EQ6pKinqJdYUbT5IaGOFjNgBsxARzJAg2ExA2bADHQ6Axh/jOodFYZ0clxdnYVGlDisLvh6j5Z536fxDeZnDSZSqURcH7hab/TUokacjBofXGg0ipPVanlStp4swTgb1afqyeRUqlZ7TRYge4CdF5jShUFoMQPdzADF4BEBQ7ApGDD/+aMPN42Xk9orsKApjpaNM5BXfXNyaCT69IlSNKLvLH/thReiM1MzeEgdBf93CYzCvCJ43q1IsJgBM9CZDNgQ7Mx0cajMgBm4yUBOh7T+jGq4LjcUpQ7mkomBoVRyX6oRF3JxYjinYY3eKFEfVod8TrM/BzKJuFpr9KTjinZEa8QjiWRvoxGlJtPVqlS1eD6qJ+uNerpRj3M3oor68ut909UqI4aMFt4Q6Mln9T9P6xIJlq5hgJEoDJEwPZEp09FANhsN5jLRCW2QfqTQF/WlE9oewoYg3GxUmiODepjFdh4eqmr7jWx0JVWMS9VqrHoKvYop6hzpwGKmgesSkWAxA2ag8xiwIdh5aeIQmQEzcJMBtFW+9xuUNvWxTCJRGE1k0odTydQHcr35fVEy8b5sPs5WE8l0FKfkuIEmjEw2ask/qszx5VP8sUwhXYgStUwUx5Wo0agk4viNWrn3TLXU++TC7ODleqV2OsEe0dU5zeP6Fo8L7smHSEs3MUB5CfsFjuoco1DTQPu0V+D+6OToQHSwr3mJy5ZNYOCEptgeFn7rjTPRVL0WvTk5w+Ix6FUnBIYInxOolkqCxQyYATPQcQzYEOy4JHGAzMCuZwCFtlcf2QxqJPBQKpnsP5JM9+cTydzxRiZxIJlOHEukk8NxHA9qrRitFhOzGqIk2IHRQq3RXEWGS72NhBZ3SMbZOBHVqnV67KM9cTJRTqSiB5LZjM7rPclkZqpRia/UKvtKtVqPhgPnF26OCjJCyNQu9+iLBEtHM8Do05DAlFDOE2wQP5zPRfcxHTSR9kigSNlMSSSSzZU5jmp/wbGF/ujG3AKGIPUQi1hhdYe0YG9B1yEiwWIGzEBnMWBDsLPSw6ExA7udARTYZD5KPZqK6u/NJVIjA4lG9q/27E3tj5PxE6m8FK+m0XeTJ6y6lp+3yEvGcXOCpy7UOceZ3IYpcfcmshH4WLovVdPzr5aL0ZuNSuZX565/6Hpcr9aqlXdpBPHCdFT7gh7l20Gmi1rMQKcyQB5ntUC+DWRKqD6UTWgaaDp6z7790c+fPBkN5t3ci5dNlbDYzk+cOBE9Pjqqjebn2GietIBspug+IIwJfC/o749FgqWtDDTbvra+0S/rOgbcMnRdkjnAZmBHMoA5l5YmezSVSh09HKeO7kum+p5I9qT3ppOJBzSa0atlXzDmljX8llJS01eBi5LgXDUda/o1nw83Fo9xuR6NpDSyKFPvs9nBeDJuJJ+qLBSmG5X9z5YWPjAX1c6oO/9NOadX3wbhEv78c9sZoOzwTVqfgPGBQRgNZtPRBzQl9MRgobk4DI4sW8PAfu3NmBHBJwY0MlgqNg1C+p30NqbqUhexiigriNoYFAmWtjFwqx1s2xv9oq5jwIZg1yWZA2wGdiQD1EXa2Sx5n4YE371PUzUfS/Zkfzo7kDyRzt4a0duKmGv+nFYcFdKp+GQ6n5yOqolMY6r3bCOVf7lWGm40ktlyrcaoIKuL0rPvxnUrEsJ+bpQByg4GB1sXMBrItMRoIJWLPnr0cHRyYDhilctukbr25Ks2GrFmd8cL1WqiWovjeqLB9gwqebU4ipMNzRZQiU03UslGI6VNEBNxupFPNegmYth/TX1Fm8nH4b6eaCibam7NMVksRRP62niuXmd2A+lCuFhJFCPQhqBIsJgBM9A5DHRP69A5nDkkZsAMbB4DGHl8S3NA2usn7stl9z2YzhXeFRcS70rlkgeanzpt3svW4lOvhg4/le1PXKyV4ry0yu/V5h/9dm3+WCWqP6PnAauLWqFbC5l20w4GaMfvEjAEk0wJHdQqlncP90U/duKo9lppDhC2Ixyb8o5iNU5859qVwTdnZgrfvnT10PhCJT9freaKlUpmvl7L9iSSJX0TXBvOZ2f6M+nSPQOD40O5TOmnT951IZ9K1lP1unaVaf/4J7x/6sTh6GhfX/TixFQ0V2xuIUhAGKU9IZwTLgoWM2AGzEDHMGBDsGOSwgExA7uSAUYvBrTE4Yi+ajq6P84U7k3mUycTqfiu5M2RwGZ/ehup0XeE8UHGGxJx9GC9mrxYLw9qu4qBSiO+OlGrocyxAqANwTamiV+1IgN0pDTLkI4sTNJcOGkok4v29uSjo5qymNwGo2jF0C5zI4wAlqq1xPnZ2dzkQi393SvX9lycm+17cWLi4PRCuTBfreWLlVq21KjlcjIENYhfHVrIThXS6WKxWkv3Z9MLR/p65/bmcqVHRodmZX21fdQeno9qe45SpR71aQR2TvWIRgWJMenDIj7X+GExA2bADHQSAzYEOyk1HBYzsLsYSOjDmb2qhD41msoO/rl0ofCRbG/qvcmeRD6RaLsit5T6EY0MfjLdywb1ibv19eLT5eL936pNj8gC/KJWFL0g9/5ecClp/t1OBjACmXKIAciUUEaeor35fPSZu49omuJAlJVBgqHV6fLa5EzPqcmJvn/69IvvmSgv9J+enjlSqzdSVe33yRRRhT/R0Ke+qhTUPdM08hqX54oHtAxU4+lrYzWtB1X/3Kkzc3f195//nR/9xOcP9fa2fbsGhv6OaDSQlUQf3z8anZvKRk9dG6MfiyHZg8JlwWIGzIAZ6CgGbAh2VHI4MGZg1zCActejj2j6tKj9YE8U9x5MpROjiWTcr20dJNzfVmFkUPsPRnsaycZhrTB6uraQyyZS/Y16lUU5UMD5ZrDztextZdEv32IGGG3C0OB7tOZ8SO23Ge3X5vGjMgiRsFJu80eH/ZkrNxLzlWoSI/ClsYmhawvFocmFct9MudK/aPTVte1nXdMu69otpnle1/eDuqdvCFUw6w2tBVVn6kCjqvOZcrnn5qd57Y8oPDP4mtVwJd9nDmZKzd+yw0kXpr9TsZFO1Bnb3tGlMFjMgBkwA82KyTSYATNgBtrNQF7a64f7k+n9x9KZkUfS+fTPZgaTA9vwTeDtIn5/nI1ORtk4FdcyM6n6wIvV8oeiemlCq8d8Xs+yiIzFDGwHAxgYLEayR7jVqTug7wM/eHB/tC/PIGFny59euzT0+uRM3z95+tmPX5qdO6hpnj2Lhp66hOJqbyo1O5LP3dhT6Jnck8tNHurrnb46M983X6lkL87PjU5VqoXLs7MHMQxHMtnx0WxuSgNy22pkFdSR9UGNCB7sy0dPXrqiOeSsV9xcNZRvODULvvmNseuNzs6aDp0Z2DUM3Go8dk2MHVEzYAa2mwFGMXLS1ob6EqmB+5PZ1Al9kZfTIKBmYcadNsbGyGBT485k4/sa+eT5eql3ss5GFHWm4rHZPNPQtlX51Pstu48BRs1zAvmwOYLO6qB92segL5vp6JVCmyOBtYXUn1y8su/M9OzQVKnSX6zVcxrlU2mLG/3p9ERPMlXcV8iN7c33TO4r9MzsKeRmDvb0zvUlkgtym85poZjJcqnQqKsw6jk9M1vIpBdYUXQ7JZGsR3s1IlusV2+OxtbrYXYDo4JY52xDY0NwOxPJ7zYDZuAWAzYEb1HhEzNgBtrAADbViDAsLem+PZnkwC/mRhODUmALdJxvlg63wobydxK/96d7EvenU5nXqgv7L9XnB9P1+hF9JDguPy8K/l7wTsj1sxthoNk/oQcPCM0N5I/rG7UTgwPRYS0S05fB7uhMOT83kz8zNVX4Fy+d+siF2dnDMuRS+gZQsz/jejaVXPjY4UPfOzkweP2/feLxF4Z6kisuzHSjuJD+Vy+/fnyytJB7eXJ69HBvz1QumdusWmRD5GGMP679G0eVBrlkMipVNSZ40ye+5Twk0Hk0cfOS/5qBLWUgdEJs6UvseXczYEOwu9PPoTcD3cYAXwDeNZhMDj+Qzace0rTLHn3yk61GMYtasKffpsg6NpRf+/vqUbaaaDyaysaZqJH6dnX+7slabUgLx1yVHzYE106kXd45A7TdWHqMBjZHBLWlQnRysD862MOXrZ0pze/34lr85PlLe75+8dKJ6XK5V+W+uTKUvm0s3T80+NpgPjfz0cMHTx/t753LpBK6nVSfEbbT2yWXzNYeGx25MVetpA4WemdG87lSZruHBBVMffgcDWhUdm+uR3MdEtG1m1tJ8NEmnWDX3h4TXzEDW8KAZ6psCa07y1MbgjsrPR0bM9DpDCS1afzdPY3U8LvjnszJVC4uJJOxFoxZXOpik4K/BSOCCY1Y6rvG+NFsITGYzqSfnS7dMxs1xoei+lPq3m9uGrZJobc3ZuB2DIRFYphq2PwYkNGneweGomP9AzenJN7Oh224j0GnXSKiZ2+M79O00If0rR+LwiQ1bNHIJpPlTxw7/OK9gwMTf+WBe8+xJ+DNIC5vBHKvkInrHz16gFH5jhEWjSloNLZP20jwnWA0E0VjpRKrt2KwI+F485f/moGtY8AjglvH7Y7x2YbgjklKR8QMdDQDNEgorL1aBH5/LhEPflRbRRzTFlvpur6vS2zyKqFbMiKoDcEU+HdqFPNwOpn4jUSiPyvjcCaqszQ8ivkNwT2wIsGy5Qyw6AhTDW/N/2Tk6QktUnK0T6NQP1g7ZssDsp4XvHJjuue3Xzt14ntXrx7TCqH7yrUa23XWjvb2njvUV7j+548ffvOe/v7ZbCLe1umd64nTSm5ZvfX9e/dGp7JT0dmZKT4kJq3QuVh1mLpQkwma00R1sJiBLWHA7dGW0LqzPO3UGSQ7i2XHxgyYARhgmfu8FNZ8No5ze7TV9bBGA/UBTdf0WtbTUdyfTsZ7NMG1ECczmoSnmWhNpa45Pc/JbAbaxEBYJIbtCJqiLRa0bUQuGmbbCNYy6iBheieYLJXSp6dnh6cWSn2lWi0rLVVbAcb1oVxuWgvBjJ/oG5g7MdC/0MlbXqyVVk1obW7jMZQhqZpCWtFhBDAKu6beU1gtZsAM7FAGPCK4QxPW0TIDHcZAUtrPXdp8b+8nc4XsvkQmMai1ONMrLgPRYaFvCU5S2mu+Ekc/nO1NXk1V818qztx3NSoX1L1/Wc46SwNvCbdPdxQDjAYOC802vJBNRQOajnjf0HA0pPNO7eF9fXqq96vnLzw2VS4xKqbd4eOapoSWPnXsyPOfuefEuUO9PW3fCJ5wbIXkVOE9sX9E03TrUeZUIirpG+hFodNoSGBEsAtrwMVY+GAGzMCOYMCG4I5IRkfCDHQ8A2wC3RNHyd7hRioh9SjCoNq0xWHaFH2+E0RS6tsf1qdNlVQjmUgmCplalJdW5x7+NqWDX9PccJP2u7m1SUab5+VleGQ1Up3VqpWdJtVGOS5q83ht+J6Zq1V6KvUGo2IspFLRgjClvT254vHenuJOmBIauKem6NOejnmWx3qrcKuZdm+9vCm/8BfAb6iP5nVug1MkWMyAGXg7A2+rod7uxFfMgBkwA3fMQELd4IfSqfjYI+me7AFNC83e0lPu2O+2e8AyFo9KybtU06r98eQRLWfBqqGdOhDTdn78wi1ngGnWzDlMMo1yVNMPR7WB/K31Vbb89et7wfViMfPkpaujz10f26s9AwfYKgIfDhd6L8gIHL97YGBaG8fvqJV3lTBKl7xGaLOR7PRWUwy9ixVEN7u+YLopq5KeEO4SGHlkpZ0vC5eEW0OSOreYATNgBpoM2BB0RjADZmCrGUDpS6lLuvld00gqTozWk7EOW/3eLfOfb5sG1ek+l2zE2gE7owiihAF63t37vmXM2+NFBjAtaL+bBlUhnY4KqeYgW0cSNFUqp96YmBy4Ml/q056BhL0pw/nM9KHe3nGtwlvZCd8FhnhxpHYraHSWEVrNf9CvW9XCW9IOt+sQ0hswtZb0HxDoFGCqMMblXoGFhDhi/M0KKy+7qpsWM2AGdjcDNgR3d/o79magHQygoebV3d8jjaTnSJyOD2XTUbKsq11qC7Km4YHmlK841ooXyUSkAc6oPqgYoeR5s2iRYNlSBuh0oGOlOdg0oCWL+EawU4vT5WIx9yeXrx6/ODuHkXJLHhwavPj+A/suHO7v2ZHbrxSy2kpC32ympWkl9PXj4pAcelcz7W4RsfYT6hfS/kGB+ua9wmHh3QIrke4RMAD5XvnvCS8IGIMeDRQJFjNgBt7OgA3Bt3PiK2bADGwuAyguhcFEOjGo5Qzz6sjWZKmb6kyXqifh28ZkrRYNx6nGrCzBhXqpV7Ytve82BDc3/9i3tzNA5wojQRpIS2jz8mzEqGCnynSpnL40OzcyvlBmBIshrbpG0hsHenum3zE6MjGYzd4aLuvUOKw3XGGEk2MhlYlmUrWoWG1GMxhzq9nt6GYYdkz1BBh4+wRG+hj545zjCQGDEGNQExWaRt/3dfyG8KYwJ3hEUCRYzIAZWJ4BG4LL8+KrZsAMbB4DGquICsNRKjGQSDTYOCy5uOjK5r1iiU9bsKH8kjc0f6a0+8VInGnMJerJa/WoIENwx6x6uFx8fa1jGMDqo4MlkdFG8v0qYc0RQRkdnSgz1Wp6vFQanK1Wbq4WKiNQK4ZWj/T2zr5j7+iMVg7FiNmRktKY7UA6H01qieQWQ5D0Wy2x0M0w8O5ZxEM6PircKzANlPkUTBHFGOQYjMCLOv+W8P8K3qdQJOxyIW9YzMCqDNgQXJUe3zQDZmATGNA+7FFPr0bN+vVdYDJiAdGm8rIJXq/gxRZtKL/0bYl6Q+vANxKziQTrx6CUMeXLYga2kgEMCAwJIEWvFvVp7iGjgp0mdW2ZcHW2lLkyM5efLJX7i9UaC5hEPcnUzGAmOz2YzZWaK4U2VHqWfDPM5vNfOH3m0HeujR15fWrqoB4L9QbHII10MqrpG8O5X/+RT355X77QXHAmkeicQTCtjBoN5BJRvpgIUwXQu6grSD/qi+MCo34PC4yYPiZwn3P44hzjD8OQc0YU8QMeiCjTaq8KLwv/WDgv2AgUCZZmHjENZmBVBmwIrkqPb5oBM7AJDPA1XSqjZfR61Alek+FU0YDAiv42pNzGa2zAgttwXPS02rIgBee1apSoaqsH7V7d0L+b/ofjigFpubGC27pWvkjrM61UFGPsotQBRmosZmArGKCHn7JDHgOyoJJRLpHWNgUrFym52xZR2YunKpWUDMBUpV7PqH+mqXOkkslqIZOZzydTtTCFcmkA56rl5NmZuYHTU1P73piaPhY1VMJUgJvHRceU53QyWR7MpCertVXqlKWet/E3Ec5oHqySh7TDiKOO0JaqTcOOaweE/QLf/bE35PsFDD7ccB/BGwxHJBjCHJlryujghHBFeFHAGOY9wLK7GCC/tHQS7a7IO7YbY6BZKW/sUT9lBsyAGVgTAxhJ+YFGItWvxUIv1Sp7p5K1tJRC5oMFReeWR1zTmCFKzm0luA3H8MB8o5ZXV7kU5UZ0vlE5kI5qlXQlrqIaBbfhGJ5Z7biS2ymZtdVko16tN0bkNYrXpMD3O3qkGTeOaxF42Ogza/E/uAnvCb9XOwa34bia23AvuA3HcH2143rcBn/W80xwG47Bj9WOwW04ruY23FuP2408g/9Ye7TbjwhsSn5RF4p9uUzUl++8jeRL1VrihfGxgQuz8/2y4wh/UwrJ5PzBnvyN/nxqxS0jJiulzJnp6dEbC6XB+Wq1sJwhqJ6dqlbmnMunUmXNwFxrWQvBaMuxFtWTqUQir/qO7/v41o9v/0D4LjJ0HjEqiHFPulKXAOQWbzd/Nv8yEgimhAvCfxBuCB8SwpfXa+Uj5NtwlBe3lfW4DZ6t55ngNhyDH6sdg9twXM1tuLcetxt5JvgfjsGP1Y7BbTiu5jbcC245MopMJwJHvhG1mIFVGbAhuCo9vmkGzMAmMJCQRqLF7ROJXJSI5xr1giynjEYL0tpNjIbrraLv7qLaGnWY4DYcF30qxY1sI6F/UqLm4npvKmpUpVXVmqpTcBuOb3378r9WcDsn7bauUQkd0tK+6NmnAV5RuV3ec181A2tmgDYbYFRgTFzTkrXFrP50nhkoS0cjgmPFcrZYqWaY/KnwNst7Kpmo9mUzxUyDGdWrSpzSJIJ8UmsxUSXo6YVqLdeyBYVGBOOKZht03JRQpsUitVo9odOcagmmepJuYfEX6gqMvcDB4lTfH/CkeysJbPAco4FMDWVEkO+TjwiW3csA5YuOBYxA6olmedPRYgZWZMCG4IrU+IYZMAObxYBapjiXqMUaEEzOVWv9Fc1mK0cy1lpGCcK7NG7HR4QoOreV4DYcwwNSQKV4xkk2rp6p14a0MEVNIycoTo3gNhzDM6sdV3JbVAQqTSR6FWBGa+YFFDzCTyO8pni0uN3IM3p8zbIR/9v1zJojIYftCtNG3rOV8QgjgqwSyejRWV7GgiTp5kYS/OocqdZq8fjCfG6uWuEDRrhsSi6ZKI/mMnO5jJbSXEGO9fbPf+rYkdce3zNyYaJczTf4jlBF7HOvv/7hsWJxlPKmEcHannzP+IF8z0Qm6rwFZ0q1RHyjVM6OLZT2LdQadBTxrSPf+2EUBj6Cwk7arlVwy/OQguJ/jxBGGF33rL/eFX1rlo3UCe18hnqB8hbKXMhna46gHe4uBmwI7q70dmzNwHYw0FBXdW2hnmxU40Y9Hyfm9AFMVYZgWRrLljRSjAjGtboG62K+nZplChkjgs1lajaRgYY81OeOWgGxMq+IXJbXTMW5IFgZ273K2Hpy2HoVxGAI8g0ZI4LNkbBqvRZVhE6TsmZ5F2u1VLlWV/GjSNyUZJyo5VLJikYxf3Ax3Fw8DqST1ZP9A9Mj+dzCnFYdVRzjkvxJx/GtEXe+EexLpYsDGl1MqdtniRcd8VN1T11YUGcU08ZR0jmipDOCR5gxDDHmmBKKToYbhHuk93IGIvmG6+F7MI6MDF4UeG69+Wqjz+hVa5Z2hWkj71lzJORwI/638xnyEvUD5YR0BRYzsCIDNgRXpMY3zIAZ2CQGKmoFF6bjaiVTq1fu7cmcHpFqpNaJxvHtomluUY2O7jVIcBuOi4/ciGq9V6PZ43pF/GCce7knjkuaK1rRzhWajLXofziu4TW3nlnidiJRa/xZNFcrNJI3FJ/v6faY8JxA49uuxl+vWrO0K0wbec+aIyGHG/G/Xc9sZTxQ/plO+JMCo0uaeagPxYrlaCaTvTXHUNc7Q2pRPKURMaaGto7+azpndSiXK2qv9RULugzAysePHxjTLPFYU0Hjc9PTucvzC3kZVMwShQdNNI/rh3p7Jo/0FyZTfFncYZJN1ht78/n5kXzmzJX51Dl9xEfascH7jHBFYBTvcYER3g8IGIWMHJJXuYeBh9G4VLiP/sbIIgYgbs8Jvya47lm78bOeOkHUNmU9zwS34Rj8WO0Y3Ibjam7DveCWctEn0KnwaYF8YTEDqzJgQ3BVenzTDJiBTWAAZa+qUYFGSfsIavHQmqax0XCtLCn0pTVKcBuOekwG560GMKPRwEwqWc3EiWoiqJ3BbTiu5VXLuE1p2VCtglqpRo2SIsRoIGB6qMUMbAUDlBsKB9sD8H1YrCwdl5Tdyz/I8rrcIaJtHFTetXn8zWnZLaGKq3w7t+xg101XrCaqoTGMmqaBV2vEMRvT6wccNOsPjfg3+jLpheFsViNuN921vGNbT1tXQ601+GKw+dEg9RL1w7RwTcCIQ3Fn0Rf0MaaVs4IoBiCjOoOLYJQHBEHhhxeewR3fHjLSeEiQvRmNC5bdxwDlIuSJZrnZfRQ4xutlwIbgehmzezNgBtbLQFWT1orTcaQvZoIltl4v1ulec7HCki3My+LpW0bgOr26nfPxRKMxVa9X4ygtpa7CdC+LGdgqBlDuMCYAU78wGOIJZbuBUqudoKsdIKlkujGUzZR70lqzl2K4OHuzUm+kpiuVbKnBlNG1yZuzsz1PX78xom9yw9RJGZlx/eTA4MTDo8MTnfiNJDEry/6b1IhtuXqr7iPtGBU8IzCD4AUhCHwwmsOCMo8JjwoPCncJJ4Sg3MMBxiCjhYwg/pDwsMAiIX8gfFGwmIFm22cazMBqDNgQXI0d3zMDZmAzGKho6KI4XtMmC9IGtd/XzTGNzfB5JT/atKF8VQtYTGokZlrfI1ajCr37jNRYzMBWM4ARyIhgsl6rJebK1Wi+XNaYE7ZB50imkagPZ3LF3lSKchGMmEjbSqQnFxZ6SlpNZa2hHSsuZC7Pz/drP0Ke0YLD2pdBH+fuL+TnD/f1zKfa1su01hDfdMe3m1OlSlSskGRNwRAk7W5ZhjcvN/9yjVkFcPW8cF1gqnkwDjkyAni3wDeiGIf8BkwTfbfA88i3BY8MNqnYtX9ulbldy4AjflsGbAjeliI7MANm4A4ZQOmZn6lXGtrVPa5pCU7WjmBwMKG14btRtP1FM9jaDTuakAk4JvNWah4KmA3BbkzQ7gszZQrkqrInZkqlaDLDIBE2xq0BM51vr7CAy4Henvm+jKZu3gwKimlcrlYz14rFvmKjnAzbLLROpVwu1OMLC7nL2mC+Vq819RZWAs4kkpUjvX1z9w4OdNx07BAvqoo51RHF5szQZsxY1Qer8GYl8tbIwg8dSoApni8KQYg3BiDG4AcERg3xhyOjgtx/SOAaU0zPCtRJ5BMbBCLBYgbMwNsZsCH4dk58xQyYgc1lgOmS09J6StVEVL0Y1VL1qBofSHTizmdrj/hEphqNVyvRlGaFztVqaOAobh2nkK49RnbZRQyg3NPp0It9MblQjYayGhHssAhkU8n6vQO9s8/ms3OaGXoreDfK5eEXbkym35icee7x4b1TfdkEQ4OrGivX5+fzl+Znh6v1elqjgY2+dHpmKJ2eYgsKGYWrPrtdtJSq1aikL4i16mmkcIdgUFeQdrcuhBu3OWJAnhcuC5cEpgX/rsBoIMYhI4IPCP2L5x/XkWmlTwp8j2gxA2bADLyNARuCb6PEF8yAGdhkBlB4WDm0JG2tNFWrZ/PJSgNDUKLL3ScNaa2zWrtwqlFrlONktVRn9mtzOXiOFjOw1QxgFGBQNDeNWNDSocUffIO21e9es/+s5Dmay5X7sulyNpEsacZ2QhPEswpvtt4oJy5MzfS9dGOy997hgbmR/M1tIZaODDKypmcSs1p5dKZcKWgFUQYXG7lkqtSTThUzcVKL0XCp84R0YRGf+lu39qA+JO3Wa7ziPnQ0sdhMECpSFpxhYRlGAI8JJwS+H8Q4xGC0mAEzYAaWZcCG4LK0+KIZMAObzEBNqyBcjhtx4qXawv1j1VT2rmxWm2B3pgJ3u7ijyb1QKqprXuvgNBqXtUzHdc3H2ohyd7tX+b4ZWI4BRtmbo0oYSmPlYtRX0pTQtX9yt5yfW3JtX2+h/ODw8OQ79o6+dHV+buS1ien79ElteqHRSP3mqTfe+7VLl+/9W+94+E8/cWj/9SFtGbE0EDeKC+mrC9XMxdn5wWvzC3vL9YYWAo4bw/n01IFC73g2mVzvyNrSV2zJbz5lHC9Xosly6aa1/oO3EEemfm5WuKl3poQZgW8K0esw/ngP7yCfqPqN6DywmAEzYAbewoANwbfQ4R9mwAxsFQMaKitma/W5G1o3PqVtBKvaGyysbbFVK3puVVy0Xl9jXDrWOJvW1+tsJo9it94e/i0Lnj3e8QyEEcFmnmPaIVtIlHTMC3SvdMIoWQhDfzpT2ZfPT5Vq2sVFRpxE/SeNxHS52hcnio1XxycG+zMpuelZSKdS9ZsbzTdHOZOXi/O5sWIxN7FQKmjF0LSei5kKmkkmtRppskxd0ompXVO/EFNCF5QeS4QLpN9mhhs/AauRLhWyQ1fOvFgaEf82A2Zg8xmwIbj5nNpHM2AG3s5ATd3Sb9ai2syXSzMPHEyn0z+VHUzxMUs3Cgr3l0oz1Uu12vxErXJK87SuKB5v0/i6MW4Oc1cwwBRApv6xn3ykhVeijBZeujQ3o2mUhWhvoXMWjIHNd+4dnv7l9zzxZ7//xumjz49NPFit1VJsA3GtOL//+kK89x9979mD6VSydLAnf00jfOWRbHZmvl7LXJkvjkyWKgOz5XK/jF1tz95IYT3pe8PKvlzPxF1D/Tfy6VRHjnSxbcQzY9eiU+NKk7dWDYzmMoLHSF47xPVSO1j2O8xAlzJgQ7BLE87BNgNdxgD627zmKqXmonp5rlatTkTVZL7ciAeYydQlq4eyWuishi9n1Zk/q02i5+vVqkY6mZKFYr6ZPfxdlrwObpsZwJhgFPqWEcSo4I2FoqzDRDQqQ7CTJl2zaMy+nkz5cF/f7LG+wvmJhUr/dKU8oBFCfSvYSBZrtZxmCKQmFhYGUnGiWqrVMqVaPT1VqfTPVyoF/c5pFLCqqeSVnkxqpieRKh7uK0weKfTO9CQ7cz5BVdN0r8yVm9N2FwcFMcioI5iyybfENtBEgsUMmIHtZcCG4Pby77ebgd3CAAoQ36/MaBn1mZkokX66spCZTGai92zF6qFbtKE8W1mfqZaiq9K/hcq1qFpUJXpG8ZoUrNiJBEtbGGAjcgxBVoVsCmvFfPvKWHTfQDU6PjzUUX0rmsbZ2FPoqXzm5PHLj4yOfO5fvPTSA9+4ePmB01Mzx4vVao8WkcnUZPxdmq+xIbq6VcKaKM1fzT892ouwN5We+cSRQ0+fHOwf+6mT95x7YGhoTjZmR3bAMGvgqStXonMzxWCtMwKIAUjHEfVFR4Zb4bLsHAY8JXjnpOWWxcSG4JZRa4/NgBlYwgCKjzZcqL9ejGvDf1qZfXi6nsu9M6v1BBM3v2FJhI8Glzy47p9btKF8uVJvPFedr79eq1QXGrU3tLn1uIYC3bu/7gTyA3fIAAuAoORhDDI6mClVKvGpyYkon0g2typgZLDTJJ9M1A4WCqUPHTpwoTebKb14ffzKTKWc19TPfFkjgLOVWo8qiUQqjqoaAaznNV00m0yVc+l0ZTSbnd7X0zP7xL6RSwd7e+f35lNlvhXUjFF9D3lrYHTbo8ziPaoX9H1gKTozNRddKWoOxM0hQdKK1T452gjc9pTaFQFwPtsVyXxnkbQheGf8+WkzYAbWx0BdWuvpyVpt4puV4smFKM5+NlGP81JaN80IJDxbNCJYi6P4+7VK/ZnKfGW60TgtC3Bcb2Oql8UMtJMBjD+UPAxCztPKi/GpiSntJ8i2cp0pjAwe6E2WPnvv3RfBty5eG9J3grnnb9wYvr5Q7HljYmYPW0z0pNNljQCW9xXy04cKvbOHewtz9w4NzTy2Z7B12wRFsnMMwFuMayXkqhaJKQtvau7DeEmrht68SVpRX2AIWsxAOxjwiGA7WO7yd9gQ7PIEdPDNQJcxgOb2pjShqXS1ev2S1tT7ndLU4NFEOvHxdH+cjhKb03BtwYjgy7Vi49myRgMrC/OXy+XZWlQ/pbgwxYsRQYsZaDcD2BdMt2ZrgOPavDzz0sR41JfNRGPFBRkfqagv01mLxiwl6MGRgZl7aoW5B4YGpzRFNDlVqryhT+viTDLWyjBJbRqfqua1YXwhlan3puN2La6yNJjr+s0m8k9fG9do4FRUrFRaN5JngZgLwhJjdl3e27EZWA8DHhFcD1u71K0NwV2a8I62GdhGBugR1+p/9VktutLzRq3UH9ejuJSsx0xmS3bY3oIsENPIaE8wbYd9ulGrT9XrC+rjn1ck+NZnueXat5Fav3oXMRBGBPmgrqnwTZSq0UypHM1rAna+giHY2WwM5bIy7rLRvsLO6Uxp7usoQ5y0WLRcgzJOhxGLSrnjqLOzpUNnBnYVAzYEd1VyO7JmoGMYmJcV9Ydj1dKxz0e1H3sgXek5XMtmHkjnomNRZ2mvV6TOXS03oq/UZuufK00WteDp12X90bOPUmcxA9vFAAbGVQF746TAdhLqsKhE3754KToxOKBtJA5yydJGBuY0UfzPrlyLzmhaKN8KSkgnZkIwEsg2M10xsqlwWsyAGdgFDHTe1+S7gHRH0QyYgeZnMzM3pBxp0+XpqUZt7pK2RNOefA2UJ+3Tvu0UMRJIWKbiWuNCrRSNRY3ybLU6q498UOiY5rX9gdx2lhyAbWQAA4PRJb4RJC+CRln59lpZ+bXEJ2mWdjHASCBbeICxYimaEBaFdOI7YoAR6HpDJFjMgBnoDAY8ItgZ6eBQmIHdxgDKEVNE+V7wd19bWDjyD6tXP/Uz2cG8PhRM7otT0f5Ec4Bj23iZ1/Zkl6S7fa480fjthelaudF4RWF9WgE6JzAllDhYzMB2MUD+4xtVRpuYHkp7nhsrz0W/d+p09K79e6KfPnmXLlnaxcBksRpdmpuLvnnpio7aSF5GoQSL8LJAB1IHrm6jUFnMgBnYtQzYENy1Se+Im4GOYIAe8hmNXUxoyuXl65nynucSpYG7dTGtrSQGtA5GKrFJC8isMbqMRk7Xq9F43Gi8UF9oXKtXm3sflut1FuZA8aZn30bgGvm0sy1lAEsD44Jpyiwak9U2DPGNYiUaL5aja9rQvJCOokKHLxqjcHe9kBBXFuai81MzWgKrGmm/1BCnMC3UQ7SBER/NgBnoGAZsCHZMUjggZmBXMoBRpRmi0YJOal8vzT3+jfL8Oz+Z7018Kt2bfG9ciEbavB8aG0E/l6hEr1QWGv/n/Fh1plF/Y6Zef1FhvCTQs39Lw9O5xQxsNwOUofNCvzBYrNYTZ2amokIqEX3r0qXo/tGh6AEbglueRhV1aX393CVtIn8tmiwWw2gg72Xmw1lhQrCYATNgBjqKARuCHZUcDowZ2JUMMLpGb/mV2VrtpTiZnH+jXDr8B/XG0RvJRnJ/Ihk/nszH2SiOezRKmJCCu5nS/BZQNWGxVms8p10Ox6Nq4xsL8/WxRnVqqlF/VddP630o2qwSaiNwM8m3X5vBACNOdFIwXfk+PFQmTV4rl+MvvXleq/Dq4tCALta18frmlh3eZZGFpymhkwvF6OmxsegZYe7maGAYCWTvQIxAjwg6s5gBM9BxDNgQ7LgkcYDMwK5kgCmi4xraKEe12sVno/L7XqlVDl5PNuLDsvyO9WQTI1Ec9WRUZa3FFFvPhvLaGqKk3QtvRNX4G6W5ur4LbHy5NFtdqNcntVjMUwoXU0JZHMZiBjqRAQwOVg9l5InFY5giqj35StFXNUJ1/8iwbEDtKmgj8P9n711jJDvT+773XKpOXbq6+jY9PT03DmdnSS53uRS1F9LrxVpaWY58d5KyAABAAElEQVRiW7F8QQAlsAUHiZEPhoN88Id8SgIkgJMAQYLAsY1AASLDgbBRJDuSLGy8kRcrarm7FEVxh5fh7HDuw2bfq6urq07VueT/P92neTg7M6yeqeo+Vf1/yWfOqapzec/vPdX1/s/zvs8DLMMpW92uWULKiCsbG+ZyY4Oam4UPuCgAOZyc8wPpuVURgcMkMJi8vIdZY53r0AlICB46cp1QBETgEQQY9KLbDcPvY/mTD+LOs7eNPf1+5H+2ZjuFbxTK1rmoYL7iVRFTxrIm7Yf8CfuUhPLIA2h8uEpe62zFH2I+z6vhdvxRFCIqaHTLj+KmHwZ/il4bPYAM9668X4CgklsCFBx8kMLvzjuwadglJGh377Vb5kdLS+b/qZbN1xYXkE6igo9UBk3gX12/aS6vbZjbCBQDEZjOH2aQmMswBYkZNHAdr18C6b3Y7/ba7hgSeEgv6hiS0CWLgAjkgQCfpVN4reGf1t2wO41fsuhGaHbqrltaNI4Tu5b9VBy4NYs56QML7o/Ycm3L6kWx7ewGlgnwHDTEjjH+43gsqxdiDT0028Rwn1g+ljthYN2MeuEdpKx4y/eDW4Hf8eCVxPEaOPcN7MaO3H4MeKyriEBeCbDDRzFI7xN/1/k9iiEGrZVW29xobJqX5k8knkG8ryGihDCAQk8ryx3kDPxgs2laXTZBUuilpQeQ7UGBrg45IKiIgAjkj4CEYP7aRDUSARHY7ch20K3iE3VmmL++EwSV1+L2pbei7vS/Dpqni+jOzkH3zaHfO2tc64RVQMKJOPES+lCBN+MupZ/5jo9/LTtuIjvhahxGa1EQN/BJ00T2ThTeDSKr2TLhNZxrE/YhzkUhyiiM6rwBgsrIEKAKYWoTPry4CCvDKpcxXHG90zVfWlg0c2XPeK57yOGXUIsxLasYDrrR7Zk3lpfNn6ysmWYvGf3JduDfEXoCafx7or8lgKAiAiKQPwISgvlrE9VIBERgt+PEp+p8os55Dl1MgKp8EHaqcOn56FWVSrbtztiuexLpJc7aJfuUFRZKrmNPxZHdi6NgKerF2A6vLD8wUWc97nU+DMLgQzzG30SEmC0sPRN9hPAZCPhubuEcaVCH3cf8eENFBEaIAMUGH2AwaAyNpcLE5ogkau7Ba3WmWjULVQhBl9MI6RnkV0zloARSTyBF4LX1BtJ0tM2Gzz9LSSFUzg1M5wUK8i4X/SsCIpBDAhKCOWwUVUkEROATBNjBYqeqiUft7GCxF1vciaJKHHXPQ8R5t5xeCW9W7a5TKMXxpLGt+UaEMZ8YG1qw7HcsK2pw314Y7nSNCx9hsILXqzA+rU+Ho7LDJhEICCojS4DfFc5tZbqTE7BZpkPpIXDMr1+5ar6LROd//8UXEEV0Bh+pPC4BBJEyjV5kfv/6LfPPr1wz1yGy9wr/hjBozxUY/2ZJBAKCigiIQH4JSAjmt21UMxEQgY8JpAKNnay0IFuXKcGKiDSK6X2mhH6Xi2RqE3FkuhgflwzJ6sYhh2ml0fswZTDg+8xdyPfSp/hYVRGBsSCA5xuJJ51Dqvl9cfHlKdzeapleGJlrmw1TsgvmbK0Cj+BYXO+hXUTqCWxCBL61tmre29g0dxAgZi95PP+W0BPLCMNcam4gIKiIgAjkm4CEYL7bR7UTARF4OAF2cq/vfZyGybbwGJ7rZ2H/GYxd3TdgHPbJYXOpoORSIhAQVMaOAOcI8uEHJ6wx6u0UbJqpDRjU5FvXrpmrjYb5tecumWkXz05UDkSgh1ymH2Aw+T/6wRvmGniuMlLo7hG4uAFbhlEIsh1UREAERCDXBCQEc908qpwIiMCnEHjY0Ks0QAPFHjvE9JLQJP4AQWXsCVCU8MHHe7DzMA9veK0gcH60tIrk513z4tysWahVzaV6TTkGAaifwuAwr91bNpfhCXwPYrCJmct7IpCjC+gBvAtj3lH+rVERAREQgdwTkBDMfROpgiIgAo9BIPUQctfs+mMcSruIwEgSoMf8fRjdfvOwAkSL8y48g2udjnlzfcNc7HUTIYjPVPogwOAwv3frtrkBTyC9q5lCIcghofTAcvSBigjkgYB++/LQCjmvg4RgzhtI1RMBEXgsAlnPX3b9sQ6mnURgBAnQWUWP+UewAuw5GKbQGgdpDuxv37hpzlVq5rm5aVN3C0gtUVJ+QcB5UEE+RvM2hPPltXXz49UVRAndH/XJFVoadZjiW0UE8kJAv315aYkc10NCMMeNo6qJgAiIgAiIwBMQoBDknDVGsFyAURBWmGj+39y8g1QSVeuvXjzLpal5RcOIS7YiyIDCbmFwmCRCKBLQfA9DQt9aW0bOwHWDSKxpB5vDQZnihkKQQ0L3RopiTUUEREAERoCAhOAINJKqKAIiIAIiIAKPSYBzZCkIL8PqsBdg05jEZq0g7u5/+/qb5tJ03fzdzz1jLtanzBlEE1XZJUAR+LvXbiEyaNv883evmCXwYjoOFP5DT+ANGIffclioRCAgqIiACIwWAQnB0Wov1VYEREAEREAEDkKAAoXGuWsUL4xoWYaVIGqsN1fh4ULC+XfW10zRtU3dc5PgMWX3eHYP6AUkrKbfNVtdpIkAnzvNFtJubJpGEKSeQAaDofgjU3oCGZxKRQREQARGjsDx/Es/cs2kCouACIiACIjAExFgQBNGOPkxbA72Iqy0O/9t3fzXr71pfu7covn5s+fMiydmzJfmZ/Hx8SsR0kNsQgT+xpWrSXTQP0DS+JbvUwQSBoUgVyj+vgsjT+QmVTRiMFARAREYQQISgiPYaKqyCIiACIiACByQAB1dFDH0CDLZPNNLUNh49Axy2CM8X9bNzaZZKHlmtVrDvEHbFPbmDI773MHUE7iO+YDLyA14E+khbm02zNrucFByonGYLbmRIUUgPax8X0UEREAERpKAhOBINpsqLQIiIAIiIAIHJkAxyFx3DCDDQCeMIvoyjEFk3FfvLZnXl1eRY3DGfG1hwfydzz+H9BJ1iEHuNt6l4Uem1e2ab12/br4Fb+DVRgOewZ4JducEUuxR/JHbj2Bkx9cSgYCgIgIiMLoEJARHt+1UcxEQAREQARE4KIHUM0iPFoUM00swQsw0PnAxVNRmeoRrEEI/Xl4zO0muwWlTQhZCD97BcfMM+hjySRF4q9kw9zAX8CpSRCy1fYMUGxSB5MP5f/QEUgSuwugRlCcQEFREQARGn4CE4Oi3oa5ABETgpwlkE+lm1396S70jAsePAKOIMvm5A2PQkxMwegYnYN41iKLrrSYCyGwhtYRn/ruvv2IWy1WzUEOuQWwwToUi8Dt37phv37ltOB+wGfQwJzCZD8jLpBDkfECm3/g+jF5AikJ5AgFBJfcE9NuX+yY6+gpKCB59G6gGIiACgyeQ7ahl1wd/Jh1RBEaXAL2D9HCxw/hj2CKM+QY9zJnz1ro7phMF5p++/Y6ZK5bN8zNzZrFWNJ+fnTPVgm2qiCw6ah5CDvW82+wYps54a3nZLHd95AZcM1c3GokI9HvJMFj+w+A6HAJ6BUZGXKeA1t8TQFAZCQK6V0eimY62khKCR8tfZxcBERABERCBoyLAjiIFDiNf0uvFIY+cL8i5g85q23dW8davX75iyq5tfR3zBikGmVpirlw2Z6rlJNVEgakmILDyKAoZBIaF/3IYaAv+vHfX180VCL/fvHoFgWF6hh5QFLKgIKbYo9ePQ2aZLP49GPmoUw0IKiIgAuNFQEJwvNpTVyMCIiACIiACByVAncS5cB/AKIBOwc7AzsI4f9BirsE3VtbMFUTTfG15CUNGy+blhUXz1YVZ88LsDOYQuqa8F2EU2+eq3Gt14O3zzbfeu26WOx3zo6Uls4FAMMudlumGu0IRFeYKxd4d2O0941BQzQcEBBUREIHxJCAhOJ7tqqsSAREQAREQgYMQoBCi8OEwSHoFKQBnYewnuPjQWvV9G2ZuN5vWYq1qasWima+65gzWyxCKkbfrFeQ8QoeBZbBkOSxPYZoCItzzAnIYKIXeKoaBLncwFHRtzdxDaog/Q5J4pMxIPXxc8trpBeTkQLoHOS+QyeLbMBUREAERGFsCEoJj27S6MBEQAREQARE4MAEKow9hjJD5E1gJ9jysCjsNQ/xQEyPCpvXbV6+bb9+6g6GixWSY6IV6zbw0N29my0XzyuKCqdoFM1ct7gtC7DvUgoiniP6JyJ/rDXMNgu8ahn9eaaybm5steAS7iA7awwjWiCKQ9eB1chgoxe81GD2hNHoAORSUn6mIgAiIwFgTkBAc6+bVxYmACIiACIjAgQlQBNE4Z45DRjl/kK/rMA9WhJSym0g1AbNc208EFj2A054H0VUxC0g/UXU9iK6q8VwbqSfoWkRwGQSZYVrCXS9hgLClDDiTCDPsnb6frCb/7M7xK8BlR4cd3HYUcZGN10Hixgvg8QshNVvdwOxEvrm51TQ39xLCX29uJiLwDiKgtoN9D2ByGPxD7x8FH9No8PpS43V+XCG8UBEBERCBcSUgITiuLavrEgEREAEREIEnI8ChkRRLP4Ax1cQ0bAb2HIweQqadsDgE82azySGj5rWlZQg7ij6Iv4KTJKRfrFbNVxBopla0EWSmauoILlODYJzyiqYIkThf9pIANOlQUhxzvzCTQ7fXNpuI7rkDfbbaahu/h9x/SP7ejHpmCa8b7a75LXgnW4hw2sTQVSo8KjkOEU2Hi+4dkF5ACtvrsDXYVRg9gLxO7iIBCAgqIiACx4eAhODxaWtdqQiIgAiIgAgclADFU6qtGGGU/QYOoaQQpHBKPIRYch5hAcMu6a6DJzEybQizJczPoyDjfMJyoWBmS74pOzZeexg66poi5OVMxcPSNgW8TkSk7UDAhaaL/ZjOgUKzCSEIv2Mi+tr4jLn+OhgKuuq34YHEstsxO0gCvzfsE9VJCr17rDvFH9dZf66vwDgXkK/5OU1FBERABI4dAQnBY9fkumAREAEREAERODABij4Oo+ScOgpBCkB6B+kVZFAZrs/BijB6DyHgjLmJKKM3sRsDtLCkgWOg9YxNacb3uI5dmJaiACXI4aWQj2a5SR/gbolCDAB1IBCx/Fi10eO3q/AoFh9Q0qGfS/iMQXBuwtL3ePa9GmBNRQREQASOIQEJwWPY6LpkERABERABEXgMAvQO0qi6aFR3HFrJ5OtlGL2ENIpB5iJkYJkal/DUMeiMlSg3rGTU3N46hnXCo0cFuYVhn11oNHr9PlHg+buvsC4srAsFKicSUqzS08fhnjQKQH5GTyDrSfHH7dJ9saoiAiIgAseTgITg8Wx3XbUIjDsBBrlIS3Y9fU9LERCBJyNAQUWBRUsLv2tTMIq+czCKw9MwpqLge48s9OpR6vmY59dn4fkoAlkXBnuh6EsjnnIOIMVf3wfDtioiME4E9Ns3Tq05pGuREBwSWB1WBETgSAlkn/Zn14+0Ujq5CIw5AX7X6JFLvXCM//IOjH0NDiWlw4+CkK+ZqzAdRpouuQ334WcUeBRy9N5RH6ZLCrvUq5foxr3XHPLJ97kPjZ/xGCoicFwJ6LfvuLb8Aa5bQvAAsLSpCIiACIiACIjAIwlQgLFQjKWFngn2NygEOXSU6xR/qSikAOR79CBSCPIzijiKvlQMpksO90wFIJdpxE+KQBUREAEREIEDEJAQPAAsbSoCIiACIiACInBgAvRMpB49LlkoDtOha+l69jW34X6pVyP17qXL9LP0c26vIgIiIAIicAACEoIHgKVNRUAEREAEREAEHpsARZs8d4+NTzuKgAiIwGAJPCh/62DPoKOJgAiIgAiIgAiIgAiIgAiIgAjkioCEYK6aQ5URAREQAREQAREQAREQAREQgeETkBAcPmOdQQREQAREQAREQAREQAREQARyRUBCMFfNocqIgAiIgAiIgAiIgAiIgAiIwPAJSAgOn7HOIAIicPgE0uiDPHN2/fBrojOKgAiIgAiIwOET0G/f4TMfuTNKCI5ck6nCIiACfRDIhpTPrvexqzYRAREQAREQgZEnoN++kW/C4V+AhODwGesMIiACIiACIiACIiACIiACIpArAhKCuWoOVUYEREAEREAEREAEREAEREAEhk9AQnD4jHUGERABERABERABERABERABEcgVAQnBXDWHKiMCIiACIiACIiACIiACIiACwycgITh8xjqDCIiACIiACIiACIiACIiACOSKgIRgrppDlREBERABERABERABERABERCB4ROQEBw+Y51BBERABERABERABERABERABHJFQEIwV82hyoiACAyIQDaRbnZ9QIfXYURABERABEQg1wT025fr5slH5SQE89EOqoUIiMBgCWQT6WbXB3sWHU0EREAEREAE8klAv335bJdc1UpCMFfNocqIgAiIgAiIgAiIgAiIgAiIwPAJSAgOn7HOIAIiIAIiIAIiIAIiIAIiIAK5IiAhmKvmUGVEQAREQAREQAREQAREQAREYPgEJASHz1hnEAEREAEREAEREAEREAEREIFcEZAQzFVzqDIiIAIiIAIiIAIiIAIiIAIiMHwCEoLDZ6wziIAIiIAIiIAIiIAIiIAIiECuCEgI5qo5VBkREAEREAEREAEREAEREAERGD4BCcHhM9YZREAEDp9ANpFudv3wa6IzioAIiIAIiMDhE9Bv3+EzH7kzSgiOXJOpwiIgAn0QyCbSza73sas2EQEREAEREIGRJ6DfvpFvwuFfgITg8BnrDCIgAodPIPskNLt++DXRGUVABERABETg8Anot+/wmY/cGSUER67JVGEREIE+CGSfhGbX+9hVm4iACIiACIjAyBPQb9/IN+HwL0BCcPiMdQYREAEREAEREAEREAEREAERyBUBCcFcNYcqIwIiIAIiIAIiIAIiIAIiIALDJyAhOHzGOoMIiIAIiIAIiIAIiIAIiIAI5IqAhGCumkOVEQEREAEREAEREAEREAEREIHhE5AQHD5jnUEEREAEREAEREAEREAEREAEckVAQjBXzaHKiIAIiIAIiIAIiIAIiIAIiMDwCUgIDp+xziACIiACIiACIiACIiACIiACuSIgIZir5lBlREAEBkQgm0g3uz6gw+swIiACIiACIpBrAvrty3Xz5KNyEoL5aAfVQgREYLAEsol0s+uDPYuOJgIiIAIiIAL5JKDfvny2S65qJSGYq+ZQZURABERABERABERABERABERg+AQkBIfPWGcQAREQAREQAREQAREQAREQgVwRkBDMVXOoMiIgAiIgAiIgAiIgAiIgAiIwfAISgsNnrDOIgAiIgAiIgAiIgAiIgAiIQK4ISAjmqjlUGREQAREQAREQAREQAREQAREYPgEJweEz1hlEQAREQAREQAREQAREQAREIFcEJARz1RyqjAiIgAiIgAiIgAiIgAiIgAgMn4CE4PAZ6wwiIAKHTyCbSDe7fvg10RlFQAREQARE4PAJ6Lfv8JmP3BklBEeuyVRhERCBPghkE+lm1/vYVZuIgAiIgAiIwMgT0G/fyDfh8C9AQnD4jHUGERABERABERABERABERABEcgVAQnBXDWHKiMCIiACIiACIiACIiACIiACwycgITh8xjqDCIiACIiACIiACIiACIiACOSKgIRgrppDlREBERABERABERABERABERCB4ROQEBw+Y51BBERABERABERABERABERABHJFQEIwV82hyoiACIiACIiACIiACIiACIjA8AlICA6fsc4gAiIgAiIgAiIgAiIgAiIgArkiICGYq+ZQZURABAZEIJtIN7s+oMPrMCIgAiIgAiKQawL67ct18+SjchKC+WgH1UIERGCwBLKJdLPrgz2LjiYCIiACIiAC+SSg3758tkuuaiUhmKvmUGVEQAQGRCD7JDS7PqDD6zAiIAIiIAIikGsC+u3LdfPko3ISgvloB9VCBERgsASyT0Kz64M9i44mAiIgAiIgAvkkoN++fLZLrmolIZir5lBlREAEREAEREAEREAEREAERGD4BCQEh89YZxABERABERABERABERABERCBXBGQEMxVc6gyIiACIiACIiACIiACIiACIjB8AhKCw2esM4iACIiACIiACIiACIiACIhArghICOaqOVQZERABERABERABERABERABERg+AQnB4TPWGURABERABERABERABERABEQgVwQkBHPVHKqMCIiACIiACIiACIiACIiACAyfgITg8BnrDCIgAodPIJtIN7t++DXRGUVABERABETg8Anot+/wmY/cGSUER67JVGEREIE+CGQT6WbX+9hVm4iACIiACIjAyBPQb9/IN+HwL0BCcPiMdQYREAEREAEREAEREAEREAERyBUBCcFcNYcqIwIiIAIiIAIiIAIiIAIiIALDJyAhOHzGOoMIiIAIiIAIiIAIiIAIiIAI5IqAhGCumkOVEQEREAEREAEREAEREAEREIHhE5AQHD5jnUEEREAEREAEREAEREAEREAEckVAQjBXzaHKiIAIiIAIiIAIiIAIiIAIiMDwCUgIDp+xziACIiACIiACIiACIiACIiACuSIgIZir5lBlREAEBkQgm0g3uz6gw+swIiACIiACIpBrAvrty3Xz5KNyEoL5aAfVQgREYLAEsol0s+uDPYuOJgIiIAIiIAL5JKDfvny2S65qJSGYq+ZQZURABERABERABERABERABERg+AQkBIfPWGcQAREQAREQAREQAREQAREQgVwRkBDMVXOoMiIgAiIgAiIgAiIgAiIgAiIwfAISgsNnrDOIgAiIgAiIgAiIgAiIgAiIQK4ISAjmqjlUGREQAREQAREQAREQAREQAREYPgEJweEz1hlEQAREQAREQAREQAREQAREIFcEJARz1RyqjAiIgAiIgAiIgAiIgAiIgAgMn4CE4PAZ6wwiIAKHTyCbSDe7fvg10RlFQAREQARE4PAJ6Lfv8JmP3BklBEeuyVRhERCBPghkE+lm1/vYVZuIgAiIgAiIwMgT0G/fyDfh8C9AQnD4jHUGERABERABERABERABERABEcgVAQnBXDWHKiMCIiACIiACIiACIiACIiACwycgITh8xjqDCIiACIiACIiACIiACIiACOSKgIRgrppDlREBERABERABERABERABERCB4ROQEBw+Y51BBERABERABERABERABERABHJFQEIwV82hyoiACIiACIiACIiACIiACIjA8AlICA6fsc4gAiIgAiIgAiIgAiIgAiIgArkiICGYq+ZQZURABERABERABERABERABERg+AQkBIfPWGcQAREQAREQAREQAREQAREQgVwRkBDMVXOoMiIgAgMiYGWOk13PvK1VERABERABERhbAvrtG9umHdyFSQgOjqWOJAIikB8CcaYq2fXM21oVAREQAREQgbEloN++sW3awV2YhODgWOpIIiACIiACIiACIiACIiACIjASBCQER6KZVEkREAEREAEREAEREAEREAERGBwBCcHBsdSRREAEREAEREAEREAEREAERGAkCEgIjkQzqZIiIAIiIAIiIAIiIAIiIAIiMDgCEoKDY6kjiYAIiIAIiIAIiIAIiIAIiMBIEJAQHIlmUiVFQAREQAREQAREQAREQAREYHAEJAQHx1JHEgEREAEREAEREAEREAEREIGRICAhOBLNpEqKgAgckEA2kW52/YCH0eYiIAIiIAIiMJIE9Ns3ks12uJWWEDxc3jqbCIjA4RDIJtLNrh/O2XUWERABERABEThaAvrtO1r+I3F2CcGRaCZVUgREQAREQAREQAREQAREQAQGR0BCcHAsdSQREAEREAEREAEREAEREAERGAkC7kjUUpUUAREQAREQAREYVQKcq5T2N9IH0OmSn6VzmbLrvFYObUuHt6XLiB+gpJ+ly2D3bf0rAiIgAiLQL4H0D3O/22s7ERABERABERABEeiXAPsZZdhJWGFvnUtaCebAPBi345ICsQij4PNhvfusg9chjEuKPy67sLswvp8KRqyqiIAIiIAIPIqAhOCj6OgzERABERABERCBfghQ0NEo4rikyKOoo7jj+hyMfQ6uc0khmG7LJd/jkvtwnYKOAo9CkIKPSwo9ikMu+RnfT8UivYl8ff8+6X74SEUEREAERCBLgH9sVURABERABERABETgSQhQ4NVgC7Aq7DSMInASRmGYHQqKl/vDQbPr6RBRvsdCsZh6+Ljk51xm38PL5HUqEtfxeg22CeP6BmwHxs9VREAEREAEMgQkBDMwtCoCIiACIiACIvCpBCjI2H+owCj26Mnj8E8KQHr+KAonYOnwz1QE4q1dRWjbtikk79qm6DiJSiy49q47EJ9FGBga4B/8Z1HBBb1w1/0XBMmY0eRAH/9DYcj68Ig8L4eV8nVar22sp8NIeTgKw3SuIVZVREAEROB4EpAQPJ7trqsWgXEnkPUsZNfH/bp1fSIwbAIUW+w71GHPwej5m4elQ0Ox+uhSdV1TLhTMdLUE9eiYeqmYvJ7H0oU6nHE904MI3Gi1zXoUmKbvm1Y3Mg0slzsd0+r1IBQpEvcLv+M0ilLWhZYWisQGjHMJb8EoCt+BcUhp5hB4pSIC40VAv33j1Z5DuRoJwaFg1UFFQASOmEA6dIzVyK4fcbV0ehEYSQKp+KO3j17AdMkAMBwOShH4iU7nfLlsyhB856o1UyvbZrFUM9WCY2Yg/uj3K7qOKcPzBycgRKALZWmbqlswDl6X6BHEAdvw/nWC0Ph2ZLpY74W2aXR8E4SR8SEEA7y3Gvim24vMtUbDtPzI3N5pmh0IRX6eKRSIrOMijHMI6amkIFyGURBuwfR3AhBUxoqA7umxas7hXIyE4HC46qgiIAIiIAIiMOoEKAAp8DjUk2LqHGwG9jSM/Qea5UK4sXCoJwWdi6GeF+vTpu4VzNdOnjCLEINfWpgxtULRXJimbnyyQm8gRWIbYWA+aDbMVtc3f3h7ySx12sZegrprt00Ln3fDkJ5DC97F8p4s5Mm5egLGOYTvwygC6S3kkFF+xs6zOtCAoCICIjD+BCQEx7+NdYUiIAIiIAIicFAC9KAx8Avn3F2CUQxyOCjn3dESD+BitWrOQOidrZXNhVrNPD8/nQztPFGrJh6/modhn7Zjah68fnuCEfs+cfHgbXThKXyuUDc+JNyFet10IRA3/a5ZabXMardnbm42EqH41tI6XnfMEoaaQumx3pzPSK8g5zRSBH4G9iHsIxg9hTQVERABERh7AhKCY9/EukAREAEREAER6JsAhRJFIMUeI35S/FEQpl7BRM7tBnuxDYeAnq+XzcVa3TwzVzevLCyY2WLZTJUHK/xw/v3Cc9MHSWFJNyXdfHNlVne3LLVqEH6+mcZQ0wLGmi7vwFPYcuAl7JlOL/EQuhCE7P/wmtKholzuwOgZTD2E8gwChooIiMD4EpAQHN+21ZWJgAiIgAiIwEEIUE1RW9ED+AyMQpCes9QDaHHe31Pw/F2Yqpq/cemCeQ5DQC/UZ5K5fh7kYxHizNkTatjvSApFIe1CtWy+fmbR/Npzz5p21DO/e/2OWWq2zG9dv27WdzpmA8FnUHh9HO7Ka30WxnQTq7A399YZbVRFBERABMaSgITgWDarLkoEREAEREAE+iZALyCdbBwyyaGgFEU0BoZhPBdDL9wU5vzVikVzfrJqzlMMwgu4WJ00C9WPvXHY9MhLOgTVRV3LGC4aYViqH5TgtawiEA0mOmI4a5GXi/+RlsLCfEIHHkJ6QSmC06T0dDTSS8hhouncQayqiIAIiMD4EJAQHJ+21JWIgAiIgAiIwOMQoJJjygV6AekNTL2AWEWoTQinOQz3/Nufv2QuYS7ey4sLpgzZxHl6FIm5LvROQgxipKr5S+fPJIruVy5cNLcwj/APrt801xBs5l9+cCtJScG8hSgUgJw7SCHMoaLfhbVgFIQaKgoIKiIgAuNDQEJwfNpSVyICIiACIiACByFATyBFD41CkPMBOW+O71sUgMz598LcjJkuwqNWr5kz8KpNDTjwC841tJIIVYhBFg9LRhytQxWejMrm0tSUKSGf4XKna+5ttsy9TouC0EZEUl4/vaNckguFIFUiPYSIVaoiAiIgAuNBQEJwPNpRVyECIvBJAuzApSW7nr6npQiIwO7cP3oBZ2Gfg9ETmBTOBfz3Ll4wz89Om1+9dAmpIDwMD2UcldEuHOLK/IXn6y7s6UTd/YPgC+ZbV2+Y37x21VxtbJorqxv8m0FxzKGx34BRCP4xjPMHV2CJ6xBLFRHIMwH99uW5dXJSNwnBnDSEqiECIjBQAtkhXNn1gZ5EBxOBESTAziEF32kYhc55GEUP/WZxwbat52ZmzAsnps03MAT0AryApT15GEXOWIhBXOvHBR7Cgl0wL8zWEeTmovnR0rKpI9n9lY1N0/CTODHsJ9E7eAlGIci5hO29dSxURCC3BPTbl9umyU/FJATz0xaqiQiIwOAIZJ+EZtcHdwYdSQRGkwC/D5wT+DSM8+CeglHcQBDZSdRPisB//9JF8xWkgvg4LcPoewN5jfcXegiZMeIF5D/8/NycOVHmyFgkFGz7EIJNsmI/ifZZGIUgRSCT0XNdRQTyTEC/fXlunZzUTUIwJw2haoiACAyUQPZJaHZ9oCfRwURgxAhQ8D0HOwG7AKPqsRllcwZDP3/x3KL5JgKqMCDMM9MzplagXjweJfV2vnhizpzGPMiL9aq50WiZ/+PKFbPu+3EQJfMFKZx/BpaKwPXM+vEApascJQL67Rul1jqiukoIHhF4nVYEREAEREAEDpEAXV8c5DkNm4MxTUSBb3LO3GypZJ5GTsAv0QtY9DKeQGxwDEo6/5Ee0BqoLM3MmqpXNNPXS5wQaK3DQ4hlyo9EpmD0DjZgmjMICCoiIAKjR0BCcPTaTDUWAREQAREQgYMS+Ax2oHi5uLd06Qmk949RQf/zl14wZ6o1M5+znIAHvchBbM8hsi8vzpsXe/PwDNbNnUbT/Fc/eMPcYVTR3XmD9Ay+DHsHRq/LGowRRVVEQAREYKQISAiOVHOpsiIgAiIgAiJwIAJ0+nFIaJoonsNB9z2BZyfL5izSRFAETiOtQpqM/UBnGLON08iinh0l6TIIcKFWNh04/tp+k+4/vkWOKdMtrDOthIbiAYKKCIjA6BCQEBydtlJNRUAEREAEROCgBOi94nDQZ2EcEpqIwEXMg1ssl81/8/JXkwAp8wiSYkP4qHySAEXylFs2/8WXXzKvL62a/+GNN5Joonti8By25nzLfwtbhnGo6HhG1cGFqYiACIwfAQnB8WtTXZEIiIAIiIAIMGIg57TVYQswpojw6MpikvjPzdTNuQoSxMMTWMe7FIG7ETSxgUpCgDzIq1KIkjQazXYXQ2mnzIrvW9cxXBSF0XTobaXApjfwIxjFoDyDgKAiAiKQfwISgvlvI9VQBERABERABA5KgL/vFIGMDvo8zIMZDyJwoVw1/+ALmBM4VTNzmBNIsaPycAKcM3ihVoPqK5i/9+IXzOXlNfM/vvkWd6AIpH0etg17Fca5gkkCQixVREAERCDXBCQEc908qpwIiIAIiIAIHJgAvYH0AH4ORm8g57NZHgTNN08vmGeRGuLSVN1MV8qJCJQnEHQeUVLP4BzmUH5lfs7Ubcf8cHHR3Gw2rDvNFvcka/anzsOYfP4mjHMGVURgmAT4EIJeaT7kSdc5DHwGxtEAfMbDocs+jA8oOGy5s7fUOHCAUNn9wyUOIiACIjBuBNgRTkt2PX1PSxEYVwK839kBZCATzgtkJxESEGoQ/379zFnz1YUT5gzy5JXhHVTpn0C1WDSfny2actE1X1ueT3bcE4IU2uyQc85gBXYPJiEICCpDI8CvNL/AvN/4Xec9yHUKP4pBfu/pmeaNShHIJxYUhKm3WkIQMFQkBHUPiIAIjCeB7Byd7Pp4Xq2uSgQ+JsDOID1TnLdGT1XyIOSvXDifpEL4+TOLSbJ0egdVHo/Aolc1/8kLz5k6cg76yDR/ZX3VNIOAnNkJZ4ecS04iZOJ5/f0BBJUnIsAvKx80nIJVoPCewk1VgaKbnzC2Uy44Vj207TrWa65TtY1V/cgE/DsQlaL4a10Tb6wGUdS1w3gtMrFjoq2a4zR3wnAZ7kHOa/0QxrmtqUjEqspxIaDHgcelpXWdIiACIiACx4FAmvSc0UI5XCwJAnOhVjfPzk2bhWoZaSKoVVQel4DnFjBncMqcQ0RRppW40SykQpBgOfyOApyd6k2YhCAgqDwWAQpAPmCgd6+EL/Y0vtATE3bhDPRcDe+dquLjiuVGddfEM5Fr1S2nhG3KgYndOIIQtOy5bhx6Pbdn+aZg9ezIdSN7s2BbDWznhGHYg+s6iXyE41EM0lMobyEgHJciIXhcWlrXKQIiIAIiMM4E2GGk14AC8GkYPQJmDikiZosl8wvnFs2LmN82Cy+WypMTsO3QvLK4YE4jDcc/xDzBTd83cLrwwBTin4U1YPS2qFMNCCqPReAk9qrhG/uFsuPMLMbF6oRt3Fe8iZlZ23E/Uyw6ldjFpFTLcaPYOJFlek7sduLI+WG4wycQ1ldNtVB1rGIISenjTmwVYvsjv1u7F4flm/7O5HuWf+521PvZrSjqQBC+jvNRFN6GaWgzIByHIiF4HFpZ1ygCIiACIjDuBCgEKf7ojaK3gF4EU3eL5vxU1ZxD1MsztUQb8m2VJyBAEciyUPaQisMz84i8OtP0zPquGISjJZmjxSVVNz2Cyi0ICCp9EUge6CDai4cwtCeg36ZO2O75suXOnXZce8q41mcdr3TCdqwXbQ9feBdfdGyFuy3Coh1HVgvDlK/H3cSVeMkp2rNOkjrUhFZkfGzzgWMXJk2vYAVRoW2siZ5tooko7m0E3XtQf5twC1IM0ju4A9ODjL6abXQ3khAc3bZTzUVABERABEQgJUBP1HMwRgykCKQQMV9amDG/eukShoQmupBvqQyIAIPtIJCo+cUz581iqWp+/9Ydc6/VQlc7EYIUgWdgW7BlmDrUgKDySAIUgRh4bL7QM84Xp21rftK2y3+rPFV52iq6L9rlRPiVnNgg7afxoPyg7fqO9sFtSxCNl/Dw4imIyK9ZZQdqz7ka+fFyFBb/952VP7cWRb3VKHgpNtFdqMHv4OiMMirvICCMa5EQHNeW1XWJgAiIgAgcFwIUfVR6FIEcGmq56CNOeWWziHlsT83UTLmgn3twGWhJ025cwPBQTMcy31tZNna7ZWGEaOoNnMUJKQxXBnpiHWzcCFAA8j6Bj9mcmne8Rc+yT1wsuPVpYxU/Gxedc65nnYRETLx/vHpuzZIud1898l8bfxT4OILH8CggHduq4WbtYu7gpGvFLxYq1TUTRh/0fKsTxcHtyH8KoUb5IONDGOe8ci+VMSOgX4Yxa1BdjgiIgAiIwLEiwK4gh4NSAJ6DURDatYJnXpqfNi/Mz5rPTU8fpL+I3VUOQuAbyCn4fKdtvn3rtllu7ZhG22ePmR7aZ2HsRF+HaXgoIKg8kEDyHYYL+UzRtn953nEqn3WKlf/Im3GfKhQtZvukB9CiFBtwr51ewjNOwZzG7Xqp4jlbcez8jrtZfz/oVpb83slCFN2FO/Bf4cxMP8GhoipjRmDAt9SY0dHliIAIiIAIiEC+CbATSRFYh/E3na+THIGX6jNmvlQ2rlJFEMnQShHe1mrkmUV4Bk+3mqbp90wUIXLHbioJJpinUOdcQeZzUxGBLAF+Xzl59+y06y7Mue7EZ5xC4Tmn7Mw5BWvCdnkf7X6pk282Xw2uJF7C3cNZLs8SBfFTBc8OLMu9EHqVVmSmrgft8xCDS9iMUpTDRHkvq4wJAQnBMWlIXYYIiMAnCCQ/nnvvZNc/sZFeiMAYEOBcNHqeKATphUpk3xmkiWCuu3nMXVMZLoFyER4bt2T+yrnz5kylZv5x622z2m6z285E3xweegF2F8bOtIoIpAT42+TRE4hv7d+cdAqVX3Enva96E9ZX7fLu7xY8dn2XKLZiy1gxhnzGYRIrBsM/rQP9/lUhPH/JTFpLTmDP2q77fuCf/Wfb/q86xno1NOEfoS7MjakHGn03Sv43lBDMfxuphiIgAgcnkH1imV0/+JG0hwjklwDFBn/Hp2D0CpoaApicQYTQz85OJyKwRmmYs/KnH63X3m80Jptd38V4SctznLDuur1fOHd6peYV+x5C2fS7zr+5dffEdhC4SI7tYmJeXHHd4Lnpma2fOTnDyIeHVpCk21yaoRbfjdTquz3mFuRLts8cjB1oFRFICVCglUqI53TKFE+eKxa8c07BoQg8+7jjP6H/rDiOrRCKEN8Fmglj5JVIT9n/cgKJCl+ICqaGucZ/sTppLwX+4pWg+2V8z36Ao6zD+v6e9n9WbXkUBCQEj4K6zikCIiACIiACT06Av+GcE5gKQavqFZAvcMY8P8Pk8XQW5q9cXl+rf/fO0rmNbqccRLE9USx0Zr3izldOLmzUvE/vYGLYZXJRm37ofufu3bOb7W4ZostDkuxo2vN20Pe9fdhCkIr82em6qRZdJJmvGs4SbDYTLcpGOAG7B2PnXw+mAOGYF94HvC9qiOL5lVrRnviaUy09ZRXsfU/gEQPikNTPe6452fPjJsTgH0Xx6etWbw73+TWktWBqCZrE4BG30yBOLyE4CIo6hgiIgAiIgAgcLgF2JqdhHHqYDAnl6Zk38OtIdH6xtuud4nt5Ksh7bf3xveXT//rmrS/7CFlPSbdYLi0vVCprzZ7/LmY39lXdIAyt242t8h/cuPPFrW633osjt2K7nTOT1Q/P1apM5n7ohWKwajvmFQjxhXLBLLVaTDLPtmE7pbkdOcdKHWhAOMYFEsv87JRxps66hanPOeXiL3k1ewZzAvPGZKpQMD+P8aW9MCwgtYR9LfB/tme6531jfoS6ruWtvqrPwQlICB6cmfYQAREQAREQgaMmwE5jmkCeGiTpRFbRcTtfrcEb2J+gOsyLoCevHUb2SmdnYqXTmYOYK2AGUzzp2tudqNjEQMq+O8KtXuBsBn5hzfdnGh1/Cm42p+tGrbmwtN6NoscYDPdkJNJUEgXM0OTQ3B4ULiuxd0302tLoBaJHUEIQEI5p4XcVs0rNKaRvmD5fKBchBgtnrIJVZmCYg8wJPASABWNbCwgicxbeys8UPevDsDtfDBzPNuHbcAnygUsy/vkQqqJTDImAhOCQwOqwIiACIiACIjBEAuxQcu7ZAiz5LWeC85lS0Tw/N2fmyph9lLPS6PbcH6+vT276fgUisEhFxJTYM6VS41SltlFynL66wQGmQV1ea9TeW9+cCsOoQBHIS4UI6y0iFdp8qXJkYe5LiCD6ElJ2TCMESCIO94axonr0CJ6GrcDgUFE5hgT4oIOu+jnc6J+dsOz63/emvTkbInA3LmhukXylULGftyvmRtc/uRz0JqH+zqKy/AozAJLEYG5b7tMrxh8SFREQAREQAREQgdEiwE5l6mmy+GNegzewhjmCFIReDlNGcDjnpt8tBGHsoAfJ+tPiguP0qggW4yDSBV73VTAn0G31ehCBjImxeyxAiMqO2/UKzpF1TNkO9aIHQe6Z4q5fMq0fh4jSTasH8IBwTAvvhQpuhNqU63o1yy5SBNYs+MUjYzFXYF5L2bWtGUQjnTKWO2O7xZpxGRGXDzd4TSojTEB/kEa48VR1ERABERCBY0mAeoO/3wxCcgrmeBB/Ly/Mmy/Mzpoqepp20qvM17NeDAct/mhpZb7R8/dzWqAPHC+UJzYv1eurEy6DiH568YPQfmd9ber9zcYsAsPsDwP1LKd7aWp65Xxtgsmvj6RwaOgzM2gDeARnkMORMTUafqJLGdWVXhTWTWkkAOEYFhdPbl6ctQvnf8Wrl+cxJxDCynhRvr6nD2oXqr1CaJu/XJ1yP9/zrd9pb73UDoIzCId0Fx9x3qvKiBKQEBzRhlO1RUAEREAEji0BepfoDeSSQgjJoA3SRZTMVBmDzCBG0jlreDs3BXrI3uh0yr0wzvY94krB7U6Vir5rcZRnf2Wr0/W2u4EHH+K+R8K2MMzUczs12zsyjyCbpIB+vYtmmfXKmCuI6KG4cDh7OD+Qczq5ZJ37vlZsqzL6BHjPF/GFnSgaa+KMW7QXIawKcGPbTv6FoL0nVk/i/g6RpaJsWyXL2HigE/FpB/MKdka/iY7nFWT/GB9PArpqERCBcSSw3znExWXXx/FadU3Hj0AahZLCgmLQlDEk9JWzi+YCUhfQK5XH0gj84geNrblW0N33CDLf9dlqeevFE3ObpWJ/g+MQDMa+s7NTv9duzUBN7XsEi44VfHF+bv3C9CRD2x9Jse1dpybTSHwVHtrrzU2z0mobP4o4lI7tdQvGvhfFqsQgIByTwmGUNdsunCoXCgt/oVRzzkQOHuAM8Ls6gITyn9YWLxY86ymM5f4dvzhZMUEcmO5pTMilGOR9nePBrZ92Zcf3cwnB49v2unIRGGcC2Q5Wdn2cr1nXdnwIUFQw6MS+CGKH8kK1ahZheS07vdBe9f3JThDTK4Z4hFYIIdire15ncaLURvD8vr6rjD661vYrW+3uBIaGJt4117a7RdtBPsKSP1GwjtAjuEvfQXs8g7yCvWh/tCvryV4/o/iw/Zhk8MjriTqoHA6BOail2Uu2651DipEKBlPauCN4L9vugMTgABPKPwqJF9jxRbdg+Vap8FYvPInUEkVczh3sIyH4KHA5/UxCMKcNo2qJgAg8EYGsFzC7/kQH1c4ikBMCqRBMvIEQQQah582l+pSZRbRQvs5jwZwid6PTrflxlIQ0dSEEUddgtlLqnJ+c9NEx7ksIBrFjN/1utdkLJuI4hp60GHCmWyq63YWJSrfmFffV11FxKKFlMO/RNIMecgXY9Ajy7xCN1875gvRaSggCwnEoEIHzFcc5ealYLl2wHAsRci2kZth9NDAoAIfgEXQwRBRDn61nCmXIWav4k173FMaEepsG41xVRpKAhOBINpsqLQIi8CkEsh3K7Pqn7KaPReCxCDyLvWi819i5fw+2AduEDeMpOecHcphhIvnmyx7yBhYMhJBB9oJdL0MOxeAWIoaudPy5Tq+XCMFqsdCoFwtbk4VCt18RyBSBHUQfXfXbtfVuZyqCEKRn8USptHrCK23ixTB4A/XBCnvFF6ZqZqnzU3Fr2O/iUDp1nA+GdKS3hut+0Ynjc89YbuVZp2QXoyjGt3ewDykPySNYiEz8jONgfDPGo/vRmcCE/Fs02GsZ6dYercpLCI5We6m2IiACIiAC+SPAjhAjePI3lR0iikCup8KQ4jBd5/JJPVY8dnIu6j16A5OUEeht5tEbyOFvLD6SyXeDwAv2Er6XMJyz4rqdotPf3EAegyko/CCw/QjD0aKIuQgZfD+uuLZfgaAsmv5TUPB4wyoOGqZqI5UHDK6TrO+PApDvqOM8LPj5Oy5uUVNBAKfahOO4M/AG5vF72i82fucm8RxjFteBa6rgNQPF8L7mPc2/byojRIA/JCoiIAIiIAIiIAKPT+Ad7HoD9u/Cfhn2n8IYHOIjGOeC/RBGcfgabB32ExhDrj+u94pz7OhVg8ZAh6zsmmlEC81rwRBO5yeb25XbzeYEvHllDOdMqopE8puY07hWK3KKUX/lx+urE9e3tiZ2gqAURHEyNBbzDKPTlerqmWp503WYovDoC3vFs9WimS4isXyi+/ZHgbLObCyKQZXxJ8D2LkIpTcCNP3G+4DmXkESiwDibI9oDp8/9lI2rCXtWMY5d/A3C36NoDlfEv3UNWC6+g6iHSh8ERvQ27OPKtIkIiIAIiIAIHA4BduvY02dHCEH0kmAg9BByCCfHBi7DOC/sHozz+yh8OEeM+2WNwrAfb+EnvEoFeJ2YQJ5v5rEEoWUhd2ABQWIKEIH7njAM6eS4zghpIAp3W+0kgMyD6m9jGmBkRTGXd1utyt3tVgUxWDJeNSuGR7SLZPJ9C8oHnWfQ7zF6K72BrCjbZk/1p2036NPpePkkwPbGiG3bwZxYJEiJjIeUEUkSkcd9DHTE18ngNrwoBqjiPEfMgbUwHp2CV5riiNvmcU6vRnscatpHBERABERABD4mwC4dn4L/f7C3YRR5X9gzRvf8JRiF4l+CpdvewTqF4fswehQvw+g1XIN9WheRAjPxCDJfYB3ewOlCfj2Ca51O4Y2PVmbvtJpksV8QPKbYQNCX379x+8Jr95ZO7n9w34plORjwGWIMqGOuNTdn17t+ZTvo7YdHhUcwfGpqYu1Cvd4o5mSOIC+BnWXPdU2tVDStsGfaQdKs7HfJI0hAx6OwradP2gVrJrbDCQzezofP+snhQ9TGZ60iwsfEcAMGU3gKw7+BHPEgj+CT4z20I0gIHhpqnUgEREAERGCMCbDzsw3j8i0YPX2LMHoC6QWkJyxVa3QScZ3CiJ4wCjtuw2FVKzDuy0AzPmwLRhFJT2PaweJvNy1JJF+FGCwnIejz+ZMOwees7rTLrW6P17lfkE6isma68ZXNjbDiuLzWBxYLEjCGFORyudOa3AlDj/MD040huOITXnlntux17GRCXvrJ0S0p0Fn4bzHxB2FtVwiy7ZO24+cqY0+A7e1VHduqwKft4llAmpx91K/cclxTxV+1CRcewW6Sz1T39Qg2aj5/NUYQpKosAiIgAiJw7AlQqHEo6G/AKPLo5ToD+xyMHjyKv3Ro5GmsUyg+A6MHkYUuIw4j5RDTV2F3YH8Co6fwfRg/5zkognY9guhm1jEPrVbGXLQk5squAMHnuSlbvl+43tyZWUEOwWylPtxpnbKsnfiDLRMz4Ev2s0+uM9YGJxZCEEIPckNEC2UHOykYcRddmp3e+Ex9arvfXITpvsNeFiBMZ4oFs+EWTMunnk9EYNJ2wz63jp8LAsmc0AlMFJ20XYtBhMalWEiJMm07dieMEUM0SY3Ih1UqI0ZAQnDEGkzVFQER6IsAO9s0Dh/7JRg9NfQ4pJ1NLvk5l+l7WE3Kg173u232GP3uk60L97///A96L7vP/dsf9PWnHf/+z/s5fnrt3Jeln312t+xv28c5frrPp9UlW49+9+Ex0225P9cp1jjkk0M9GUiBIohL9gRpqZCpYJ2eMu7DQpHAe5Wf0yvIIabsYPE4vI9pF2Hcb8PEdqfmFYI6AlDktexEgbOy05ps+j16PVkg/CzOLULaCOtT50RiUwjARCwiYmiI+BT7IjDGsNCg6Drdc7XazuJEucN5h7unyMe/zCFY9xDV9WMBwHblvTE+iiAfqPNaC/azS5OIqTIZGctBrr/9b35ea9xnvfhNw2gEu2ZZbrFrPATE4X2d/h3r8yja7KgJSAgedQvo/CIgAsMiwI5WKgQZRCINJJF2FLnMrrMe/bx+2Dbcn+VBnz/ovX63TQ76kOOmxzjI8e/fZ1jH7+e4aV3S5UGvI92v32W/x+fxWLh9v/tkt0vXf4L9OdTzhb3jTGHJ391UBGI1Wc++5jYsFI30APK+ZeeKRm/hRzB6DBmy/Qo8DFHFLYVVtxjbyaHxbs5KOwjdzW631gp6FK/w60HZ4dpKBacNj1n6veyr1vAETmJYKELHUAxaBonkA89yeucmqp3T1TKH1OaquA6EIER6ESk+9gpXJARTGuO/ZHt7SG/i1mJ8WwedOzDL7xASymdPZ+MpzAS+gDvwCGLhFcKwgC+zhGAW0gis7/9lGoG6qooiIAIicBAC7Iyzs/wGjB6V+zuJD/rBuv+99HW6xGH2y4Pe44fp++lyf4fMZ+l76TbpMn2fywe9l33/QZ/f/172dXY9exyuZ0u63f1LbpO+l27/sNd8PxVDD9vmIMe7/3z9Hj97jvvrkf3s/uM/7PWj9nnQ8fkwgq46/tbS88XXNLJ50PZ4Oyn8nNtxGy7Twkik07BUCNpBFK7CX3bVdWN4ETkJLX8/6xCBhaVWe2a7163xQqqu05woFLd/9bmL331xdo5C+ZEFfiRukgAAQABJREFUwUItxKWAU9Cy/svXfviX77V2FpGPm3oyni566zNlb4PRRx95kCP6EDrQVL0iWiaiZzd9IMB74e/CHjov8oiqq9MOngCHg1duBP70Nhxn3/a3rAVE+X1YiR3c1yEc4HvLh22XfT+7bYRAvEhV73RiM4k/HvEf+s1v4lDJmGTuk26bLrPHedh6um26TLfzTdxdCYP3t6JwLQxDe++JTvp3P91My5wTyN8vRs6BqXoiIAIjQ4A/SOxw0YvCeVvp0NC0A36QZbotDrPfgU/fS5f8jCXtuPP9tMOfbnPQZXJA/POg/dL3uE26/rjLfo7Rzzb3X3s/+2TrnPJK97v/dfp+uk/6ut9lut+nLXk8lvu3e9B73CY1fs6S7kcRSO8Pf2vJhpZ+htX9wuu8v/A9Gu/h1DOYbsfj8dhljJgso9too//3oONik6MraSL5LjqJ7SgsdfcCvHA4Z6Xg7Lxy8uTS37z09If91JDHCmLX+kevv9EBxIQDLjjGsFC/XHA6boKonyMd/jY2WhA6lqMTOGc0vQe4nkvxeviExvqM9Pa7QRx7XXxP27h1myZ6+HeV33be3umyHzTZbfG0BHsj3Qq+LDjQTswHR3uJO3msdNt0eZDj37cPrqnTjeJSiK8hDsPvZPK97OeQ2iY/BCQE89MWqokIiMDgCKQ/SvQI/hDGuVb0CvJ9/ginS6w+tGR/rNN90o2zn6Xvpct020dtw22zn2f36adu9++fnju7zB4/fT97nvS9hy0ftH922wd9fpDj81gPOkZ6jsf9LN3//uOndUs//7Tj99MO2WPcf3w+9v852ALsZ2Ec8slOYXYfvNwvfGpPYUDjudntYsTQqzDOD2QkUj7UoAftRRiD0bSRzLkLb1g7tMPciQp0FK3b221vdadT9oOgDEFI8WoqbqF9slLZgFdw31PB9x9VPmz7xaX2Zqkd9HCcqAhAHJnWmysXN06Wy5vIaEZmuStslU4UGNSVwX5WYXwgxQdTfwZjEKBPK/ffV4/aPt02XT5q2/SzdNt0mb7/qOVBtk2Pc5B90m3TZXqMRy3TbdPlo7ZNPzvIto+zD48/Sysb64WybdWfLXjuBavI9x9YOOnVCjkLdnf5wI3uezPdFl8Aq2diF4Kz+F7c/TIc5vFztvfDioH+3Cv72z7O8e/bp2nF4c2otxGEwRZvc5ziQMO80zppebQEJASPlr/OLgIiMFwC7Eyz88UOFztfuewsol4q40WAc+FoFGcUf8nwMCzTDiDvQxpf8x6lIGIQGHakeJ9yP3aseN8y4AwF4OuwezB60HhsepQ43w7B+0IOPUx24nt5KSG8E+s7nSKihhbDKHJxwWTBeX09RDrdKdlO4mPop77Nju+u7Ox4IRLJp8fh0NBJt9CZKhbbrpPxevRzwEPahg3pJ2kjbKYGYdvS2K5sT7aryngT4IOgU3hyMYm4vicWnELhnOPRK/zwkn6aLh++5cef7G3biaMi5uR6V+MkRG18yhSW6wWX99zHJT1uuvz4k4evpdumS2y5EYYxPI9+aFltzLvg3y7+HePfNZURIiAhOEKNpaqKgAiIgAjkngA9gX8e9hTsP4Yx6AuNIoidJIofijy+5m8wH1RQ3P0JjIFgfgTjHMDbMHqPaNyHS3a20nVqDCSMCM1axze1Nkdn5at0gsB+Y2V55m5rp47KpiLYIMDEzlP1yZW6x9gS/ZWb29uVN5ZWTiBQzP4EK0wdjM7UyhtPT9Y23JxFC02vCt5Ls+r79Aqy3dhm7JRTFLKNKf5VxpsAR6MUmsbaccKeX8A4SuT8zMip+y6eUUUx0BtjiXeX9338wJd72zKwboydAxM5+LJx/GmMdCpB2bI/nh+fHjddPvCA972Zbpsu9z7ewWzERgSXYBR2cS6OuOHfNZURIyAhOGINpuqKgAiIgAjklgCDoZyAMTDIZ2D0BvA9CkAKOXYKOUyL4i8VdmtYp2fo7b33r2JJsUBx+LChkxQVNAv/Wn4vMh1Y3koQhtbaTqe01e0xJca+ECw6dm+u5LU9N0l82Fe1mwg4s9LuViKEu0h3sDEVqu6V2jOlUse18jk0lHMbIYgTjy3qnT4IYMc8FYbp5Wg5ngT4sKPTxo1AP2AIe/RdTxFIEOmyHyi720YQkBwOSk95uhe+I4gek77iMj1uusx+9rD1dNt0mW4X4o9ZgD9WQYw/VLyn5RFM0YzQUkJwhBpLVRUBERABEcg1gc+idvQG/m3YJRh/Y9kpo/eH4u6PYfT6cVjgNdgtGJ+iUxSmnah0+YnuGz7PFna6uA/7eHYj6BoIJRNFD3c0ZHc+rPVtTI27vt2aXmm3J5kIPj1vFUM5Pz87vV4vlfv2CH643a580NyagYftEx7Bp2uTm89Pz2w4SNC2N/I0PU0ulj0M210PeqYV7V8qV9h2j2rfXNRdlRgIAX5Xm8uRj7C+BQce7Tzepo91oQFU7TLmvy4HQYybmt5tegVVRoyAhOCINZiqKwIiIAIikDsCE6gRPX+nYPOwdGgnPYDsCK7D2EliwBd6ACkAl2B8n8KA4u8ghSKCHiU+iTdtiAza7mHyM0Q0jEOr1e16CBKTVoreClMydjBXLvsV55O+ClzAQ8tO2HO3fb+M6JtUuxTXjJMa1bxid8rzevmSwFB50a7jkg3V7WGw3sexfFj3VOxjVWXMCbCtu7gPQgRyiTAcwNmGeKrgoY3t5u2u7a8lIsx5pWezjWcZO8jpuWPj+wjHN68TxvtbZYQISAiOUGOpqiIgAn0T2Pc+YI/set8H0IYicAAC9P79DOx5GL2C34HR8/cqjJE/78Co1AZV6FFix4tBY0wDoRoaSQDOfP2kI0iKc3unNbPm+1PoHWJKX/JPOFn22i/PL2yUi/0LwZVOp3JvZ3s2iBOPoIVpVoHnut1nZme2vjg/33QTjyBp5KPYyBlBMcg4Mc1Ody9gTFI3CgO2HTWiyvgT4HfVtxzHRz75YMkO3XtuaC4EEIKDvnbM4YPf3cJ5EM9z73cPkT4HfRpTtPFHDX9zIGjxx83CPEGKPw5357B3CcGBAx/uAfP1qzHca9XRRUAEjg+B7I9Rdv34ENCVHiYBzudjh4uCj8M++ZpDpej1Y0eQ3rtBFopKPn2PONSsBbUBzxuUBTVG6nwb5Oke71jwBFpbHX9iJwgqHBoKJRhWC4XtCdftIHIoYlswrmh/3eGmHxQ3/WAyjJI5ghECbuxMuM52IbYwNQr55iG6KL7yUjg3sIXAjW2/iycAEIUfVyzxEOFl5q2PP9TaeBKIw3ADX4GVldA/edtYpdOWYwp4NjLQq+UcQX7R8CXBgRMzSEWxG6t3cGeK8ffmHu7q22EXoW/iDTeKNvDHiF8+3dODw3xoR5IQPDTUOpEIiIAIiMCYEqDgowfwsB46UAhSYKLjFZlGzzebPfycY7wWBQiCFB6pKNqtAyqIRPKNbndiu9urAowF50RQKxS3MEfQL7oxKvrpIpDHiiAhGXCm0etNIjchIyLGE25hu+4Vm2XXDfMkAAE/KWwFXLtpIlDMfYUd5kTE3/e+Xo4xAdwFa1YUF2/3gik37nlf9hDpCLd//z7x/MBBvePb7Z65bvWQPyJexaRdDnHnLa8yggQkBEew0VRlERABERCB3BE4LBHIC6eQSIYXcujheqdtaraLeYKRKUcuRCB14qeLLB5oWOWjbb+43NkpbfXCaicMGTXUcDjnyUp5Yw7BYvo971o7KKx1k1yESVJ6zhGkZxGpJ5pISr/pIUpMv8c6zO3oqb3X3jKr7RbmB37izGwcXn8u6/2JmurFwAjgy3oPIX79H3XbZ5fCoPrX3Al3At/ZURSDXdzbr4ed8K1ep9OyopuY/Ewh+Mm7fGDkdKBhE5AQHDZhHV8EREAEREAEBktgf2goD9tBMJIWPE9tGh7PV9HBPOqCeYGFRqdbCKOwAPGWVAgewRAJ4HcwPJT176tsBx0H8wOLfhjwOEkEFo6ngyewA+8iEskjpH0OCyO4rra6ZqPbSyMBsZ6sujyCOWyvQ6hSE+rfRpRNH1Psoi3cCVV8Xxk0Bk9IDuH0gzmFj+cXHQx8WMag9DtRN9iOwg18mRkUK5ffw8Fc9XgfZXTuvvFuB12dCIiACIiACPRLYAMbrsDoGTQ+fEstBG54Y3nZXFlvHrmryY9i+/Xlj2be2Vif2YvyyWoaF/kDz0/WVk5US32Hmb/ebFV+eHfpxFavlwTG4XEQ/iI6Uao0npqsrZcLiLyRw9IOA/P9pWVzeXVjb7huUkl6ATl3lIE1+hbDyZ76Z9QJMFfonR3kX28EYetPO9vRn4TtJPrmKF3YtcA3b6Hed6xusGaCHYjb66j/DZg83KPUkJm6SghmYGhVBERABERABEaAAAXg3hzB5Ek84zeYjXYb+QR9E2Lo1pEWeDmQ17DY6vWKCFVBL1hSMKQzqhbcbsVJQpymbz9y2e723E0cB/n4Mm5Oy5RcpzdZKHSLiFbxyAMc0YdsgjXMEWywPXbrwEbhhMHUclnvI8J1HE7Ldu+i0Xc6xmp9hG8pvGoxRnDHESYK0kahrFu9eAXewE4UtzH8mQ90+HcoeSA1CvVXHX+aQOYP609/qHdEQAREQAREQARyR4C5CJmgnh0xdjBdv9cz31taMg0MN/vKwoLx8OZRlW7cs97Z2Jq9vdWaRtDC3YR6qEzRsntfnJtZOV+r9e0RvLW9XX1vc3O+iYAz6fXgCXZ8pjax+eL87HrJdXPZg+7CQ/v9e0tmCeI82BXm9AQylQhN3sC0MY/XMsBN8Kdh5H/4G+3NX1gsFGp/0au5NYT13H9aknMev9feDt7o7fj34t6b+BLfQXU531UPNXLebo+qnoTgo+joMxEQAREQARHIHwE6mdK5Znwi7yBlubWEgVqLEB7UhlFUPrLIoRxqNO0V251KqbBYrXzYCaJEl56aKK/MVyvtWsGleO2r1EvF7myptLNQrazhOGX4/+Kia/cWK6XtGa/ku0xDkaPCKKecq9kMeojm2kvW96pH8UfxLu9JjtrrkKvCe3UbX9wGBnD7zTD0bkc9Zw5vnEQ6CXgHc6sHt0wQbweRtRH1gmYU9cLIauBaODcwlw9iDrldR/p0EoIj3XyqvAiIwEMIZH9Qs+sP2Vxvi8BIEWDni8KC0fooskqYJ2i/vrqGICoF00UaifIR/rqXi8Xor198+tZ2N3B/4fy5mwgYk3wHZ0pe9xuLJ1cR6bNv8fbywqn1MxPV9uZTZ29sIvgMrhVzDZ3oz8/Pry9MlJCGIl9RQ3vozd9qtsz1rSaiuXZMw6dOT0oT/96FcalyPAnwe7s0AU9+F2kX1uwo+r86m8VLTtn5W17dfmIv/hATyr8b9cyPetvR+3Gv/VEUNHsmuoFruQnr+7uMbVVySOAIfypySENVEgERGBcC2R+n7Pq4XJ+uQwTYqeQwQ6ZmWIAnym1BdKzDI3h7p5l4ohZrSdaGQydlI7nYqUql0y4FNtI8dOH+S4RgFTn/KAJd2+rbizBddHtmYtLMeD2/Uw7dGMnj0XGJayW3x+PQA2fb+Ql3EARdc3W9YW62WhDkdNruFw6HpXCny1blGBPATdAtm/DHCPY7/Zbb+XrbRN6LUcmaMo51xi4+PpkhJJRnlNAVfMfeCTvRH4fteDuM3oMIXEY6DP7t0W/r47dWbvaUEMxNU6giIiACAySQ9QJm1wd4Ch1KBI6cAL1LdCQkwqqNiDFN2L2tlrEnjVlMNOLh15HC7PRked8V9iQ1mC55Ae1JjnGY+3bhEbwGEXiTg/8+eWLmfaQQHAiXTx5ar0aMQBdPA36M0d3Tf9rtfLVViAuvYKT3aVzEmSe5kCF4BH2IwFthz7yLaKGv+tsh5rtewVAEegLl2X6StsrRvhKCOWoMVUUERGBgBLJPKrPrAzuBDiQCR0yAOoNpCCiSaMl9vtZuW9+9c888M1c3n5+dxtsqh0mg7Qfm1Xv3IARbpoe5gigcwstAMZxTRa/gJ9yEeK1y/Ajwu8vZvAgXGv3uh0H31P/SWvraM07JmyqdcKbhQD/xOJ7BAXoEd+zArGKe65W4F//P7bVoLQreR5TQq7ijb6Pu9AbqPh6T+1ZCcEwaUpchAiIgAiJwrAhQ+NG7RE8TFQc7l7aPaJV34JGql8u7HqmcDZ1EHceycIgqG8BH53kZ/FfarV3+u+3CdmKQmEQZjiUAXdRBCfB24T1x96MwtBth2PY8y/rQBGU3duOpKLIKCIxkHPtQR7REGFGAKcYY1hzHa9B6S4EfvdNr+/AMbuDm5RxXPszQfQwI41IkBMelJXUdIiACIiACx40ABQY7Zh/BKAhPrrba1u/duJWIkf/wmUsG8/LMdDk/c+hQx7EsPeROfA3pO65gfuA1eAOXIAb3CtuFQ+kYYVFFBLIE6FVjonnkFjTda0F38R9u3fvmXyhVrZ9zJpyv2GUzg6HGh1k6mKL4FoaBvh904v/NXw23w3ilHUXf2xOB91AXerhVxoiAhOAYNaYuRQREQARE4NgRYGeSYpARNWM+qm8iaMwmkpkvYybSgimbaaOfemAZWtn1BkZmud0xdyEAmT4C7h56bGlsEraP0kYAgspPEeD3lw90NjbCsOTH8eZHPb982/Eq503BglMurjmOQb55iyGWbHewwpAewKQgsf1WHJodvPww9M1dqxcs98JmMwo2cQNzbiuHN+se3qU1Vv/q12GsmlMXIwIiIAIicMwIsHP2NgzhYcxZGHIKGnMLguR/feuy+avnzppfrj2Fd1SGRYDewCbmBv72tWvmtTvLiRDHuSgCGSF0A/Y+jGJQRQQeRIBeY869W96Jont/2Ot86fuB/5VXnUph0S7af6NQt58qOGbKHk6XfctF7kvoy3/RWo/vhb34O72dYCcK7m5G0bdRJ85tXYLtKUasqYwVgeHcVWOFSBcjAiIgAiIgArklkAoOegQpNthh83wkf76FyJXLnbZpdSPj4dfezVGahdzSfIyKrcETuIrQH2sdH1Fbu2mPme3ATjSjK3I4HT0/KiLwMAK8X3ifNHthuBzY9vWGHc5YYVB6u9iprsdO4SnLM1U8dDhhI/k8PITMoPk4HsIQ81nxx8A0er14E27GO5hXvBWG8Z2gu71m4h5E4DqSxlP88f7lGGfdu4AwrkVCcFxbVtclAiIgAiJwHAiwA8kofnQEcg4PPYOnNnzf+e5tRA+t1czLCwvmQq1q3OIT5CjDQVUeTOAHmBt4FaL7+mbTrH6cQJ6denoCOTeQXlsKdhUReBQBfoc5FPN1RBO9fLnrfzk2nRPfj7afmbScyX+nOGGdwjDvv+ZNWeUoNpPW43XhfezGtBB/Fvnmh0E7/ra/Fd+Ne6ETxNeh+BrIHfgalvybwuGgum8f1WJj8Nnj3UVjcOG6BBEQAREQAREYEwLsrFFsMCjJHGweZiPcu3Vls2H+35t3zF+/eNFUJQSBZXAFOdUMvSs/XF42b66smo0uR/glDkHO+aInhV4VLinWVUSgHwLpdzlomOAqHt18CIfdunHiyatB59Rt2y2t9jbmy7Fl1zGvbzK2Td0uWKXItorGst0Y0jG2zFKIyYXw9v0Zph8Wg27cssMYietxoDjGvD/elNZa0Guuhr3Gugk+agRBC6NDryNEaRt/SDgnkH9PdN/202Ijvo2E4Ig3oKovAiLwQALZkNvZ9QdurDdFYAwIcPjWHRg7b0kHjv8wufkf3Lptvnn+DF5VYCqDIkARuNMLzJtrq+YHyyuYG7gfUJGKkAJwBSZv4KCAH5/jpN/hG7h5+Pt1dz0Ma98LOy9BJdZjuznrYZg3IopGZ52CtYi5g7N2wZmzHGvCsq3IMtZHcc+KIQj/JN6xYssxd3vteCuK4vdCP2yYyN4MQgtjyZsFY93tmPAt/PFYg/F+5d8RlWNEQELwGDW2LlUEjhGB7HCW7PoxQqBLPWYE2HnkfDQmmb8GS4LH3MGQxUanazhMdKPtmxdmp5BOooSPVZ6UwPfuLSdcmTKiAbaJ+t6NAPkujs2hdVSGe28/6dm0/zElwN8vfq93uib8HpYu7qg/sqOojBts4UYclpdN0XOdbrEYW8hBGM9GdlzfiOAGtKxwMnbfRp55BqHp9BzTa5qo3QmCNcwy3EAkI5+GY3IIKIelSgQCwnErEoLHrcV1vSIgAiIgAuNKgB05duwY5CGJM4+5QLHfblt3mi0z7RXNxfqkqcGTxQ9tBY8BhYMXpovogeA9JI1/e2PDNJGqA2qPHXYa24DzAikE9RAKEFSemABFGo3fbZaP4CmswiIkooebv13GXefh/Upt73uPz3gfBndNL/X0tfAOH0zQU828o8xfqPsTEI57kRA87neArl8EREAERGCcCDBy6HuwBdhFGB7+G+e3rl43r967hwTzBfPC/Kw5U60ZL5GK+FTlQARWESX0u/AG/iHmXr6KQDGbu0NC2amm54YikB1trssbCAgqQyHA4cc3Yfx+J891uA4BOI2bbgaq8e/gdYib8g0sOWScwpD3KJfYTCIQDFRAQEJQt4EIiIAIiIAIjA8Beg7oESzDOOSLy/LNVjNuBB2L0S2nykUzX/aME7nyDAJOv4WeQEZb3Oj2zOXVdXMNLJdbTBWYCD6KvlQIUoyn3ht+riICgyZAQUfvXrZYuOko8uj5o3EbBn5Zg6mIwAMJSAg+EIveFAEREAEREIGRJMCn/hSD7AD+MewSDREurXXMY/tn77xjvnOnZv77P/eKWahWzVxZ3QDw6as0/K55Z23TvLW6Yf7J22+nieO5L0UfPTR/BmOkUK6riIAIiEDuCegXIPdNpAqKgAiIgAiIwIEJ0CNAMbgB43DFGlxWhdWdjnGRlPotRLrc6PrmZW/OMBM9i+YM7nK4/9/UE7gOT+CbEIFvgx0TyMM5SNHNQsb0vqYJuNP3+ZmKCIiACOSWgIRgbptGFRMBERABERCBxyZAIchw8NR59Fh9ETbVQMLzbtgz//jNd825etU8P/2KqSGITEGBY4DnwSWCcF5qdsybSBHxP73xVpIvECKQhf/S3oFxXiCH4GlIKCCoiIAIjAYBCcHRaCfVUgREQAREQAQOSoAihd5AzhViknmKlGk/iIrXmw2z2fPNt65dNxdqNfON02eM5yKaqAQhEO2WxBOIQbYbGBL6O9eumbfW181yt2VavV0ViK3ocWW6DkZgJGeKbxUREAERGBkCEoIj01SqqAiIwAEIZJPIZ9cPcAhtKgJjQYBDFmn0WFEQViFjiksY2tjo9cz//cF189LsvPnSwiKEICPQcxOVhABEcSsMzGq3bX772k1zDeK56QfZUKAUgldhHBrKADEqIpAnAvrty1Nr5LQuEoI5bRhVSwRE4IkIZOfoZNef6KDaWQRGmMA91J1RLSdg/E5U/Siwr202TS+MzG+8ewVicNa8ODdvinYEUXh8uwf0BC61uqYZ+OZfXr+FYaEtc6vVTILD7PkCGQyGw24/hHE4KCM1qohA3gjoty9vLZLD+hzfv/Q5bAxVSQREQAREQASGRIBCkPMFOUSUecc86B33eqNprbba1kbLN63gItJKVE29WDBz8IYdx6TziK5q/CAw15ub5k5zx/z6W+9gOGjHNBBxFSKQHWu6TBm2/zqMTDk0VEUEREAERpKAhOBINpsqLQIiIAIiIAIHIkARw7QS78IoYL4Mq8LqrSCwrjeb5lvvXTM/QECUXzxzxvzi+TNIOl821WIRmxyfwtyAby6vmW9dvZbkCbzVaiF34P5wUApAJvHmUND3YEoTAQgqIiACo0tAQnB02041FwEREAEREIGDEODIxjSoCee3MbhJCW+6zSBwrzabFr1f8+WSuYgAMlWbDkTXMNXguAaRiSIH1xaaNryAHYC4CUF8GUFh3lxeh1ewERMYCkU0A+1wrmUaGIapIlREQAREYKQJSAiOdPOp8iIgAiIgAiJwIAIUf1uwP4KVYS/BJmHnIIYcH0Mjf/vqDfPq7SXz9174nHlmehoRRRfhGcQWY1ooBt+AJ/SHy8vme3fumH97Z8k0EUhnTwRyKCg9f2/BOB+QHkF6VlVEQAREYOQJSAiOfBPqAkRABERABETgQASocRjlkiKHni1GF2zDMG8wKiDXYByFoXUTwyRLLnLoteum2iuYuucm8waZc3BUPYQUfSwRnKGcC9hFoJwthHq5hWvl9d5FYJgNXD82SY2cyIbimR5Begb3NCLWVERABERghAlICI5w46nqIiACIiACIvCYBCh06Ol6HVaDccjj07CnoHKsBkTSP7n8jikVbPObV66ZxVrV/NrnnjHnMWT0Yr2WCEJsO7JlFVFBv7+0ZK5C/P2fV66aZaTTWPN908N17xVGAiWf78EYbZVRQvmhRCAgqIiACIwHAQnB8WhHXYUIiIAIiIAIPA4BegXp5eLcQQ59rOwZ0ktEds+PrKVW2zCa5hvLq2YZ634vMFWvaBbKnvHsohmFTBNMCdFAYngfMm4JAWDu4TreXF03d3aaiQhsQgTSQ4hCHhw+y2igDA5DEUivoEQgIKiIgAiMFwEJwfFqT12NCIjALoFsIt3suviIgAj8NAEOfbwOoxBkgvTn9qxI7+CVRsNcwQDSV5eWzTwiiX5tYcFcqk+b/+CZi/AU2mZuBJQg3XiX1zYhAHfMP333HXNns50kiKdAvK/QC0hR/H0YvaRkQ++pigiMGgH99o1aix1BfSUEjwC6TikCIjB0AtmOW3Z96CfWCURghAlQBLFQFHKdOQfpIZyFsb9gNf2edRmetGV41ZrdNoLJzJgL0zUz65XNQrWUeAnLe8LwqOYR0nvJstTqJN4/psZodH3zg7vLZqPbNTc2m2YTyz0RyI3pBaT44zxApoagNzCNrqq/H4ChMpIEdO+OZLMdbqUlBA+Xt84mAiIgAiIgAnklwHlxNA6J/BD2GdgUrATzYEVEFrWuNhr21V0PofXi3Jx5YWHWXKrVzfPTUyaanzZ1t2zKyDxhQzu6dmScveT02H+gQWZSb16i5CD+uOR7LQxdDfDi6sa6uby6ar577yN4AlsY2rqOoaFR2jnmkrtwyCe9frzeuzB6ATkfMN0OqyoiIAIiMJ4EJATHs111VSIgAiIgAiLwuAQokOgR/ADGZIIUSEw1cRHGwDL0FNqw+NrmprXst82rZsnUPEQWLSHvYME1L07P4XXRvDA7Y2YxnPRZBJgpObYpDzBBPSu52g5MGwnf38Sw1TV4KK+sN8xtiL7/v703j5Eku/P7IiPPuu++7+mZnptzkcPh8hJJaQ+uqRW9krjrXQtYGIIEyILhAxYsWxBgCPZfhm3AtiD9sfIfK8lr0caKuyZ3eYqXyJkh5+6Znpnu6fusrq678ozw75tdrzu7Ois6MysrKzLz8zC/eZERv/fivU9k18tv/F7E03ONK8WyPRdYsGigng20t4TenQaqCKDE7kUzPQN4zkxiUCYhjAg0CCQIQKD3CSAEe/8a00MIQAACEIBAMwQkhGRaLkFJ4khCcFIfLI2ZaR0GLUSfWFoqV0WhSapE1pabkOCT5prIZL2hVLr6EpbpdMYWpjehqNKWFC28uxzf7WUpPIse3j52/6s5q9E/P2X1Vl/o4pUrvleyk8zmbYqqRQA/sOmfN0wAvmJrAZ61JSAumK1HDGtFnU4g08txJATnzLR8hqKBEoe3G2AbJAhAAAL9QAAh2A9XmT5CAAIQgAAEWifg1tJ72apQhFBRQWm6E2Z6fnDCrJoKNidT9qNLl03q+d53bYF2W3XQRKDvZSyfGBoycejZW0ez3qS9cTRj+8dtO2fPFU7aW0hTNo10xEzP+c1ZPSu2sHveInvz5YKXtzX/ZvN5r2jRvcW1ope3d3vO2X4JPkUFJT7z5i+BuEHRSQxKQSryJ3F70sz1Sa46VisY7SMJAhCAQO8TQAj2/jWmhxCAAAQgAIGtEJBIkmm6qJZW0LbeSKhomoShooOKCiqvbq+VtXJ7kLCIoe2q+tpSE763ZIJNL5MZytu0zVTJszXqvQmbupm1fXqRy4D5DNq2yTqb0lm2aF/Bs7rsxTSF6rN/C2v22YTe7emeWhJCwb07ybVT0T1tK5epETK3KLymg2oaaLVxlpMgAAEI9CUBhGBfXnY6DQEIQAACEGiJgISVomqaWnnNTL8jJAYVIVRkcI+Z3jS6z0z7M2bVpGf0tA5hNflW3D6b7rNU/V9VQd4+ePf/OpmUpXKl9emeGyN+tw/edlO7bpnprZ+a+qklMfRZilHCzwlE2yRBAAIQ6G8CCMH+vv70HgIQgAAEINAKAQkqCStNrXR6TYpOvyv0llEdlxCUKNQ+mZ4ClK5LmKKTb8K0oEUWb29bZdV9tl9J5ZVC269tnUe5zlX7WftlEnqKVkqkusifIpb6LPXpIpm2SYIABCAAARFACPI9gAAEIAABCECgVQJOiEl0SYBdXq9Igk+/MWbMJAb1ohl9HjJzkUItSaF9tbmmnNYmCTiZXlij3E3pdBE+fdYxnVdTV9UGJxpd7kSlHSJBAAIQgIAjgBB0JMghAAEIQAACEGiVgMSWi9SpDkULJdw0NVPiTKaIn6aKSiQ6oSjhJ2GoY9qnXJ8l4lSHIoC1pjrdMeX6rOOqX/73PDRon0kQgAAEILAJAYTgJmDYDQEIdDWB2qhC7XZXd4rGQ6DLCEio6cUsSnper5EkIailKlRWET6ieQaBBIEWCDD2tQCt34ogBPvtitNfCPQHgdofj7Xb/dF7egmB7iUgAbj+RhlEYPdeRloeAwKMfTG4CHFvAkIw7leI9kEAAhCAAAT6i4DEIAkCEIAABLaZgKZgkCAAAQhAAAIQgAAEIAABCECgjwggBPvoYtNVCEAAAhCAAAQgAAEIQAACIoAQ5HsAAQhAAAIQgAAEIAABCECgzwggBPvsgtNdCEAAAhCAAAQgAAEIQAACCEG+AxCAAAQgAAEIQAACEIAABPqMAEKwzy443YUABCAAAQhAAAIQgAAEIIAQ5DsAAQj0IoHahXRrt3uxr/QJAhCAAAQgsJEAY99GIny+jwDrCN6HhB0Q2DECA3bmfWZjZiNmV9dtxfKyWbuTbgQlzSpmvbZuV+1CurXb7WZIfRCAAAQgAIE4EmDsi+NViVmbEIIxuyA0p68JDFnvHzc7bCZB+KrZqlnerB1CUHcH9W9eAjBtljHLmhXNJAR1DuU6nwaQXhOH1iUSBCAAAQhAAAIQgIAIIAT5HkAgPgSmrSlfNnvUTGJQguznZu1KE1bRc2a7zD5utmfdLKuKvkuWXzH7I7ObZpfNuKNoEEgQgAAEIAABCECg1wggBHvtitKfbiagqaFH1u2A5cNmitJtVYwpEqhoowTgE2aKNn7CbMpM4lPRQaWDZhKDr5hJBF43a8f5rRoSBCAAAQhAAAIQgECcCCAE43Q1aEu/E5AQPGY2aLZgNmc2a6Zn+LaSJAJ/0+xps98303RQCbx3zP7cTAJRovN5M0UK/0ez82a/a6Z2rJmRIAABCEAAAhCAAAR6iABCsIcuJl3pWgKK2EmcSQhKBOrZvGWzVbOtiEDVqxfPKPInEXjCTPWr3jfMTpq9ZzZpppfTKFKovwm7zdQG91nRQZ4XNAgkCEAAAhCAAAQg0CsEEIK9ciXpRzcT0Js7FZWbMVNkTs/nfWQ2b7aVpHolAPW8oaJ7EnvXzF4z+y/NFOnTc4hu6qj8FRX8jJmeJ/ys2WkzTREtmpEgAAEIQAACEIAABHqEAEKwRy4k3biHgL7XziRyCmaKrCmqpTdmShDpuCJwpXVTlGynpkCqjaNmmsKp9kmcaUqm8s2S/OSvskoSauqL+uieKZTPUbMjZhKYOq7poKfMbplpeqjMpTnbkKkOicJxM5Vz57DNvky6NjJxFRsJdYSxQSBBAAIQgAAEINC9BBCC3XvtaPnmBCT0NN1RUS0JmvNmmmopQagpmM+Y6fjDZvpRryjZ+2YSSDuRtIzDcbODZhJvEmkfmEmU1UvyUT8eN1P/lBS1Uz8kUNRPJfl8zeyImQTd62b/g5n8NopMCZyzZmInwagXyBwyWzRz57DNrkm14rV2u5kOqJxYP2n2CTMJQd0s+DMzvVSHBAEIQAACEIgrgVbHvrj2h3ZtAwGE4DZApcodJ3DMWvCimYSeRNafmEnw6ce8IjsnzPSsnMSgftivmL1tJqH0czP5djJJbOw2U3v0h3vJ7Mp6btmdJDEnofYFM4lcCRT5vmWmiOYFM0X4VMeU2bSZ6lVk74aZnvVT3yTuNiYJQUUh580UPRU3nW/ArBuTi4qq7bXbjfRFwlf8NFVX3xkJ9L1m75mdNtN3hgQBCEAAAhCIM4Fmx74494W2bRMBhOA2gaXaHSUgAfhlM/2Il5CRAFIE5/fMJI70A18/9vX9T6/bm5YfNjtrpkhcJ/+Aqh37zNQuiUIJsotmTrBpn3z2mEmQqB/yV8RO4s9FEBUNVLvVN/kdMFMZCUH1T74SgoqObkwqp/06t0ShzimxnDPrlyQBLQGcNTtmpu/R75gpSfyJ4YdmEt0kCEAAAhCAAAQg0NUE9OOSBIFeI6Bo2REziRj9sP+qmSJs3zWTuDpjpsjg02YvmUkwHjGT//9jJuEoPwmiTiT9OzxiJnEnAaaonNoogafPR8wkYP++mSJ8Eiia2vk/m503+5GZIn5OvErcvmD2qJmEsHxfNVPksGxWLyVsp5hINOqc6rsipf0S/RIzRVt/zWyX2ZfMJPh+YnbSTFN1Z9dNgpsEAQhAAAIQgAAEupoAQrCrLx+Nr0NAgkaCTj/qFRnTZ0Xa9NzbOTMJwl+aSSxK8Bw10zFFvySy9AIWRYRUrlNJ7Rgz07l1Xgk3CVGJNvVF7ZJI/JiZpixKpMnnTbOLZmfNagWe6pCYOWCmf+MFs2tmigbqmMSx6lUZTQOVsKndr22JSpUTGycwbbPnkr4j4q9psJNmR832rueXLFcU9T2zt816mYN1jwQBCEAAAhCAQD8RQAj209Xu/b5KwCkCJrG0x0w/3JfMFDl7xewdM0W4JHwkiiSi9G9AUbDDZiqnqJgEwZyZRFInkqJRD5vpvGqfIk8SIE+aKbL3H5lJoEiYnTP7n8wkUt4yU19qRaB9rPbpKcs/aSYm82Y/MrtidtzshNl/bvaymbh820xTQhV1lOgUE/Vd57hu1qnIqJ2q4+lRO6O+K79ndtBM/dW1/wMzcROzvBki0CCQIAABCEAAAhDoHQL6wUeCQK8QkKBSpEviR5EeTW1cNtOPeU33lChUhEtJQkfbbvpjrZjq5I9+tVP/DiVg1X61SZ8lTiVQJFAl0BThlDhUX86bXTVT2+uJNEW4VJ8ijErqqzhINM6s2xHLVYfqEy9FARUpdNsqIwEk8dlLSf2UiY9sn5k4i6/4L5q5mwT6vsg6+X2w05EgAAEIQAACEIDA9hNACG4/Y87QOQJTdqqjZhJOEna/MDtr9pbZR2b1RJPtrk4NlDjQD35FgxQVkhDa7iQRqLYqCuemqp627WfM/rGZpoI+Zfah2c/M/oGZxJuLVtbrjxOVii6KhwSgIlvqk873WbMTZjrnr5g9avY9M4kf+WtKqfwkGhURvGFW7zy2uyuThO6g2V8y+4KZWOfM/qWZngV82WzVTCJYCRF4mwP/hwAEIAABCECgxwggBHvsgvZ5d/SDXs/aKdcPeImba2b6Ub+ZmFEUTJEzRdEU/ZIAktUTAPKR/6iZzlPPR/tcNE3ia7Pz2qHqOUcsl6luCTC1RSJNfZAoU652LZlJ0CliJZFb79y2uxrVUqRL/7YlblVWpjapnISdRKemn0roXTETH/nqOTn1TW1RuxVx1LHNzmWHuiYp2qdo6N51O2S5ruU5M7FRLhbirOtPggAEIAABCEAAAj1NACHY05e37zqniNbDZsr14/4dszfMJJ42S4qcHVs/qEibnpVTFK1eknDYY/bSutXzkYDS+c6Y/WszCanNksTJUbMjZk4EPmLbtUmiRO26aiZhtmYWlSTkJHYkIJVUVoJY7VL+p2ZitM/slXU7b7nOr7bo/Oqn/CWMJBy7UQgmrN0uaVvX+TmzL5v9FTN9N942+1/NdK10nfSdIUEAAhCAAAR6gUDtONgL/aEP20AAIbgNUKlyxwgooiURpFw/6hX1umxWMNuYJHwkluSriJxEksRWVDRI/hJLT5i9aFZPIKn8R2aKLD3oj7DaoKifIlXylfhS+VPrJoGq8x02GzJTpFD9kliVb72kNo6bqW61T+2QyV8RQW2fNfu62SUz8dFUSXGYMhMLCWEJSAlBcdnsXHYo1klMxe23zJzQFbt/babptmfMFDEW827tozWdBAEIQAACELiPQL3fKPc5saO/CSAE+/v691rvJWIkBJXrD6CE4GbiTsLAiUD5y09TOR8kBI+Yz5NmnzCrlxSx07klMHSOqKTjEoISeG46ps6vKOafmP2qmY5LDO43UzRSolZCbTPhommhE2aKNqod8nX+EpFOGJ6zbZeO24bqlhBURFFt1zRU5YpudutgIiGoaywhKL6azvunZv/WTAJYQpgEAQhAAAIQ6EUCGgNJEIgkgBCMxMPBLiMwae3VtEdFgSR4JOw2E4ISTBJYEk1KEo2KEq3qwybplu3/ttnrZv/HJj4uYichJVEYlfTv78i6SagoQvVPzX5h9q6Zyt80+5qZBO7fNDtn9r+bqS31ksRlxkz1ScCpHbLNhKMdqr6URtzGzdT/75udNZPojCpnh2OVNOip7y+ZPW4mYSseYnnB7MdmEoA3zNQ3EgQgAAEIQKBXCXTrTdxevR6x7BdCMJaXhUa1SCBn5RTR0vdaP/Tz62bZfUk+ihCpjJJ8Ff3S9MnNkqJ1ipJJSLy3iZP+8Eo8ySQKo5LEmtorU5J4fdPstJnOIfEicapnA5WOmUnYqM3K69UvMSRTUlvkI4saEDQ1dZ+ZRJT6r0iZrFtEoPorlhL3sgNmB83UH/VbIl8sXzOT0I1iYYdJEIAABCAAAQhAoPcJIAR7/xr3Qw8lArJm02aHzRT1+cAsKronwaAomMooKfL2vllUGQkICSXlTmzZ5n2pUaGRtpIPmanNqleRu5NmEi5K6oMif18yk/h7wUy+z5idMztltlEMSjSqvESrxOIhMwk6nWtjEjf5KIL2CTNFR3W+vzBT/SWzbki6hhKzf9tMYllJvNTvObM/NpOwVoS10WtjriQIQAACEIAABCDQuwT0Q5AEgW4n4ISgIkASPBJHEkQbRZLtupN0E2TYTGWUFEF8UBn5OSGhfDOT34OS2qw2SLBIxEq4qQ0yiUIl7VOUUCJV4k5tVZt3mUn41BOjEm8SPC6aN2jbQ2YSfBv9tV/1SAAqKqnzKSq6sJ67vtrH2CX1Rddabd9tpgigIrzqr6K7y2a6/mIphhL4ce6PNY8EAQhAAAIQgAAEOkeAiGDnWHOm7SOg6J4iQXomTAJLUaDTZhJEmyWVUTROZZQaKXPbc+v/l4gZMdMzjYpmaVvRv0tmEnJOsCiXqPkzs3fNjpvJ93fMzpq9YuZEo21WkyJ6Z80khCQG1UcJJp1LAk9i19X/adv+dbOnzfR84A/MFJG8YCYezs82Y5V0jSWKD5j9ttmTZk+ZidPPzX5ipuP/p5n6ENd+WNNIEIAABCAAAQhAYGcIIAR3hjtnbS8BFxmSuFOSAJQgipra6MooGicxpTKKHEVFEe1wW5KEoKJxEnVqhz6rvYrGuUiebVaT2nPJTGJGPvLdv/5ZIlL7JPqc2FGfJfaum1012202avasmcSg9is6qEja82aPm+kcijhKbL5tJhad4GCnaSpJACoiqv4cNlPf9piprRKvH5qdMxMv+Wm/ypAgAAEIQAACEIAABDYQQAhuAMLHriSg6ZVHzCRulCSOJAgUTdssuTISZBKAKnPDzAkq29y2JHGyz0xiRv8GJUTPml02qycEJdAkbt4zUxlFBtVXibuLZm+YqQ4lTe/Us4Yvm0nQ/ZaZBOM/MpMIfNNM0b/Pmkk4D5r91Oy82b8yU0Qwipsd3rEk0fyYmSKAf2AmVmfNfrBu6p/aLha6riQIQAACEIAABCAAgU0IIAQ3AcPuriKgKJnElcTcB2ZnzCRsNhM08pWIkGDSs2MSTy7qZpsdSZq6qHZIsOrfoUSe2qx2bUwSNmrn980OmMlH+yQKtf2WWW1Sf35s9pHZLjNFAiX+nHjUeW+aideC2bfMFFHT+SUe45QUsZW9ZObaLxH/qpna/oaZrrmin2p7PX62mwQBCEAAAhCAAAQgUEsAIVhLg+1uJhBa4yVuJArOml0x04tXNiaJRk2N1LRB+UtgKRIoIdGppDbo357aLCGo/EOzehFB211NEn4SdxJ2e80UzdtvJvEjYVeb5PtzM0X7HjeTn6aBSkg9aqYpqL80E6v3zfRsnXipHXFK4iTRp6mgv2a2z+xpMwnWf2om8f6yWb2ksi7Vbrt95BCAAAQgAIFeJsDY18tXt01940vSJpBUs6MEFF2bMtN0QAmkOTOJPEXG6kWI9L2X7yEzCUIJJ5VRhKwTSeeXuJHIUbslwCRG1d6l9c+W3ZdGbI+mR+42k/iTCJRdM6vXT/kcNFNETWUlPlVe/dVzhRLBiprOmunccUrHrDGPmX3ZTAJQIlkC9odmmgJ61kxCX7zqJfX7T83E4DfMdG1rX5RjH0kQgAAEIACBniHgfltoFtD/a6bfN3o8RDN+SBCoS4CIYF0s7OwyAhIximg1miS8JIRONlqgzX46v6Y1yiTiGk1O9Ei0NpIkDs814hgTHw1iEqoS9nquUUL9hJkioB+ZSdy/Zqb+14v22m4SBCAAAQhAAAIQgEAjBBCCjVDCBwIQ2G4CEn+auvops5fMJAQVNdXzixL5EoAS7xKDimiSIAABCEAAAhCAAAS2QAAhuAV4FIUABNpGQH+Lxsz0POMjZprSWTJ730zPMsr0mQQBCEAAAhCAAAQg0AYCCME2QKQKCEBgywT0DOMzZpoe+kszRQCVa/qspv4iAg0CCQIQgAAEIAABCLSLAEKwXSSpBwIQ2AoBCT2JPk371MtrzpppSmi9l+DYbhIEIAABCEAAAhCAwFYIIAS3Qo+yEIBAuwjcsoq+Z6aIoEyCEBFoEEgQgAAEIAABCEBgOwggBLeDKnVCAALNEtCbVJn+2Sw1/CEAAQhAAAIQgECLBPRCBhIEIACBXiOgqKJLtdtuHzkEIAABCECglwkw9vXy1W1T3xCCbQJJNRCAQKwIKMLoUu2220cOAQhAAAIQ6GUCjH29fHXb1DeEYJtAUg0EIAABCEAAAhCAAAQgAIFuIYAQ7JYrRTshAAEIQAACEIAABCAAAQi0iQBCsE0gqQYCEIAABCAAAQhAAAIQgEC3EEAIdsuVop0QgAAEIAABCEAAAhCAAATaRAAh2CaQVAMBCEAAAhCAAAQgAAEIQKBbCCAEu+VK0U4IQAACEIAABCAAAQhAAAJtIoAQbBNIqoEABCAAAQhAAAIQgAAEINAtBBCC3XKlaCcEINAMgdqFdGu3m6kDXwhAAAIQgEC3EmDs69Yr18F2IwQ7CJtTQQACHSNQu5Bu7XbHGsCJIAABCEAAAjtIgLFvB+F3y6kRgt1ypWgnBCDQDIHaO6G1283UgS8EIAABCECgWwkw9nXrletguxGCHYTNqSAAgY4RqL0TWrvdsQZwIghAAAIQgMAOEmDs20H43XJqhGC3XCnaCQEIQAACEIAABCAAAQhAoE0EEIJtAkk1EIAABCAAAQhAAAIQgAAEuoUAQrBbrhTthAAEIAABCEAAAhCAAAQg0CYCCME2gaQaCEAAAhCAAAQgAAEIQAAC3UIAIdgtV4p2QgACEIAABCAAAQhAAAIQaBMBhGCbQFINBCAAAQhAAAIQgAAEIACBbiGAEOyWK0U7IQABCEAAAhCAAAQgAAEItIkAQrBNIKkGAhCIFYHahXRrt2PVSBoDAQhAAAIQ2CYCjH3bBLaXqkUI9tLVpC8QgIAjULuQbu22O04OAQhAAAIQ6GUCjH29fHXb1DeEYJtAUg0EIAABCEAAAhCAAAQgAIFuIYAQ7JYrRTshAAEIQAACEIAABCAAAQi0iQBCsE0gqQYCEIAABCAAAQhAAAIQgEC3EEAIdsuVop0QgAAEIAABCEAAAhCAAATaRAAh2CaQVAMBCEAAAhCAAAQgAAEIQKBbCCAEu+VK0U4IQAACEIAABCAAAQhAAAJtIoAQbBNIqoEABCAAAQhAAAIQgMA2E9D6gO1YI7Bd9Wxzd6l+OwkgBLeTLnVDAAI7RaB2kKzd3qn2cF4IQAACEIDAVgloPEuaNfL7/UFjn6vrQX5bbTPlY0wgFeO20TQIQAAC9QhkbOe4WcVs2ay8vm3ZnVS7kG7ttnPQwKeBdNosbXbDrGBGggAEIAABCMSVgH63HzMLzDT+La3nlt2X6o19cpoy09hXNNO4d3M9t4zUbwQQgv12xekvBLqfgITbjJmEoEShBsIVs80GPTt0X8ranpzZXjNtL5ohBA0CCQIQgAAEYktAv9uPmOlmpsa982ZrZhKGD0oqo/L7zB43mzW7bsb4ZxD6NTUSWu5XNvQbAhCIJ4GSNeuWme5q/mOzv2I2ZKbpMg9K+psnIflZs39gpgFRd0WbEZHmToIABCAAAQh0nIBmwJwx0zj2X5t91UwRwgmzB6URc/i42V8z+3tmj5idM5OQJPUpAYRgn154ug2BLiagO58auDQQPmt2wuygmSJ8uuMZlTQQKgqoAfB5M0UUFQls5G6quZEgAAEIQAACO0ZAM2EWzHTz8rF1O265ZsloTKw3Buq3/oDZpJnKPGx2xEz7NL1UdZL6lIBCxCQIQAAC3URAd0Q1EK6aaSD7itkXzf47s7fNtH9j0uCoQfJXzXQ39LDZUTNFFk+bKcpIggAEIAABCMSZgG5a6pm+OTNNDdXY9wWzf2X2L83mzTamMdvxtNlTZv+NmaaDvmumZ+O5CWoQ+jkhBPv56tN3CHQvAQ1eEoR5M00L1TTRA2YaIC+Z1c52kAjUc4B6wcx+M4lADYy6oyoByNRQg0CCAAQgAIGuIKAInsYtRfMU5Zsw0/h30EzjosY8JeWaKaPHJg6Z6fguMz0bqJugTAk1CP2eGnmmpt8Z0X8IQCCeBBQNlADUlBjd6ZR93uyUmQbKv26m9H+bKfr335r9htmTZhKMb5p900x3R0kQgAAEIACBbiEwaA3V+CcRKJGn6aGfN7tqJgH462aaBXPWTI9B/EOzT5kpAPRzsz83O2l2xYzUxwSICPbxxafrEOhyArojqkFvab0fivgpUviEme526vk/pUfN9pgpGjhipkFSd1I1AKoOEgQgAAEIQKCbCGjsuma2aKZxT+OdROEJM41zigRqrHvMTFHDUTPtU9L4p7LKSX1OgIhgn38B6D4EupyAXvSiqZ4a7DRFVAPex8w+a6ZIYdZMwvBXzOSju6iaDvozs2+bvWem5yxIEIAABCAAgW4hIJGnsUzRQN3sVGBHY+CzZhr/tC1TFFD7NPbpkQlNHdXY93UzPWfIzVCD0M+JiGA/X336DoHuJiAReNlMd0Q1KOrGlnLdDdXUUN391HOAe800RUZ3TPVZPnqg/rQZz0gYBBIEIAABCHQVAT0ff9FM458b+9w4KMGnsU5J29qvJBEof82i0Q1QjaGkPieAEOzzLwDdh0AXE9AgphfDLJhJ+Gmw09809yIYiT8lCUENhvqsgVADpO6EfmiGEDQIJAhAAAIQ6CoCteOfpoa6m5wa55wI3NghRRD1ohjdCGVa6EY6ffpZP45IEIAABLqVgAZAPevwlpmb4qm7o7U3uRQJdJ/ds4E3bZ+2JSBJEIAABCAAgW4iILGn8Uvjn176csMsKslXz87/e7MLUY4c6y8C7sdRf/Wa3kIAAr1CQFXiE7oAADRlSURBVIOhBJ3e/OmedVBk0E2Fsc3qtrtDquk0mhqjSKDujpIgAAEIQAAC3UhA45pugCrKp5eluXGudvyz3dWXyeimqcY/PU5BNNAgkG4T0J1zEgQgAIFuJjBgjdcApwfm9Xyg/q5tnO2gAVJ3RN8w+6HZq2ZnzEgQgAAEIACBbiWgl8BomqjeCnrIrN74p7FPY+RZs39h9pGZpoeSIHDfjyWQQAACEOg2AqvWYN0RVURQgs/dFbXNe5LuiLq7pypDggAEIAABCHQzAc1u0finsW2zsc/1T7NgND1UopAEgSoBpobyRYAABLqdgJ530N1NiTs9KL8xGmi7qlNjNAjqTqgigipDggAEIAABCHQzgfPWeL0FVEtEKBpYL2mqqMZFiUY9T68IIQkCVQL1fjCBBgIQgEA3EZDA0wAn051ORf7qJd0tlQ93ROvRYR8EIAABCHQbAY1/euZPY5ubFbOxD3pbtt6uLcGo7c3GSDtE6jcCRAT77YrTXwj0HgE9H6EBUNNjZIoK1vvbJiEoEXjGjDuiBoEEAQhAAAJdTUAzYXQDVEsiaWZM7Vuy7WM1adroSTONfYjAKhL+5wjU+7HkjpFDAAIQ6BYCEnma9jlmNmyWNdOMB/f2NN0tPWsmoejWErRNEgQgAAEIQKCrCUjc6c3Zp8z08hiJQTf2uecC37Z9p81IELiHAFND78HBBwhAoIsJnLO2ayCs99C87phKKCoiKNFIggAEIAABCPQKAa2N+76ZG/8kBDXWSQhqWqjGRo2RJAjcQwAheA8OPkAAAl1M4B1r+8tmivppuqgGQd0p1dQZLbr7E7OzZiQIQAACEIBALxE4b535mZkb/9wUUP3Olzj8hdm7ZiQI3EOAqaH34OADBCDQxQQU7cuZSQS6QVDd0bamhl4108PyJAhAAAIQgEAvEdALYzQ9tN4L0xQV1DOEi2YkCNxDACF4Dw4+QAACXUzgrLVdU2AUAXSzHTQ9Ri+P0b5XzC6ZkSAAAQhAAAK9RECzXvQSNN30dMtI6PMNMx3T1FGEoEEg3UvA/Vi6dy+fIAABCHQfAb05VNFA3RF1U0M1PVSDoe6ISgzKhwQBCEAAAhDoJQJ6CZrGPZkb5zT+KVKoqaEsG2EQSPcTQAjez4Q9EIBAdxLQoKcB8AMzvSFN2xKBV8x0R1TRQjdA2iYJAhCAAAQg0BME9AiEROBHZu+ZaazTTVE9N/+mmcZCEgTuI4AQvA8JOyAAgS4moMFQok/iT3dANfjpuQlNi9G2xCIJAhCAAAQg0GsENP7pZTEa/zTeaQy8bKYxUcdIELiPAELwPiTsgAAEupiABj9FA/WGNDdNxr0tTYMiCQIQgAAEINCLBDT+6c2gtePfG/b5lBnjn0Eg3U8gji+L0csdBswkUgfN9JkEAQhAoBECekhe02H0BlENivo7ooignpGYNtOzgiQIQKB/Cejvgt6gSIRk+78DWth80ky/NWWNzsjQ7z75utw2H5icr8sfWMAcmvF19TVTxvm63NURlTtfl0f5umPOV4z1/dZjEBrrtC2OWbNDZvrOO1+X264HJufr8gcWMAfn6/JmyjTj20r9rZRppE3yEXeZfnPovQSxT3EUgk4A6g/IlJkuGAkCEIBAIwT090J3PvWAvAZADXwShRKHM2YaGEkQgED/EtCzU3p7Is8Lb/93QAJkr5lu7uvtzaTtJeBm+enNoRoHNf7p5uiQma4BafsJSPxJBCohBG9zaPr/+iGnSKC+tLvN3GtwbZMEAQhA4IEEdBNJf0P0XKAGRok//QjR35NG70ibKwkCEOhBAvqRfLYH+xXHLkkI7jMbMdNvukb//rqIjcut6AOT83X5AwuYQzO+rr5myjhfl7s6onLn6/IoX3fM+SoXZ41/WjdXvPeY1bKv9e3m69HpfhjGhtK8ebllrLR0R+xTHCOCuri6ezFspi9wHNtozSJBAAIxJqC/IRoIlXRXVOJQf09IEIBAfxPQbAF+V3TmO+CEoKaH6m8yqTMEFEC5vH4qjXviT+oMAT2Kou+98q5I/DHsistEIyEAgSYJ5M3/1fUyPCTfJDzcIQABCECgawno5udH661n/Ovay9iZhneREEx6ybRmd9mNjqSbBv1gSH4y6QWVxh4Lcr4uf3DtNu9svX6XN1OmGd9W6u9UmTj2o5E2OZ9OcWrlPK6NjeSt1N+pMo203/m0qU2VMAyq0zISCV+D4p3k6nf5nQMRG634dqpMRLPvO9SpNrVynvsaG7Gjlfo7VSai2fcd6lSbWjnPfY2N2NFK/Z0oU8rb/aCK7gmR4kAgZb84MxnfGx71vXTU7zj9xNNfbZc30njn6/JmyjTi63xaqb9TZVwbb08JVeRb6Z7x7w7TTrWplfPcbnf0/129Lo/2vn3U+bq8mTKb+FZscu3cbNErm9wO7iW9SYn47e4aIZgc3+P544e95Ph+L23WaCrZBc81eHGcr8sbOYfzdXkzZZrxbaX+TpWJYz8aaZPz6RSnVs7j2thI3kr9nSrTSPudT5vaFNgdIL0kRndr7nkOwtXvcnfeqLwV306ViWr3xmOdalMr59nY1qjPrdTfqTJR7d54rFNtauU8G9sa9bmV+jtRxjvzslc6+9OopnOsgwT2H0x5jz4eeF/7jz3v4EOb//zUEYWxXN5IE52vy5sp04iv82ml/k6VcW1cz+tGQFxbXL6hTN2PztfldZ027HS+Lt9wuO7HVnw7VaZug23nLZsA+o/+q8C7dSvwrl+1nx0N6o3N6tuJ/WLYFSmdtmdfTQymZx7yvP0nGm7zSCXp5ZN1/z3cV4fzdfl9DnV2OF+X13G5b1crvnEuc18H6+xw7Xd5HZf7djlfl9/nUGdHM76ueDNlnK/LXR1RufN1eZSvO9aMbytlXP0ud3VE5c7X5VG+7lgzvq2UcfW73NWxntf9k+x8Xb6hTN2Prfh2qkzdBm+ys1NtauU8mzS57u5W6u9UmboN3mRnp9rUynk2aXLd3a3U34kyqzfO2nvc9bhUY78B6naOnW0joIjgwFDg7d4beEcOKiyzSfLtha6BPdbt8k3c7tntfF1+z8FNPjTj66popozzdbmrIyp3vi6P8nXHWvGNcxnXr6jctd/lUb7umPN1udsflT/AN5Mpeqmc79nkwK5NXSMEJQJH9j3hlR75lDd07PNNAddbIhpNztfljZRzvi5vpkwzvq3U36kycexHI21yPp3i1Mp5XBsbyVupv1NlGmm/8+lUm1o5j2tjVO7qdXmUrzvmfF3u9kflzfi6epop43xd7uqIyp2vy6N83bFmfFsp4+p3uasjKne+Lo/ydcea8W2ljKvf5a6OqNz5ujzK1x1rxreVMq5+l7s6onLn6/IoX3esdOMDz3vrG+4jeRwImP7zffvpqR/YmyTfH7T5jKvmdzvfxO2e3c7X5fcc3ORDM76uimbKOF+Xuzqicufr8ihfd6wV3ziXcf2Kyl37XR7l6445X5e7/VH5g3xTvv4idfdjmF0jBO0JQS8wyZ32c/YieDMSBCAAAQhAAAIQ2IRA2u/i2/Sb9Kmbd/s1QUD9wI5K7rjLo3zdMefrcrc/Km/G19XTTBnn63JXR1TufF0e5euOteIb5zKuX1G5a7/Lo3zdMefrcrc/Ko/y9W050q4RUpt0suaf5SYend+t5SNcuru9/mBxhr/rjg05BCAAAQhAAAKbEAjsd0Oy+tuBHw6bIOr4bv1o9qtRlI6fmhNCYBsIaKW7e5LTLS6/52AcP8RRCNa+2OHuduX24z5FpvrH8XtEmyAAAQhAAAKxIuDb74ZK9bcDPxzicmE0iS4INp8WGpd20g4INEbAvZz1jrfTLS6/cyCuG3EUgnFlRbsgAAEIQAACEIAABCAAAQj0BAGEYE9cRjoBAQhAAAIQgAAEIAABCECgcQIIwcZZ4QkBCEAAAhCAAAQgAAEIQKAnCCAEe+Iy0gkIQAACEIAABCAAAQhAAAKNE0AINs4KTwhAAAIQgAAEIAABCEAAAj1BACHYE5eRTkAAAhCAAAQgAAEIQAACEGicAEKwcVZ4QgACEIAABCAAAQhAAAIQ6AkCcRSCtYsw3t1mQfme+MLRCQhAAAIQgEAnCLCgfCcoN3cOFpRvjhfecSfAgvLbcYVqF2G8u82C8tvBmjohAAEIQAACPUmABeXjd1lZUD5+14QWbYUAC8pvhd5mZe9GAT3v7jYRwc14sR8CEIAABCAAgQ0EiAhuABKDj0QEY3ARaEIbCRARbCPMO1XdjQJ63t1tIoJ3ALEBAQhAAAIQgEA0ASKC0Xx24igRwZ2gzjm3jwARwe1jS80QgAAEIAABCEAAAhCAAAQgsC0E4viymG3pKJVCAAIQgAAEIAABCEAAAhCAwG0CCEG+CRCAAAQgAAEIQAACEIAABPqMAEKwzy443YUABCAAAQhAAAIQgAAEIIAQ5DsAAQhAAAIQgAAEIAABCECgzwggBPvsgtNdCEAAAhCAAAQgAAEIQAACCEG+AxCAAAQgAAEIQAACEIAABPqMQByF4N1F5FlQvs++jnQXAhCAAAQg0B4CLCjfHo7trIUF5dtJk7p2ngALym/HNbi7iDwLym8HX+qEAAQgAAEI9DwBFpSP3yVmQfn4XRNatBUCLCi/FXqUhQAEIAABCEAAAhCAAAQgAIEdIBDHqaE7gIFTQgACEIAABCAAAQhAAAIQ6B8Cmq5NggAEIBBbApWg4nlBkPDLpUS4dD0ThuXqc8TlZCpMDk2Ug2Q6yKQHg2Y6oDr9hJcozl/KpErFe26Iqd7UxMF88s7eZDNV4wsBCEAAAhBoK4EgWPXm5vx0opJKlMvJROBXvIzvhYPDxcrA0KANkq0l1bu0OJgqlfOJSiF7d9TLFoLJyaCkWn1/sLXKKdUVBBCCXXGZaCQE+ptA6ep7Q8mFi7nlX379RJBfyYpGanB0LXf8pYvJXU8seEc/vtgUoaCU8Aqryfx3/pcnyvOXx13ZZCoV+LnhfOYr//2rnolMt58cAhCAAAQgsFMEJAK//n95R5bmi9mlBS/rJ71weNgrPvOif+2LX/JutNquYmHY/9afru27cjkYmr+5NlgJvETCBOaePf7y7/6+d2Z4LFP27XOr9VMu/gQQgvG/RrQQAn1PIOungrVyyQ9vfLQ7LC4NeZVyspQdWvVtfzaRDBoVgmmLGxYTlUR4/rXR1StvjVcuvX0oXLlxWwgmU2Vv7MANL5Wt3gXte+gAgAAEIACBWBAILRI4d704eGsuMXD5vD8Z2LyY3IBXnJjy1tZe8ufSmWKQSqeaEmzzs6vpCxdTA2+/kdp15XJybHW5nDMZGE5OVZaHhhLFWHScRmw7AYTgtiPmBBCAwJYJTB7Op+fPDyzNnnqksjI/E5bzQ4lkdi24dflAEAQ/zXzi9y81eo50OUgsv/xHJ9be++4L5bkLD1ld1fc/J9K5pcT08T9LDu9e8vzs+oDKtNBGueIHAQhAAALbQ6BkjzDMznpD1654Y6++UnkiqCSSiYQXptPZyq98bvna5GSmOLPba0q8vf1WeuwnPwr2fvdb4TOz10vTGvSymbDw3IvJk+Wit5hM5UI/mbfdSIXtuarxqJWrG4/rQCsgAIFNCOS0P5UOw/RwJZEaWEmkVkbC4upY6BVzQWF5rLI8NxQsXMqGQ7uKSfPbpJrq7uKVd4ZKNz8cLt28MBWszU95QXHA063W9MBiKju8kBrbs+iP710upZJhxkMERrHkGAQgAAEIdIZAIpkJJ8Yra6vLiUylUklWymH19/vSYmLg7GnfbmaGy40Kwfya7xfXysmzZ7yRs+/702urlYGy1ZfJJApmpV17vMU9+yrLqXQl5PnAzlzfnTxLHIUgC8rv5DeCc0MgZgRK9jCE5yfDyvhMMXfwhZOl66dWCvk3Z8KgnKusXD/k3Tq7r3zqB9OpE5+f9cb2F6Kav/LGvzmaP/mdJ4LZM8cri1ePyTfh2yzTXY+8ndr1yPnBz/+dd9Mzj6xG1cExCECgOwi4BeUr1VdptPw+je7obJe0Uj86fT/TJa2NTzMnx/3yF78cnjv9bmrs+38RfKLihdXfyjeuVSa+863E0U992rt44jHvvkXt6vXg2tV87uK5YPAH384+/ON/l3/WRGBazwHu3uPdmJkJF/72302+feSRcCWTzjX1ErZ65+r9fZpQdM8rCpyGcXnsEcRRCNbe0b+7bU+wKhXtbzl/QmL/vaKBEGg7gSAzVvIPPnUpUVzJeJffthe5VBSy8yurc+P59757bHD6+LK/iRAs3DqfLX7w/ZnSmZePSASW1xYm1UA/O3ojmRlYzux7+kP/6PMXkwOTPB/Y9itHhRDYGQIsKL8z3KPOendBeX7JRXHaeCyZCoKDB8LVlYUgNTrmLa2seOW1VW9waaEy9NGH4e6jxxK3NpbZ+FlvCC0Vcsmf/NDf9fMfh4c+OlveVbGgXzLplVJpr/TsJ/wP9h8IFkcmE8VU0h66MH8ighspbvx8n/Z2usXlGwvE7nMchWDsINEgCEBg5wmkhsbK4ZNfvphYnc+tnfpOUVM6vdBeor06P1W68PrDxYXzHySCFxbU0qSiiJa0TESlUvCD66eHyu9972j52nvHSwuXj9uh0B6KD5JDU1eSwzM3ks/85vuDz/2NK9VC/A8CEIAABCAQIwJ6EcyBQ14+v1pMTk9788lkopJfCweWlirDF897/pUrlYvlkia4FDedzqk3hFo0MPvaK4m9P/tx5YnlpcpgEHj+4GBidWgksfKVr3ofPHwiXJqZ9ooIwBhd/G1uCkJwmwFTPQQg0CYCfjrMTh1by88cm0+P7T8TrC1O2tTQw2F+cbp08/Tg0LUPf5JZvDpXHJ4qaSqpzurbEhGVd765q3jmJwcK7/zF5+y5wJlqa1KZFT89tJx9/C//++zRT15MHP3kXJtaSTUQgAAEIACBbSEwMJItP/b06rkLZ1NTszfKU4V8mCuXE5krl5Ljb71WHDv+SG55ZNyru/TR+ycLI3/4z8Kn33krPDh/KzEWBGEilU6UPv6p9DsPn/CuP/pYeXFyxkSgiUleELMtly+Wld5ZPDKWraNREIAABNYJKMqXGBiphMNTeX94ejaZHZ7XoSAoZ/XymMrS7FBp9vxAVfxZJLBYWvWLqzfT+UuvzVSuf7jbppDuCcuFIUUC/XRuOTk0fj134GNXh5/6D66mRvY29bY1LgoEIAABCECg0wSy9rLsg4e9W5Mz4ZI912fTNz2/VAzTy4uJ3MWL3uDyWnDfW87KpXJidjaf1vEz74d75ufC0VIpTCf8RDA46K8+9HDixnMfL16bmApKuYHBgGhgp6/qzp6PiODO8ufsEIBAkwT8XY8vDTzxpTcLZ39x2Js78zGbHpoMKmFy7dwrD5WLi9mhl/7gZHDwY0v+xXeHS5deH1/96b/4SlhcGfXKpZw98FBKJFPFzJ4nXh9/6Q9+lnj0S9cKLBzf5BXAHQIQgAAEdoLA+Fiq/Bt/NTyfyWSCH31vrVi2sS8MvOSNa8HED76TOHLwUHJl717vnpemnT1bHPjWN/xDp06GM++9Fx6zN45WxeKBA/6Vp5/3Tn/+S6ULTz6TWsgOlHmj0k5c1B0+JxHBHb4AnB4CEGiOQCYzUPHHDi75Q5Mr9kSEDVwJm8Zib1ArLA2Xl26MhWvz6XQx73vXTo56s6cntMREWMoPycdewZ1PZIfmkyO7FsL9T80nhidKijS6ZwqbawneEIAABCAAgc4R0LTNyelKcXjUK6azCRu/EtU3KRYKQebWLX+wkLcbo/aSF2daKmJhLpm5dCExOnsjMWLRw+pbetI2JXR4xF/dv7+yODmdLI6MZCpEAjt3HeN0JiKCcboatAUCEHgggXDqcD75yd+7kC6vpfy3v3k9KK4Me+XCSHH29KP+4tV9pYc+fcYLw8Stb/2Tv6oXyVg0cNxeDeNLNGZ2n3hz8IXf/ln6wDM3kkefWwxC//at0QeeFQcIQAACEIDAzhOYnAxKR46sLD3yaOLcudOJfTeuh7tmZyuTxTf85KVLwXsf97zqM+/Fguf/8pXViR9/P7f/m3+S/2R+zWbFWBqfTNzavTcx95kvlE/9vf/MO5kdKtkN1fTOd4wW7AgBhOCOYOekEIBAqwRuR/AGg9LAeMEfGJ3zglIyMCEYlos5e/S9Urz4+r5w8cpwsLYwEZZWRkwU+gk/VUzkxmaTI3tmM9MPLZTHDuTTiXSY7JqVflqlRTkIQAACEOgVAi5qNzhYqEzNBIvXLiWm1Dd7LD5ZKoSZ+Vup7OWLYW56ply8NZ9Jv/kLb/rs2dKkRQqztp5mUpHA8XF/6fCR4Pr+A4mlgZGQ6aC98uVosR9xFIK1P83ubidvz2LN3PcYbIs9pxgEINDVBLLTx1Yqhz/5WvH8y08X8ku7LCo4GtiMmdW3vvHrCROE1TeEhkH1b5yfG50bfOrL3849/qUzqee/djmOf/i6+mLQeAjEkAALysfvouhvLwvKb/26HDiYWftLXyievXktM37h/NrBctlLr64mhk6dDHbZchCVF38le/3yheTgH/9R/pM3b4YTxaKXTaUS5dHxcPGFF1On/4t/WPrl4NCAicCuWe5u69C2pQYWlN8OrLXfyrvbLCi/HaypEwJdSyAxujefO/b8hdKNUwdt8aRyGNgC8zYl1CvmhwJ7M6gigTYdtGTPA55Lje65nDzyiQvenkcXu7bDNBwCEGiKAAvKN4WrI84sKN8ezEPDYfmRxyrzYxPhcjbn5W0NQVtyPkxculAZ9xPl4KMz3ujiQjK3sBAOFwr2htCEFwwP+0svfso/+eTHgqsSgdmspoRyW3RrV4QF5bfGr37pu1FAewvEHRcigndQsAEBCHheduJAIfjYVy/k3/nOfDHhlz1bFSI08RdWivZimNsp4acLyaljp5O7jl8eeOFvXrRlJ0ruGDkEINDbBIgIxu/6EhFszzUZGffLzzzrLc7s8pZzuUQ+79l6giUvfeNqMFnMe5lCMZFay4eZ5SVvxKKFKUUDx8ZTK7/9O4mTh46GKxKSiMB2XAsigu2guLGOu1HA2pg1EcGNnPgMgb4mUEimg+zYvkI4deh6cvzgh+X5i0c9JwItEugPz1xM5kZvDX327/woN3VsJcyN1V1kt68h0nkI9DABIoLxu7hEBNtzTXx7M6iFSsJjxytzjz+dPHPudLjn8qXK3gvnwz1XLicq9pPZD4PANxGYHB1NLjz/ycTJw0e9uaefS8wPDqbsMlRfNtqexvR1LUQE+/ry03kIQCAGBNIZezoitxZWl5JYb48Wjc8OLnmDo/O545+bzU7ur66rRDgwBteLJkAAAhCAwJYIBP5gtfzYRL6wZ0+4cO1yasLzKp6FBgdqYyhadD43kMg/dLwye+R4eX5yarCICNwS+p4rzOTgnrukdAgC/UGgvHg1U3n/ezOl828cKc2eecyrFKqvxlbvEyYKk8O7rqVG9816uSy3PvvjK0EvIQABCPQVgWc/HszOzOTy1655I2c+LB2p7bzeEPrQicSZhx6uXP3a74cfTM/kTASSIHAvAYTgvTz4BAEIxJxAxd6TbUtGJMLl2Uz52qlJL7844gXlbPXlMDVtTwRle3i+nErzcuwaKmxCAAIQgECvEBgazlRmdifyuZxXVPQvsCmh6pu9HCZMJsPK5JS3tGtPuDS9O1UcGbVn6UkQ2EAAIbgBCB8hAIF4E/ALq8nCzTMD5bf+7cGlH//zr4b55TFbROmev2VhUM4Ubrz/eGr5xmyxMP/93JA9H+ina58/jncnaR0EIAABCEDgAQRmdpWLE5NeaWYmsTwy4i0vL3tDWi8wm/UKY+PJxb/1n6Ree/xjhfmhYXta0Ms8oDYO9yOBe3489SMA+gwBCHQHgXQ1EhgkinPnc+W3/7/9xfNv7w/XFqfCSslGN3tCMJVbDLWMRGnNFpEPkmGpMBT4qwXvyrsjxXKQCPY8ssoypN1xrWklBCAAAQg8mICfCMJUKmevfil4QXj7TfuKBmZzicLgoLe2b19pbe9eO0iCwCYEEIKbgGE3BCAQPwIJiwbmz/xoZuUnf/irlbWFCRN79u7m0Ia/RJCcOnzKyw4vla++90xYXJnwykVbT3ClsvzOXxzxdn90c3TiwFlvYISJovG7rLQIAhCAAARaIBBUMolCYTG5sjKQXVnxBu1+aVJTRCcnvfmp3cF81haXV7X++stlWjgFRXqcAEKwxy8w3YNArxBYXryeKfy7/+1E+eKbByvL1/eG5by9Ns0igQOj15ND09dyx156szI0tRrOXzlYrhQGvIo9NxiU06ULrz+UWV0cCF/83fMJDyHYK98H+gEBCECg3wncmPUyN657udXlRNY9H6hlJcYmvOWJSVtsPp0JfJ+5MP3+PYnqfxyF4N1F5FlQPuracQwCfUUguXI9W/jg+08E81f2e4WlaZv+Wf37lRycup468OzbQ5/4W+96Y/vyN9/+5ouJ/MJ0GFTsBTJBujJ34UjJ5sqkS2WfcGBffWXobJ8TYEH5+H0B9Efb93lWrV1XZmkuzFw65w/l86GNd7dfFOPbeDc67q3ai2JW02mfZ+PbBbtuPSwoXxfLFnfWfmnvbrOg/BaxUhwC3UkgXFtKLn/rnzwZ3jw/Wb7y3lNhYXk0tGcAvVRmOT1x4Ezm6IuvDX/m777h731iqVgq+Kk9j7/v+alC+erJF+ylMdnKyrUDiaRfWjr1g+nssRfnkruOr3UnCVoNAQg0Q4AF5Zuh1RlfFpRvL+eLlysDJ99JTC4vVO4sn2RnCPfuTc4fPBTMp3IFu/9Ze6i956e27l9QvvqaWS4kBCAAgbgR0DIRxdKqX8zfSpWufzRTmju3OywsjYWV4pBNFggSfrrgDc9c96aP3Uwd/8ytxNBkOZPOBunxvQupoalb3u0F5hP2MpkBz6aRBguXhsLlm9yKjtuFpj0QgAAEINASgZXVILlgIrBQCu/M8NPLYoZHfHtraKKQTuXuBlRaOgOFep3AnS9Or3eU/kEAAt1FoFIp+OW3/mR3cP2jseKZH74YFpfHLMKXU7TPz43eTI7uvjj5xf/0B+Vdjy+6ngXZwUruiV+ziTJj+fyFVz5l6w3m7F0yyUppbbh48tuP+34iTB17ccH5k0MAAhCAAAS6lcCtG97ApXPeRH4luBv2MyF48JC3eOx4uJjNrgaeZ4/TkyCwCQGE4CZg2A0BCOwcgUrZFoxfWUiFl96ZLl8/Mx2sLcxUl4XwEmEilS4kByevp8b2Xss98ZvXEqnBSsk11dYKTO5+dCm7fCPrJ7NrFb9oL40pDoaVcqa8eHl3YfHq+YGwZC/c9sMkD9A7auQQgAAEINCFBFaX0+mVxfJAqeSlrfnV6J89IxhMTKXyMzNBIZVKERHswuvaySYjBDtJm3NBAAINEShde38wPPvzydVX/s3nykuXD9kbQu2J7ETopXNLybE958a++Pe/4c8cXyplhyuZ8Pbg5yoOJw4WvN2PL6Ymjpz2V+bmS/NnHwvLhaHyzY8ey15592Jq/vo75dxw2RsY490xDho5BCAAAQh0HYGbNxMDV66Gk6urwYAan057pVzOKxw4GK4eechf9ZNFE4L81O+6C9vBBvOMYAdhcyoIQCCagCKBqcJSsnLh1YnSmZ8eCldvTYXFtVFJvYSfLKWHZy4lxw5cSh587law74mlRMLWja+J7CnKl0ylw8TgcDk1uu+GPzQ1WxWQYeBbZHAgyC8Or114ddybu3h3Gk10kzgKAQhAAAIQiBWBIFj1ZPl8JbW26g2UirefEUxnvWI2J/MrqXQqZP3AWF22WDaG2wSxvCw0CgL9SSCRn0sVVubShTe+8Xjh/R98JqwuA1HOJPxU0c8MLQy98De+mz747LXk/mcXE5msPftQPyWGZkq5J794qnTt1Gzx8usv2VtGU7acRLq0cG134dWvP1p5+NNnB/Y/sVK/NHshAAEIQAAC8SZQrHiJxYVMbv7W2pi9W02rRoQjw4nl8clgMZMp2PjIu9HifQXj0TqEYDyuA62AQF8TSNsoprR48fXRyqW3psKFS9P2TOBwdZkIe0NoamD8mi0cfys1cXjBn3poJbCoX9QzfomkvT104tBysLqQ9ZKZvD064XsmBL3S2lBp/vJMYvnadZ1P562NKGofCQIQgAAEIBBnAkElk7g1V0wXCl5KC8mHoZeQEEznEsXBAa+QTJZtHg1CMM7XMC5ti6MQZEH5uHw7aAcEOkSgmPAS6WLBr7z8x4+tnvrOS5W1W/ZymNVxTeu0aGAh99Svf8+feWg2/cJ/eNEf2Vt8ULMSAyOV5DN/7VpmZE8h+eN/fj0oLI8HFl0sr97cW7n0+nBqZOaWicB3EYEPIslxCHQvARaUj9+1049OFpTf+nVZnM+mT72eGl9Z8AbtfmZSNdpbscvTE8mlvfuD+XRWy0bYf6RtJsCC8tsBuPabe3ebBeW3gzV1QiAWBAqX3xtcfe2Pj+Yvv3WkKgKLBXvfdaLij+y6kMyN3PIPPnMpu+vRhURquKkXvJSz9qzgxIFzlaXrq/Z84KTeHup5KyPlpavjqyf/fCZ55Pl5f3j3nZeOxgIGjYAABNpCgAXl24KxrZWwoHx7cK6urfkXL5aHVteyd8J+iggOjYZrk9OV5WS6ZFND4xjraU//41NL9y8oz7ckPt8mWgKBviVQnjs9lH//h48E85f3h8X8iK39Z8sFZlaT00c/SMwcuzL41G9d9GeO2RTP5lJiaKyUOfjs6dK1d/OV+UvH7DnBjKaIhvml4bXLb04N7Xpk2UMINgcVbwhAAAIQ2FEC+XyQnLU1BCuVwM9kfHs1aBimU4nS1HRiad9+b2kgW0QI7ugV6p6TIwS751rRUgj0LAF79m81c/zT7/u7H7kc5pdfrtgTD34yXUke/+w5f/r4Unl8T/HObc8mKCSGp0tDz/31Dyo3z1xJTR66EVRKyWRg7xrd/fD11J7HbpWzI+XqnJom6sQVAhCAAAQgsJMEpieD4gsvetdHRr3iMy8MnLOlA8NUygteeLFw1YTg6vBIRsFXEgQeSAAh+EBEOEAAAttNIDE0UcrteeRWadex+bQ98l4O7e6mnwrDhz83m504VGj1/EP20pjEgecW18b353OpTKUUlBMpq98fmsyHwzPFTCa36ZtHWz0n5SAAAQhAAALbSSA35FX2H/BWc7mgcuRY3pZSspBgMgyPPxQsj0/oHWisH7id/HupboRgL11N+gKBLiWQshfA+E995aq9wCVRSSa9TMUeBfSTYZAe3LJQCwds8fjsYCU9urvg6k+Gvk2jSYeFZDogItilXxqaDQEIQKBPCWSyXnDwSGZt74FMPgy8hGdrCnp+4KUzmeC2COxTMHS7aQIIwaaRUQACEGg3AS0C76XGqi+Cqf2jtFWR5t4KaktN3Fe/5s1stf52c6A+CEAAAhCAwIMIaKF43/fCVDpYf6lirqZI7Shas5tNCNQh4NfZxy4IQAACEIAABCAAAQhAAAIQ6GECCMEevrh0DQIQgAAEIAABCEAAAhCAQD0CcRSCLChf70qxDwIQgAAEIACBhgm4BeWZBN4wsm131KRFFpTfdsycoGMEtKD8PclpGJffczCOH+IoBO8uIu95d7drFpSPI0jaBAEIQAACEIBAfAiwoHx8roVryd0F5d0ecgh0M4HuX1A+jkKwVkXf3U7ebmqGtzt0878Y2g4BCEAAAhDoCAEigh3B3NRJiAg2hQvn2BMgIrgdl+huFJCI4HbwpU4IQAACEIBAzxMgIhi/S0xEMH7XhBZthQARwa3QoywEIAABCEAAAhCAAAQgAAEI7ACBOE4N3QEMnBICEIAABCAAAQhAAAIQgED/EEAI9s+1pqcQgAAEIAABCEAAAhCAAASqBBCCfBEgAAEIQAACEIAABCAAAQj0GQGEYJ9dcLoLAQhAAAIQgAAEIAABCEAAIch3AAIQgAAEIAABCEAAAhCAQJ8RQAj22QWnuxCAAAQgAAEIQAACEIAABOIoBO8uIu95d7dZUJ5vKwQgAAEIQAACDRJgQfkGQXXQjQXlOwibU3WAAAvKbwdkFpTfDqrUCQEIQAACEOgjAiwoH7+LzYLy8bsmtGgrBFhQfiv0KAsBCEAAAhCAAAQgAAEIQAACO0AgjlNDdwADp4QABCAAAQhAAAIQgAAEINA/BBCC/XOt6SkEIAABCEAAAhCAAAQgAIEqAYQgXwQIQAACEIAABCAAAQhAAAJ9RgAh2GcXnO5CAAIQgAAEIAABCEAAAhBACPIdgAAEIAABCEAAAhCAAAQg0GcEEIJ9dsHpLgQgAAEIQAACEIAABCAAgTgKwbuLyLOgPN9QCEAAAhCAAARaIMCC8i1A2+YiLCi/zYCpvsMEWFB+O4CzoPx2UKVOCEAAAhCAQB8RYEH5+F1sFpSP3zWhRVshwILyW6FHWQhAAAIQgAAEIAABCEAAAhDYAQJxnBq6Axg4JQQgAAEIQAACEIAABCAAgf4hgBDsn2tNTyEAAQhAAAIQgAAEIAABCFQJIAT5IkAAAhCAAAQgAAEIQAACEOgzAgjBPrvgdBcCEIAABCAAAQhAAAIQgABCkO8ABCAAAQhAAAIQgAAEIACBPiOAEOyzC053IQABCEAAAhCAAAQgAAEIxFEIsqA830sIQAACEIAABLZEgAXlt4RvWwqzoPy2YKXSHSPAgvLbgZ4F5beDKnVCAAIQgAAE+ogAC8rH72KzoHz8rgkt2gqB7l9QXjdnuiJVgopXKeW9dH7J81bnG25z0WKemaAxd+fr8kZKOV+XN1OmGd9W6u9UmTj2o5E2OZ9OcWrlPK6NjeSt1N+pMo203/l0qk2tnMe1MSp39bo8ytcdc74ud/uj8mZ8XT3NlHG+Lnd1ROXO1+VRvu5YM76tlHH1u9zVEZU7X5dH+bpjzfi2UsbV73JXR1TufF0e5euONePbShlXv8tdHVG583V5lK87Jt/AfjOQ4kMgCAIvMCVYKnpesbD5tfG9YS/wlj2XN9ID5+vyZso04ut8Wqm/U2VcG6Ny1xaXR/m6Y87X5W5/VO58XR7l64614tupMq6NG/N8MeUF9qUOG9QZG8vH4XPtNMw4tEdtSJsdN1O89YRZVaymh8a95OCU5+UmvaRtN5r8ZNILKpWG3J2vyxsp5Hxd3kyZZnxbqb9TZeLYj0ba5Hw6xamV87g2NpK3Un+nyjTSfufTqTa1ch7Xxqjc1evyKF93zPm63O2PypvxdfU0U8b5utzVEZU7X5dH+bpjzfi2UsbV73JXR1TufF0e5euONePbShlXv8tdHVG583V5lK871oxvK2Vc/S53dUTlztflUb7umHzzVz/wSjdPu10u1y38b5nddyvfOZC3jcB+q+k3zCbNhnbt8b39hz3vL/+q5+3eu/kvZ9/37cd14Lm8kdY4X5c3U6YRX+fTSv2dKuPaGJW7trg8ytcdc74ud/ujcufr8ihfd6wV306VcW3cmC9ZXOoP/5nvLS0E3txc9eh1+/8Ns7fN3qnuifn/uiYiWFqZ94L8ilfxzjeFNOknPUUTG0nO1+XbXWa76+/nfjTC1vl0ilMr53FtbCRvpf5OlWmk/c6nU21q5TyujVG5q9flUb7umPN1udsflTfj6+pppozzdbmrIyp3vi6P8nXHmvFtpYyr3+Wujqjc+bo8ytcda8a3lTKufpe7OqJy5+vyKF93rBnfVsq4+l3u6ojKna/Lo3zdsapvqeQ+kseAQLFocb5l3zt/PvBWV6Ma5ESiy6N83THn63K3PypvxtfV00wZ5+tyV0dU7nxdHuXrjrXiG+cyrl9RuWu/y6N83THn63K3PyqP9l1e9LxCIfDKmvPcpalrIoJdypdmQwACEIAABCAQHwJEBDt3Le6JCFqgz6J8NrEr51fzzZohHwsIVn2UN5K2UqaR+p2PO4/7HJU7X5dH+bpjztflbn9U3opvnMtE9dUdc+13udsflTtfl0f5umMP8rXJzt6q/UWpfk1vf1eJCDp45BCAAAQgAAEIQAACEBABiTrZ8vLtX8xQgQAEdp6A3XchQQACEIAABCAAAQhAAAIQgEA/EYjjM4JaPkKzx5UrxForVjWVtXZ5Cfv4wNRMGefr8gdWbg7O1+XNlGnGt5X6O1Umjv1opE3Op1OcWjmPa2MjeSv1d6pMI+13Pp1qUyvncW2Myl29Lo/ydcecr8vd/qi8GV9XTzNlnK/LXR1RufN1eZSvO9aMbytlXP0ud3VE5c7X5VG+7lgzvq2UcfW73NURlTtfl0f5umPN+LZSxtXvcldHVO58XR7l645t5rtmDo29OMDVRN4qgYIVvGKm6bgDrVZCOQh0EQEtayBb6ZY26w9lHFPSGqW2Ka9Nm/1hr/XZuN1MGefr8o111fvsfF1ez2fjvlZ841xmY//qfXbtd3k9n437nK/LNx6v97kZX1e+mTLO1+Wujqjc+bo8ytcda8a3lTKufpe7OqJy5+vyKF93rBnfVsq4+l3u6ojKna/Lo3zdsVZ8O1XGtbGRvFNtauU8jbTf+bRSf6fKuDY2kneqTa2cp5H2O59W6u9UGddGl+tmsi1gQOoAAd3Iz5jpWmu70Rv57rvhciv6wOR8Xf7AAubQjK+rr5kyztflro6o3Pm6PMrXHWvFN85lXL+ictd+l0f5umPO1+Vuf1TejK/q0Xdcc5/1+piuuOGkDsY9dUMb486Q9kEAAhCAAAQg0LgYgVX7COh3XDM/qJ2vyxtpifN1eTNlGvF1Pq3U36kyro1RuWuLy6N83THn63K3Pyp3vi6P8nXHWvHtVBnXxkbzRm96NFoffhCAAAQgAAEIQAACEIAABCAAAQhAAAIQgAAEIAABCEAAAhCAAAQgAAEIQAACEIAABCAAAQhAAAIQgAAEIAABCEAAAhCAAAQgAAEIQAACEIAABCAAAQhAAAIQgAAEIAABCEAAAhCAAAQgAAEIQAACEIAABCAAAQhAAAIQgAAEIAABCEAAAhCAAAQgAAEIQAACEIAABCAAAQhAAAIQgAAEIAABCEAAAhCAAAQgAAEIQAACEIAABCAAAQhAAAIQgAAEIAABCEAAAhCAAAQgAAEIQAACEIAABCAAAQhAAAIQgAAEIAABCEAAAhCAAAQgAAEIQAACEIAABCAAAQhAAAIQgAAEIAABCEAAAhCAAAQgAAEIQAACEIAABCAAAQhAAAIQgAAEIAABCEAAAhCAAAQgAAEIQAACEIAABCAAAQhAAAIQgAAEIAABCEAAAhCAAAQgAAEIQAACEIAABCAAAQhAAAIQgAAEIAABCEAAAhCAAAQgAAEIQAACEIAABCAAAQhAAAIQgAAEIAABCEAAAhCAAAQgAAEIQAACEIAABCAAAQhAAAIQgAAEIAABCEAAAhCAAAQgAAEIQAACEIAABCAAAQhAAAIQgAAEIAABCEAAAhCAAAQgAAEIQAACEIAABCAAAQhAAAIQgAAEIAABCEAAAhCAAAQgAAEIQAACEIAABCAAAQhAAAIQgAAEIAABCEAAAhCAAAQgAAEIQAACEIAABCAAAQhAAAIQgAAEIAABCEAAAhCAAAQgAAEIQAACEIAABCAAAQhAAAIQgAAEIAABCEAAAhCAAAQgAAEIQAACEIAABCAAAQhAAAIQgAAEIAABCEAAAhCAAAQgAAEIQAACEIAABCAAAQhAAAIQgAAEIAABCEAAAhCAAAQgAAEIQAACEIAABCAAAQhAAAIQgAAEIAABCEAAAhCAAAQgAAEIQAACEIAABCAAAQhAAAIQgAAEIAABCEAAAhCAAAQgAAEIQAACEIAABCAAAQhAAAIQgAAEIAABCEAAAhCAAAQgAAEIQAACEIAABCAAAQhAAAIQgAAEIAABCEAAAhCAAAQgAAEIQAACEIAABCAAAQhAAAIQgAAEIAABCDRH4P8HQaFEGYjIy3AAAAAASUVORK5CYII=&quot; width=&quot;422&quot; height=&quot;416&quot; style=&quot;margin-left: 0px; margin-top: 0px;&quot;&gt;&lt;/span&gt;&lt;/span&gt;&lt;/b&gt;" style="text;whiteSpace=wrap;html=1;" vertex="1" parent="1">
          <mxGeometry x="250" y="180" width="460" height="450" as="geometry" />
        </mxCell>
      </root>
    </mxGraphModel>
  </diagram>
</mxfile>
